<?xml version="1.0" standalone="no"?>
<!DOCTYPE svg PUBLIC "-//W3C//DTD SVG 20010904//EN"
 "http://www.w3.org/TR/2001/REC-SVG-20010904/DTD/svg10.dtd">
<svg version="1.0" xmlns="http://www.w3.org/2000/svg"
 width="800.000000pt" height="800.000000pt" viewBox="0 0 800.000000 800.000000"
 preserveAspectRatio="xMidYMid meet">
<metadata>
Created by potrace 1.11, written by Peter Selinger 2001-2013
</metadata>
<g transform="translate(0.000000,800.000000) scale(0.100000,-0.100000)"
fill="#000000" stroke="none">
<path d="M0 4000 l0 -4000 4000 0 4000 0 0 4000 0 4000 -4000 0 -4000 0 0
-4000z m3410 551 c230 -47 384 -132 475 -266 53 -79 76 -150 82 -260 19 -327
-214 -543 -650 -601 -161 -21 -418 -14 -562 16 -357 75 -545 267 -545 554 0
158 50 278 157 376 114 104 297 175 510 199 132 15 419 5 533 -18z m1943 5
c54 -9 103 -18 108 -21 5 -4 9 -58 9 -121 0 -108 -1 -115 -18 -109 -164 52
-551 65 -654 22 -50 -21 -75 -60 -59 -93 16 -36 80 -59 274 -99 204 -42 262
-58 345 -96 83 -37 136 -80 170 -137 23 -40 27 -58 26 -122 -1 -125 -55 -205
-184 -270 -133 -67 -296 -94 -570 -94 -190 0 -369 17 -468 43 l-27 7 -3 117
-3 118 28 -7 c15 -3 44 -10 63 -15 140 -34 466 -50 570 -28 67 14 110 50 110
93 0 64 -64 97 -271 141 -285 59 -389 97 -468 169 -57 53 -81 105 -81 181 0
188 184 301 555 339 85 9 454 -4 548 -18z m1492 14 c55 -5 133 -15 173 -21
l72 -12 0 -119 c0 -112 -1 -119 -18 -113 -107 33 -395 58 -528 46 -104 -10
-156 -29 -179 -65 -45 -68 15 -100 295 -157 317 -64 441 -125 496 -244 59
-125 8 -269 -123 -353 -182 -116 -623 -153 -1010 -85 l-93 16 0 119 c0 109 2
119 18 114 184 -57 583 -74 683 -29 79 35 84 100 12 149 -35 24 -103 43 -347
98 -302 68 -426 162 -426 322 0 63 18 109 61 158 49 56 102 88 197 120 64 22
206 50 302 59 77 8 321 6 415 -3z m-4790 -120 l0 -115 -382 -3 -383 -2 0 -110
0 -110 295 0 295 0 0 -115 0 -115 -295 0 -295 0 0 -220 0 -220 -235 0 -235 0
0 565 0 565 618 -2 617 -3 0 -115z"/>
<path d="M2939 4336 c-102 -27 -172 -87 -218 -186 -35 -76 -36 -217 -2 -302
44 -114 148 -188 290 -208 85 -12 149 -6 242 21 169 48 265 228 225 418 -39
185 -164 272 -390 270 -55 0 -122 -6 -147 -13z"/>
</g>
</svg>
