<svg id="Layer_1" data-name="Layer 1" xmlns="http://www.w3.org/2000/svg" viewBox="0 0 328.52 197.64"><defs><style>.cls-1{fill:#d8d9da;}.cls-2{fill:none;stroke:#231f20;stroke-miterlimit:10;}.cls-3{fill:#231f20;}</style></defs><title>box</title><rect class="cls-1" x="0.84" y="88.76" width="326.85" height="20.13"/><rect class="cls-2" x="0.5" y="0.5" width="327.52" height="196.64"/><line class="cls-2" x1="0.5" y1="98.82" x2="328.02" y2="98.82"/><path class="cls-3" d="M120.11,374.73V361.94h4.39a5.32,5.32,0,0,1,3.3.87,3.05,3.05,0,0,1,1.14,2.59,2.73,2.73,0,0,1-.48,1.58,3,3,0,0,1-1.39,1.09,2.82,2.82,0,0,1,1.61,1.06,3.07,3.07,0,0,1,.56,1.87,3.42,3.42,0,0,1-1.15,2.77,5,5,0,0,1-3.31,1Zm2.23-7.4h2.18a2.54,2.54,0,0,0,1.62-.47,1.92,1.92,0,0,0,0-2.71,2.73,2.73,0,0,0-1.68-.42h-2.16Zm0,1.63v4h2.47a2.36,2.36,0,0,0,1.63-.52A2,2,0,0,0,125,369Z" transform="translate(-99.41 -342.39)"/><path class="cls-3" d="M141.68,368.67A7.93,7.93,0,0,1,141,372a4.87,4.87,0,0,1-1.86,2.18,5.45,5.45,0,0,1-5.55,0,5,5,0,0,1-1.88-2.17,7.5,7.5,0,0,1-.68-3.24V368a7.78,7.78,0,0,1,.67-3.3,5,5,0,0,1,1.87-2.2,5.48,5.48,0,0,1,5.55,0,5,5,0,0,1,1.86,2.17,7.65,7.65,0,0,1,.67,3.28Zm-2.22-.67a5.57,5.57,0,0,0-.81-3.26,2.63,2.63,0,0,0-2.28-1.13,2.6,2.6,0,0,0-2.25,1.13,5.48,5.48,0,0,0-.83,3.19v.74a5.53,5.53,0,0,0,.82,3.26,2.64,2.64,0,0,0,2.28,1.15,2.61,2.61,0,0,0,2.27-1.12,5.68,5.68,0,0,0,.8-3.29Z" transform="translate(-99.41 -342.39)"/><path class="cls-3" d="M148.11,366.56l2.69-4.62h2.56l-3.87,6.34,4,6.45h-2.59L148.11,370l-2.76,4.69h-2.59l4-6.45-3.88-6.34h2.57Z" transform="translate(-99.41 -342.39)"/><path class="cls-3" d="M165,374.73h-2.13V364.45l-3.14,1.07v-1.79l5-1.84H165Z" transform="translate(-99.41 -342.39)"/><path class="cls-3" d="M218.78,492.27h-4v11h-2.2v-11h-4v-1.79h10.15Z" transform="translate(-99.41 -342.39)"/><path class="cls-3" d="M230.62,503.28h-2.21V497.6h-5.72v5.68h-2.23v-12.8h2.23v5.33h5.72v-5.33h2.21Z" transform="translate(-99.41 -342.39)"/><path class="cls-3" d="M235.6,503.28h-2.22v-12.8h2.22Z" transform="translate(-99.41 -342.39)"/><path class="cls-3" d="M245,500a1.57,1.57,0,0,0-.59-1.3,7.33,7.33,0,0,0-2.14-.92,10.36,10.36,0,0,1-2.46-1,3.28,3.28,0,0,1-1.75-2.86,3.13,3.13,0,0,1,1.26-2.55,5.08,5.08,0,0,1,3.27-1,5.47,5.47,0,0,1,2.38.49,3.9,3.9,0,0,1,1.65,1.4,3.59,3.59,0,0,1,.59,2H245a2,2,0,0,0-.63-1.57,2.59,2.59,0,0,0-1.8-.57,2.72,2.72,0,0,0-1.69.47,1.55,1.55,0,0,0-.6,1.3A1.4,1.4,0,0,0,241,495a7.39,7.39,0,0,0,2.15.91,9.88,9.88,0,0,1,2.39,1,3.69,3.69,0,0,1,1.33,1.3,3.4,3.4,0,0,1,.42,1.72,3.06,3.06,0,0,1-1.22,2.54,5.33,5.33,0,0,1-3.33.94,6.28,6.28,0,0,1-2.55-.51,4.27,4.27,0,0,1-1.81-1.42,3.54,3.54,0,0,1-.65-2.11h2.22a2.08,2.08,0,0,0,.73,1.69,3.12,3.12,0,0,0,2.06.6,2.79,2.79,0,0,0,1.75-.47A1.53,1.53,0,0,0,245,500Z" transform="translate(-99.41 -342.39)"/><path class="cls-3" d="M260.37,500a1.55,1.55,0,0,0-.6-1.3,7.2,7.2,0,0,0-2.14-.92,10.36,10.36,0,0,1-2.46-1,3.3,3.3,0,0,1-1.75-2.86,3.13,3.13,0,0,1,1.26-2.55,5.11,5.11,0,0,1,3.28-1,5.5,5.5,0,0,1,2.38.49,3.88,3.88,0,0,1,1.64,1.4,3.6,3.6,0,0,1,.6,2h-2.21a2,2,0,0,0-.63-1.57,2.59,2.59,0,0,0-1.8-.57,2.7,2.7,0,0,0-1.69.47,1.55,1.55,0,0,0-.6,1.3,1.38,1.38,0,0,0,.65,1.17,7.31,7.31,0,0,0,2.14.91,9.8,9.8,0,0,1,2.4,1,3.77,3.77,0,0,1,1.33,1.3,3.4,3.4,0,0,1,.42,1.72,3,3,0,0,1-1.23,2.54,5.28,5.28,0,0,1-3.32.94,6.33,6.33,0,0,1-2.56-.51,4.33,4.33,0,0,1-1.81-1.42,3.54,3.54,0,0,1-.64-2.11h2.22a2.07,2.07,0,0,0,.72,1.69,3.15,3.15,0,0,0,2.07.6,2.76,2.76,0,0,0,1.74-.47A1.54,1.54,0,0,0,260.37,500Z" transform="translate(-99.41 -342.39)"/><path class="cls-3" d="M266.89,503.28h-2.22v-12.8h2.22Z" transform="translate(-99.41 -342.39)"/><path class="cls-3" d="M269.62,503.28v-12.8h3.78a5.88,5.88,0,0,1,3,.76,5.12,5.12,0,0,1,2,2.14,6.72,6.72,0,0,1,.73,3.18v.65a6.79,6.79,0,0,1-.73,3.19,5.1,5.1,0,0,1-2.06,2.13,6.22,6.22,0,0,1-3.08.75Zm2.22-11v9.23h1.45a3.33,3.33,0,0,0,2.69-1.09,4.78,4.78,0,0,0,.95-3.14v-.71a5,5,0,0,0-.9-3.19,3.23,3.23,0,0,0-2.63-1.1Z" transform="translate(-99.41 -342.39)"/><path class="cls-3" d="M288.86,497.57H283.6v3.93h6.15v1.78h-8.37v-12.8h8.31v1.79H283.6v3.54h5.26Z" transform="translate(-99.41 -342.39)"/><path class="cls-3" d="M305.4,490.48V499a4.15,4.15,0,0,1-1.3,3.23,4.93,4.93,0,0,1-3.48,1.19,5,5,0,0,1-3.49-1.17,4.18,4.18,0,0,1-1.29-3.26v-8.54h2.21V499a2.73,2.73,0,0,0,.65,2,2.57,2.57,0,0,0,1.92.68c1.71,0,2.57-.9,2.57-2.71v-8.49Z" transform="translate(-99.41 -342.39)"/><path class="cls-3" d="M310,498.53v4.75h-2.23v-12.8h4.9a5,5,0,0,1,3.41,1.12,3.75,3.75,0,0,1,1.26,3,3.66,3.66,0,0,1-1.24,2.93,5.22,5.22,0,0,1-3.46,1Zm0-1.79h2.67a2.65,2.65,0,0,0,1.81-.56,2,2,0,0,0,.62-1.61,2.22,2.22,0,0,0-.63-1.66,2.48,2.48,0,0,0-1.74-.64H310Z" transform="translate(-99.41 -342.39)"/></svg>