<?xml version="1.0" encoding="utf-8"?>
<!-- Generator: Adobe Illustrator 23.0.1, SVG Export Plug-In . SVG Version: 6.00 Build 0)  -->
<svg version="1.1" id="Layer_1" xmlns="http://www.w3.org/2000/svg" xmlns:xlink="http://www.w3.org/1999/xlink" x="0px" y="0px"
	 viewBox="0 0 1000 1000" style="enable-background:new 0 0 1000 1000;" xml:space="preserve">
<style type="text/css">
	.st0{fill:#AFB1B4;}
	.st1{fill:#CED0D1;}
	.st2{fill:none;stroke:#151616;stroke-width:0.9901;stroke-miterlimit:10;}
	.st3{fill:none;stroke:#000000;stroke-width:6.5611;stroke-miterlimit:10;}
	.st4{fill-rule:evenodd;clip-rule:evenodd;fill:#070A09;}
	.st5{fill-rule:evenodd;clip-rule:evenodd;fill:#009933;}
	.st6{fill:none;stroke:#000000;stroke-width:0.9901;stroke-miterlimit:10;}
	.st7{fill:none;stroke:#000000;stroke-width:0.9901;stroke-linecap:round;stroke-linejoin:round;stroke-miterlimit:10;}
	.st8{fill:none;stroke:#000000;stroke-width:1.3048;stroke-linecap:round;stroke-linejoin:round;stroke-miterlimit:10;}
	.st9{fill:none;stroke:#151616;stroke-width:1.3048;stroke-miterlimit:10;}
	.st10{fill-rule:evenodd;clip-rule:evenodd;fill:#FCFCFC;}
	.st11{fill:none;stroke:#FEFEFE;stroke-width:1.3048;stroke-miterlimit:10;}
	.st12{fill:none;stroke:#000000;stroke-width:1.1967;stroke-linecap:round;stroke-linejoin:round;stroke-miterlimit:10;}
	.st13{fill-rule:evenodd;clip-rule:evenodd;fill:#FFFFFF;}
	.st14{fill:none;stroke:#151616;stroke-width:1.1967;stroke-miterlimit:10;}
	.st15{fill-rule:evenodd;clip-rule:evenodd;}
	.st16{fill:none;stroke:#000000;stroke-width:1.1967;stroke-miterlimit:10;}
	.st17{fill:#FFFFFF;}
	.st18{fill-rule:evenodd;clip-rule:evenodd;fill:none;}
	.st19{fill:none;stroke:#009933;stroke-width:6.9903;stroke-miterlimit:10;}
	.st20{fill:#009933;}
	.st21{fill:none;stroke:#009933;stroke-width:15.3786;stroke-miterlimit:10;}
	.st22{fill:none;stroke:#000000;stroke-width:0.9613;stroke-linecap:round;stroke-linejoin:round;stroke-miterlimit:10;}
	.st23{fill:none;stroke:#151616;stroke-width:1.049;stroke-miterlimit:10;}
	.st24{fill:#151616;}
	.st25{fill:none;stroke:#000000;stroke-width:0.9613;stroke-miterlimit:10;}
	.st26{fill:none;stroke:#151616;stroke-width:0.9613;stroke-miterlimit:10;}
	.st27{fill:none;stroke:#151616;stroke-width:0.225;stroke-miterlimit:10;}
	.st28{fill:none;stroke:#000000;stroke-width:0.9932;stroke-linecap:round;stroke-linejoin:round;stroke-miterlimit:10;}
	.st29{fill:none;stroke:#151616;stroke-width:0.9932;stroke-miterlimit:10;}
	.st30{fill:none;stroke:#FEFEFE;stroke-width:0.9932;stroke-miterlimit:10;}
	.st31{fill:none;stroke:#151616;stroke-width:0.9932;stroke-linecap:round;stroke-linejoin:round;stroke-miterlimit:10;}
	.st32{fill:none;stroke:#151616;stroke-width:1.2586;stroke-miterlimit:10;}
	.st33{fill:none;stroke:#000000;stroke-width:1.625;stroke-linecap:round;stroke-linejoin:round;stroke-miterlimit:10;}
	.st34{font-family:'ArialMT';}
	.st35{font-size:16.7753px;}
	.st36{letter-spacing:-1;}
	.st37{letter-spacing:2;}
	.st38{fill:#8F9194;}
	.st39{fill:none;stroke:#151616;stroke-width:1.159;stroke-miterlimit:10;}
	.st40{fill:#AFB1B4;stroke:#000000;stroke-width:1.115;stroke-miterlimit:10;}
	.st41{fill:none;stroke:#009933;stroke-width:7.5778;stroke-miterlimit:10;}
	.st42{fill:none;stroke:#009933;stroke-width:16.6712;stroke-miterlimit:10;}
	.st43{fill:#FFFFFF;stroke:#151616;stroke-width:1.2586;stroke-miterlimit:10;}
	.st44{fill:none;stroke:#000000;stroke-width:1.5181;stroke-linecap:round;stroke-linejoin:round;stroke-miterlimit:10;}
	.st45{fill-rule:evenodd;clip-rule:evenodd;fill:#C8C8C8;}
	.st46{fill:#C7C7C7;}
	.st47{fill:none;stroke:#000000;stroke-width:1.5079;stroke-linecap:round;stroke-linejoin:round;stroke-miterlimit:10;}
	.st48{fill:none;stroke:#151616;stroke-width:1.5079;stroke-miterlimit:10;}
	.st49{fill:none;stroke:#000000;stroke-width:0.9814;stroke-linecap:round;stroke-linejoin:round;stroke-miterlimit:10;}
	.st50{fill:none;stroke:#151616;stroke-width:0.9814;stroke-miterlimit:10;}
	.st51{fill:none;stroke:#FEFEFE;stroke-width:0.9814;stroke-miterlimit:10;}
	.st52{fill:none;stroke:#151616;stroke-width:0.9814;stroke-linecap:round;stroke-linejoin:round;stroke-miterlimit:10;}
	.st53{fill:none;stroke:#151616;stroke-width:0.6983;stroke-miterlimit:10;}
	.st54{fill:none;stroke:#151616;stroke-width:4.1862;stroke-miterlimit:10;}
	.st55{fill:none;stroke:#000000;stroke-width:0.785;stroke-linecap:round;stroke-linejoin:round;stroke-miterlimit:10;}
	.st56{fill:none;stroke:#151616;stroke-width:0.785;stroke-miterlimit:10;}
	.st57{fill:none;stroke:#000000;stroke-width:1.0776;stroke-linecap:round;stroke-linejoin:round;stroke-miterlimit:10;}
	.st58{fill:none;stroke:#151616;stroke-width:1.0776;stroke-miterlimit:10;}
	.st59{fill-rule:evenodd;clip-rule:evenodd;fill:#009933;stroke:#009933;stroke-miterlimit:10;}
	.st60{fill:#CED0D1;stroke:#000000;stroke-width:1.115;stroke-miterlimit:10;}
	.st61{fill:#C8C8C8;}
	.st62{fill:none;stroke:#151616;stroke-width:1.5181;stroke-miterlimit:10;}
	.st63{clip-path:url(#SVGID_4_);}
	.st64{clip-path:url(#SVGID_6_);}
	.st65{clip-path:url(#SVGID_8_);}
	.st66{clip-path:url(#SVGID_10_);}
	.st67{clip-path:url(#SVGID_14_);}
	.st68{clip-path:url(#SVGID_16_);}
	.st69{clip-path:url(#SVGID_18_);}
	.st70{clip-path:url(#SVGID_20_);}
	.st71{clip-path:url(#SVGID_24_);}
	.st72{clip-path:url(#SVGID_26_);}
	.st73{clip-path:url(#SVGID_28_);}
	.st74{clip-path:url(#SVGID_30_);}
	.st75{clip-path:url(#SVGID_34_);}
	.st76{clip-path:url(#SVGID_38_);}
	.st77{clip-path:url(#SVGID_42_);}
	.st78{clip-path:url(#SVGID_46_);}
	.st79{clip-path:url(#SVGID_48_);}
	.st80{clip-path:url(#SVGID_50_);}
	.st81{clip-path:url(#SVGID_52_);}
	.st82{fill:#7A7A7A;}
	.st83{clip-path:url(#SVGID_56_);}
	.st84{clip-path:url(#SVGID_58_);}
	.st85{clip-path:url(#SVGID_60_);}
	.st86{clip-path:url(#SVGID_62_);}
	.st87{clip-path:url(#SVGID_66_);}
	.st88{clip-path:url(#SVGID_68_);}
	.st89{clip-path:url(#SVGID_70_);}
	.st90{clip-path:url(#SVGID_72_);}
	.st91{clip-path:url(#SVGID_76_);}
	.st92{clip-path:url(#SVGID_78_);}
	.st93{clip-path:url(#SVGID_80_);}
	.st94{clip-path:url(#SVGID_82_);}
	.st95{clip-path:url(#SVGID_86_);}
	.st96{clip-path:url(#SVGID_88_);}
	.st97{clip-path:url(#SVGID_90_);fill:#FFFFFF;}
	.st98{clip-path:url(#SVGID_92_);}
	.st99{clip-path:url(#SVGID_94_);}
	.st100{clip-path:url(#SVGID_96_);}
	.st101{clip-path:url(#SVGID_98_);}
	.st102{clip-path:url(#SVGID_102_);}
	.st103{clip-path:url(#SVGID_104_);}
	.st104{clip-path:url(#SVGID_106_);fill:#FFFFFF;}
	.st105{clip-path:url(#SVGID_108_);}
	.st106{clip-path:url(#SVGID_110_);}
	.st107{clip-path:url(#SVGID_112_);}
	.st108{clip-path:url(#SVGID_114_);}
	.st109{clip-path:url(#SVGID_118_);}
	.st110{clip-path:url(#SVGID_120_);}
	.st111{clip-path:url(#SVGID_122_);}
</style>
<path class="st0" d="M623,625.89l141.33,32.44c0,0,5.11,0.56,13.11,0.78c8,0.22,15.78-4.44,15.78-4.44l74.44-54.56l-0.67,4.11
	l-74,55.44l-10.89,7.11l-12.61,0.28l-31.17-7.17l-106.22-24.67l-6.44-5.33L623,625.89z"/>
<path class="st0" d="M127.8,464.88l1.98,142.72l1.49,7.43l5.49,6.92l6.4,3.49l24.78,5.45h24.78c0,0,15.86-0.99,17.34-0.99
	c1.49,0,13.38-1.98,13.38-1.98l17.34-3.96l6.94-6.44l3.49-3.62l1.96-146.04l-7.43-3.47L127.8,464.88z"/>
<path class="st32" d="M257.83,607.86l0.34-1.01l25.51-44.64l2.68-1.34l3.36-0.34l4.36,1.34l6.38,2.01l6.04,2.35l8.73,4.03
	l11.08,6.38c5.88,3.89,30.65,16.41,32.55,24.5v1.34l-25.51,47.99l-2.68,0.34l-4.03-0.67l-5.71-1.34l-8.73-3.02l-9.4-4.36l-10.4-5.71
	l-20.47-12.42l-5.71-4.03l-4.03-3.36l-2.01-2.35l-1.68-2.01l-0.67-2.68V607.86z"/>
<polyline class="st32" points="357.51,600.81 356.17,602.15 354.15,602.49 351.8,602.15 347.44,600.47 332.34,593.76 322.61,588.73 
	313.88,583.69 306.83,579.67 298.44,574.3 293.07,569.93 289.04,566.24 288.04,564.56 288.37,563.22 "/>
<line class="st32" x1="293.07" y1="572.95" x2="268.24" y2="616.92"/>
<line class="st32" x1="294.75" y1="573.96" x2="269.58" y2="617.59"/>
<line class="st32" x1="292.06" y1="571.95" x2="267.23" y2="615.91"/>
<line class="st32" x1="291.06" y1="570.94" x2="266.22" y2="614.57"/>
<line class="st32" x1="295.76" y1="574.97" x2="270.92" y2="618.6"/>
<line class="st32" x1="289.71" y1="570.27" x2="264.88" y2="613.9"/>
<path class="st24" d="M367.02,893.17l44.82-63.78l-41.47-58.93h25.99l18.83,28.77c3.54,5.47,6.39,10.05,8.55,13.75
	c3.39-5.08,6.51-9.59,9.36-13.52l20.68-29h24.84l-42.4,57.77l45.63,64.93h-25.53l-25.18-38.13l-6.7-10.28l-32.23,48.41H367.02z"/>
<path class="st24" d="M625.95,873.18v19.99H514.01c-0.16-5.01,0.65-9.82,2.43-14.44c2.85-7.63,7.41-15.14,13.69-22.53
	c6.28-7.4,15.34-15.95,27.21-25.65c18.41-15.1,30.84-27.05,37.31-35.88c6.47-8.82,9.7-17.16,9.7-25.01c0-8.24-2.95-15.19-8.84-20.85
	c-5.89-5.66-13.57-8.49-23.05-8.49c-10.01,0-18.02,3-24.03,9.01c-6.01,6.01-9.05,14.33-9.13,24.96l-21.37-2.2
	c1.46-15.94,6.97-28.09,16.52-36.45c9.55-8.36,22.37-12.54,38.47-12.54c16.25,0,29.11,4.51,38.58,13.52
	c9.47,9.01,14.21,20.18,14.21,33.51c0,6.78-1.39,13.44-4.16,19.99c-2.77,6.55-7.38,13.44-13.8,20.68
	c-6.43,7.24-17.12,17.18-32.06,29.81c-12.48,10.48-20.49,17.58-24.03,21.32c-3.54,3.74-6.47,7.49-8.78,11.27H625.95z"/>
<g>
	<polyline class="st33" points="707.1,407.05 707.1,407.49 706.67,407.92 706.67,408.79 705.8,409.65 	"/>
	<path class="st33" d="M678.5,420.92l0.87-0.87c6.33-4.48,12.78-8.51,19.93-11.27l1.3-0.43"/>
	<polyline class="st33" points="738.3,403.15 738.3,404.89 737.87,405.32 737.87,405.75 	"/>
	<path class="st33" d="M710.13,406.19l2.6-0.43c5.25-1.81,16.19-1.65,22.1-2.6h3.47"/>
	<path class="st33" d="M814.13,420.49l-1.73-0.43c-17.32-2.46-33.41-6.88-50.27-11.27l-1.73-0.43"/>
	<path class="st33" d="M738.3,403.15h2.6c23.12,0.77,45.36,11.69,70.2,14.3l1.3,0.43"/>
	<line class="st33" x1="725.73" y1="410.95" x2="725.73" y2="406.62"/>
	<line class="st33" x1="800.27" y1="427.85" x2="725.73" y2="410.95"/>
	<line class="st33" x1="700.17" y1="413.99" x2="685.43" y2="424.82"/>
	<polyline class="st33" points="700.6,410.95 700.6,412.69 700.17,413.99 	"/>
	<path class="st33" d="M725.73,410.95l-1.3-0.43c-8.88-0.93-15.11-0.95-23.4,2.6l-0.87,0.87"/>
	<line class="st33" x1="700.17" y1="430.45" x2="700.17" y2="413.99"/>
	<line class="st33" x1="725.73" y1="410.95" x2="725.73" y2="435.65"/>
	<path class="st33" d="M677.2,388.85l1.73-1.3l1.73-0.87l2.17-1.3c28.41-14.59,67.94-15.79,98.8-9.53l2.6,0.43l3.03,0.87
		c16.65,3.26,50.69,18.82,31.63,39.43l-1.3,1.3l-1.73,1.3l-1.3,0.87l-1.73,1.3c-23.54,15.9-68.81,18.03-96.2,13l-6.07-0.87
		c-16.26-3.48-56.33-16.86-38.57-39.87l3.9-3.9L677.2,388.85z"/>
	<path class="st33" d="M676.77,419.62l1.3-0.87c30.14-20.66,93.38-20.5,126.1-5.63l2.17,1.3l2.17,0.87l1.73,0.87l3.47,2.6l1.73,0.87
		"/>
	<path class="st33" d="M705.8,409.65h-1.73c-8.28,2.8-15.96,5.8-22.97,11.27l-1.73,0.87"/>
	<path class="st33" d="M705.8,409.65l1.73-0.43c9-1.88,19.02-2.92,28.17-3.47h2.17"/>
	<line class="st33" x1="814.13" y1="420.49" x2="814.13" y2="420.49"/>
	<path class="st33" d="M760.4,408.35l-3.03-0.43c-5.81-1.99-12.09-2.33-18.2-2.17h-1.3"/>
	<path class="st33" d="M787.27,473.79l-0.43-0.43v-0.43l-0.43-0.43v-0.43l-3.03,0.43c-8.07,2.42-17.79,2.22-26,3.47h-3.47v1.3h0.43
		c9.02-0.11,17.51-1.38,26.43-2.6l3.03-0.43L787.27,473.79z"/>
	<path class="st33" d="M753.9,475.95h-3.03c-15.74,1.33-31.89,4.14-47.67,1.73l-2.6-0.87l-1.73-0.43c-4.73-1.3-8.95-3.81-13.43-5.63
		l-2.6-1.73l-2.17-1.73c-5.04-2.46-9.17-6.43-13.43-9.97l-0.87-0.43l-0.43-0.87l-0.87-0.43l-0.43,0.43v0.43h-0.87l0.87,0.87
		c34.71,28.07,45.54,22.19,87.97,20.37l1.73-0.43"/>
	<path class="st33" d="M655.97,442.15l-0.87,0.87h-0.43l0.43,1.73c1.88,4.89,3.78,7,7.37,10.83l1.3,0.87"/>
	<path class="st33" d="M665.07,455.59l-1.73-1.3c-3.86-4.07-7.89-8.4-7.8-14.3v-0.87"/>
	<path class="st33" d="M655.53,436.95l-0.43,0.43c-1.1,2.72-0.86,1.82-0.87,4.77l0.43,0.87"/>
	<polyline class="st33" points="836.67,436.09 837.1,436.52 837.53,436.52 837.1,435.22 836.67,433.92 	"/>
	<path class="st33" d="M836.67,439.12v3.47l-0.43,1.73l-0.43,1.3l-0.43,2.17l-0.87,1.73l-0.43,1.73l-0.87,1.73
		c-1.42,2.09-3.01,5.24-4.77,6.93l-0.87,0.43l-0.87,0.87l-0.43,0.87l-0.87,0.43c-1.7,1.91-9.08,4.8-11.7,5.2l-4.33,0.87
		c-6.62,1.11-13.4,1.83-19.93,3.03h-1.3l-1.73,0.43"/>
	<path class="st33" d="M787.27,473.79l2.6-0.87c11.57-2.43,24.44-2.23,34.67-8.67l0.87-0.43l0.87-0.87l0.87-0.43l0.87-0.87
		l0.43-0.87l0.87-0.87l0.87-0.43l0.87-1.73l0.87-0.87l0.43-0.87l1.3-1.73l0.87-1.73l0.87-2.17c1.34-4.29,2.53-7.2,2.17-11.7v-2.17"
		/>
	<path class="st33" d="M834.93,424.39l14.3,3.47c2.72-1.47,0.71-1.32,4.33-1.3H854"/>
	<line class="st33" x1="849.23" y1="427.85" x2="837.53" y2="436.52"/>
	<path class="st33" d="M787.27,473.79l-12.13,8.23l1.73,0.43c9.45,3.42,16.89,12.49,17.77,22.97v1.3l73.67-54.17v-1.73
		c-0.53-10.23-7.91-19.7-17.77-22.53l-1.3-0.43"/>
	<line class="st33" x1="775.13" y1="482.02" x2="754.33" y2="477.25"/>
	<path class="st33" d="M663.77,456.45l-20.8-4.77c-6.59,4.8-11.23,18.86-10.83,26.87v1.3l132.17,30.33v-1.3l0.43-1.73
		c0.11-4.26,1.13-7.22,2.17-11.27l0.43-1.3l0.43-1.73c1.86-3.34,3.47-6.69,6.07-9.53l0.87-0.43l0.43-0.87"/>
	<path class="st33" d="M629.53,454.29l1.3-0.87c6.39-2.48,5.67-2.46,12.13-1.73l11.7-8.67"/>
	<path class="st33" d="M620.43,472.05l0.43,0.43c0.29,3.74,5.03,5.73,8.23,6.5l1.3,0.43l1.73,0.43"/>
	<polyline class="st33" points="868.3,452.55 869.17,451.69 870.03,451.25 870.47,450.39 870.9,449.95 870.9,449.09 871.33,448.65 
		871.33,448.22 	"/>
	<path class="st33" d="M764.3,510.19l1.73,0.43c8.15,1.95,20.11,0.76,27.73-3.03l0.87-0.87"/>
	<line class="st33" x1="833.2" y1="421.79" x2="854" y2="426.55"/>
	<line class="st33" x1="629.53" y1="454.29" x2="655.53" y2="435.22"/>
	<path class="st33" d="M620.43,472.05l0.43-1.73c0.04-6.04,3.24-11.04,7.37-15.17l1.3-0.87"/>
	<path class="st33" d="M854,426.55l3.47,0.87c2.63,1.85,6.25,2.54,7.8,5.63l1.3,0.87l0.87,1.73c1.89,2.64,3.78,5.71,3.47,9.1
		l0.43,1.73v1.73"/>
	<path class="st33" d="M827.57,415.72l1.73,1.3l2.6,2.6c9.24,11.79,4.06,22.43-6.93,30.33l-3.47,2.6
		c-18.95,10.72-45.13,15.74-66.73,16.03l-3.47,0.43h-10.4c-22.77-1.13-47.93-3.96-68.03-15.6l-2.17-0.87l-1.73-1.3
		c-11.77-6.73-18.76-20.32-8.67-31.63l0.87-1.3l1.73-1.3l1.3-1.3"/>
	<line class="st33" x1="655.53" y1="439.12" x2="655.53" y2="431.75"/>
	<line class="st33" x1="836.67" y1="439.12" x2="836.67" y2="431.75"/>
	<line class="st33" x1="868.3" y1="452.55" x2="868.3" y2="595.56"/>
	<line class="st33" x1="794.63" y1="650.16" x2="794.63" y2="506.72"/>
	<line class="st33" x1="764.3" y1="510.19" x2="764.3" y2="653.62"/>
	<line class="st33" x1="632.13" y1="623.29" x2="632.13" y2="479.85"/>
	<line class="st33" x1="871.33" y1="591.22" x2="871.33" y2="448.22"/>
	<line class="st33" x1="620.43" y1="615.49" x2="620.43" y2="472.05"/>
	<polyline class="st33" points="871.33,591.22 871.33,592.09 870.9,592.52 870.9,593.39 869.17,595.12 868.3,595.56 794.63,650.16 	
		"/>
	<path class="st33" d="M770.37,667.06h-0.87l-0.43-0.43l-0.87-0.43l-0.43-0.43l-0.87-1.73l-0.43-0.43l-0.43-1.3
		c-1.02-2.22-1.48-3.22-1.3-5.63l-0.43-1.73v-1.3l-132.17-30.33v1.3c-0.28,3.46,1.37,10.91,5.2,12.13h0.43"/>
	<path class="st33" d="M632.13,623.29l-1.73-0.43c-2.98-0.91-9.24-3.24-9.53-6.93l-0.43-0.43"/>
	<path class="st33" d="M862.23,608.99l1.3-0.87c3.13-2.4,4.4-7.14,4.77-10.83v-1.73"/>
	<path class="st33" d="M794.63,650.16v1.3c-1.21,6.15-0.82,6.4-5.2,11.27l-0.87,0.87"/>
	<path class="st33" d="M794.63,650.16l-1.73,0.87c-2.56,2.33-6.15,1.49-9.1,3.03l-1.73,0.43h-3.03l-1.73,0.43h-3.47l-1.73-0.43
		h-3.03l-1.73-0.43h-1.3l-1.73-0.43"/>
	<path class="st33" d="M770.37,667.06l-132.6-30.33c-9.1-1.96-16.73-10.4-16.9-19.93l-0.43-1.3"/>
	<path class="st33" d="M862.23,608.99l-73.67,54.6c-9.73,4.73-6.1,3.85-16.9,3.9l-1.3-0.43"/>
	<polyline class="st33" points="871.33,591.22 871.33,592.96 870.9,594.69 870.9,596.42 870.47,597.72 869.6,599.89 869.17,601.19 
		867.87,602.49 867,604.22 866.13,605.52 863.53,608.12 862.23,608.99 	"/>
	<path class="st33" d="M674.6,387.99l1.73-1.3l3.47-1.73c28.09-15.8,73.02-16.63,104-10.4l2.6,0.87l3.03,0.43
		c18.08,4.12,53.05,20.31,31.63,42.03l-1.3,1.3l-1.3,0.87l-3.47,2.6c-27.69,16.63-71.02,17.88-102.27,12.57l-3.03-0.43l-3.03-0.87
		c-16.68-3.21-56.06-17.74-37.7-40.73l3.9-3.9L674.6,387.99z"/>
	<path class="st33" d="M827.57,431.75v1.3v1.3c-10.42,41.85-159.24,41.05-163.37-2.6v-27.3"/>
	<line class="st33" x1="827.57" y1="431.75" x2="827.57" y2="404.45"/>
	<polyline class="st33" points="675.9,586.02 675.47,585.15 674.6,584.72 673.73,583.85 672.87,583.42 672.43,582.12 672,581.25 
		671.57,580.39 671.57,579.09 	"/>
	<polyline class="st33" points="676.77,537.49 675.9,537.49 675.03,537.05 674.17,537.92 673.3,537.92 	"/>
	<polyline class="st33" points="724.87,553.52 724.87,551.35 724,550.49 723.13,549.62 723.13,548.75 721.83,548.32 720.97,547.45 
		720.1,547.02 	"/>
	<polyline class="st33" points="723.13,593.82 724,593.39 724.87,592.09 724.87,591.65 724.87,590.35 724,591.22 724,592.09 
		723.13,593.82 723.13,594.69 722.7,594.69 721.4,595.55 720.53,595.55 719.67,595.55 	"/>
	<line class="st33" x1="724" y1="553.95" x2="724.87" y2="553.52"/>
	<polyline class="st33" points="720.1,547.02 719.67,547.45 720.53,547.89 721.4,548.32 722.7,548.75 723.13,550.05 723.13,550.92 
		723.57,552.22 724,553.09 724,553.95 	"/>
	<line class="st33" x1="675.9" y1="537.92" x2="676.77" y2="537.49"/>
	<polyline class="st33" points="671.57,542.25 671.57,540.95 672,540.52 672.43,539.22 672.87,538.79 673.73,537.92 674.6,537.92 
		675.47,537.92 675.9,537.92 	"/>
	<line class="st33" x1="723.13" y1="594.69" x2="723.13" y2="593.82"/>
	<line class="st33" x1="672.87" y1="538.79" x2="673.3" y2="537.92"/>
	<line class="st33" x1="675.9" y1="586.02" x2="719.67" y2="595.56"/>
	<line class="st33" x1="676.77" y1="537.49" x2="720.1" y2="547.02"/>
	<line class="st33" x1="724.87" y1="553.52" x2="724.87" y2="590.36"/>
	<line class="st33" x1="724" y1="591.22" x2="724" y2="553.95"/>
	<line class="st33" x1="719.67" y1="547.45" x2="675.9" y2="537.92"/>
	<line class="st33" x1="671.57" y1="542.25" x2="671.57" y2="579.09"/>
	<path d="M688.03,554.82c0.43,0,0.87,0.43,0.43,0.87c-0.43,0.43-0.87,0.87-1.3,0.43l-2.6-0.43c-0.87,0-1.3,0-2.17,0.43
		c-0.43,0.43-0.87,0.87-1.3,1.73l-3.9,8.23c-0.43,0.87-0.43,1.3-0.43,1.73c0.43,0.43,0.87,0.87,1.3,0.87l3.03,0.87
		c0.43,0,0.43,0.87,0,1.3c0,0.43-0.43,0.43-0.87,0.43l-3.03-0.43c-0.87-0.43-1.73-0.87-1.73-2.17c-0.43-0.87-0.43-1.73,0.43-3.03
		l3.9-8.23c0.43-1.3,1.3-1.73,2.6-2.6c0.87-0.87,1.73-0.87,3.03-0.87"/>
	<path d="M691.07,556.55c0-0.43,0.43-0.43,0.87-0.43c0.43,0,0.87,0,0.43,0.87l-6.5,13.43c0,0.43,0,0.87,0.43,0.87
		c0,0,0.43,0.43,0,0.87c-0.43,0.43-0.43,0.87-0.87,0.87c-0.87-0.43-1.3-0.87-1.3-1.3c0-0.43,0-0.87,0.43-1.73"/>
	<path d="M692.37,569.12l-0.43,1.73c-0.43,0.43-0.43,0.43-0.43,0.87c0,0.43,0.43,0.87,0.87,0.87l3.47,0.87
		c0.43,0,0.43,0.43,0.43,0.87c-0.43,0.43-0.87,0.87-1.3,0.87l-3.47-0.87c-0.87,0-1.3-0.87-1.73-1.73c0-0.43,0-1.3,0.43-2.17
		l2.17-4.33c0.43-0.87,1.3-2.17,2.6-2.6c0.87-0.87,2.17-0.87,2.6-0.87c1.3,0.43,1.73,0.87,2.17,1.73c0,1.3,0,2.17-0.43,3.47
		l-1.3,2.6 M697.13,564.35c-0.87,0-1.3,0-2.17,0.43c-0.43,0.43-0.87,1.3-1.3,1.73l-0.43,0.87l3.9,0.87l0.43-0.87
		c0.43-0.43,0.43-1.3,0.43-1.73C698,564.79,697.57,564.35,697.13,564.35z"/>
	<path d="M706.67,571.72l-3.03-0.43c-0.43,0-0.87,0-1.3,0c-0.43,0.43-0.43,0.87-0.87,1.3c0,0.43-0.43,0.87,0,1.3
		c0,0.43,0.43,0.43,0.43,0.87l3.03,0.43 M701.03,576.05c-0.43,0-0.87-0.87-1.3-1.3c0-0.87,0-1.3,0.43-2.6
		c0.43-0.43,0.43-0.87,1.3-1.3c0.87-1.3,2.17-1.3,3.03-1.3l3.03,0.87l0.43-1.73c0.43-0.43,0.43-1.3,0.43-1.3
		c-0.43-0.43-0.43-0.87-0.87-0.87l-2.6-0.43c-0.43-0.43-0.43-0.43-0.43-1.3c0-0.43,0.43-0.87,1.3-0.87l2.6,0.87
		c0.87,0,1.3,0.87,1.3,1.73c0.43,0.87,0.43,1.3,0,2.17l-3.9,7.8c0,0.43-0.87,0.43-0.87,0.43L701.03,576.05z"/>
	<path d="M708.4,577.35l4.77-9.97c0.43-0.43,0.87-0.87,1.3-0.87l3.47,0.87c0.87,0,1.3,0.87,1.3,1.3c0,0.87,0,2.17,0,2.6l-3.9,7.37
		c0,0.87-0.43,0.87-0.87,0.87c-0.87,0-0.87-0.43-0.43-0.87l3.47-7.37c0.43-0.43,0.43-0.87,0.43-1.73c-0.43,0-0.43-0.43-0.87-0.43
		l-3.03-0.87l-4.33,9.53c-0.43,0.43-0.43,0.87-0.87,0.43C707.97,578.22,707.97,578.22,708.4,577.35"/>
</g>
<path class="st32" d="M145.36,548.23h90.28v-58.4h-90.28V548.23z M229.94,415.32l13.76,9.4l3.36,2.35l2.35,2.01
	c5.41,5.35,2.86,18.96,3.69,24.5l-1.34,156.73v3.02c-3.89,6.95-8.88,10.47-16.78,12.08l-6.38,1.68l-7.38,1.34l-7.72,1.01l-7.72,0.34
	c-17.1,0.06-52.08,3-68.47-8.39l-4.36-5.03l-2.01-4.36l-1.01-7.72l-3.02-167.81l1.01-2.68l2.01-2.68l3.36-3.69l4.03-3.36l4.36-3.36
	l7.38-4.36"/>
<text transform="matrix(1 0 0 1.0002 161.8079 527.085)"><tspan x="0" y="0" class="st24 st34 st35 st36">C</tspan><tspan x="11.07" y="0" class="st24 st34 st35 st37">L</tspan><tspan x="22.47" y="0" class="st24 st34 st35">EA</tspan><tspan x="44.65" y="0" class="st24 st34 st35">N</tspan></text>
<path class="st32" d="M189.33,385.45c16.78,0,30.54-4.36,30.54-9.73c0-5.37-13.76-10.07-30.54-10.07c-16.45,0-30.21,4.7-30.21,10.07
	C159.13,381.09,172.89,385.45,189.33,385.45z"/>
<path class="st32" d="M216.85,379.08c-5.71-4.03-16.45-6.71-28.53-6.71c-11.08,0-21.14,2.01-27.19,5.71"/>
<path class="st32" d="M211.15,381.43c-5.03-1.01-11.08-1.68-17.45-2.01c-11.08-0.67-20.81,0.67-26.85,3.02"/>
<path class="st32" d="M155.1,398.54c-2.35,1.34-3.69,3.36-3.69,5.37c0,6.71,17.12,12.08,38.26,12.08c21.48,0,38.6-5.37,38.6-12.08
	c0-2.01-1.34-3.69-3.69-5.37"/>
<line class="st32" x1="158.79" y1="375.72" x2="158.79" y2="380.76"/>
<line class="st32" x1="220.21" y1="375.05" x2="220.54" y2="382.77"/>
<polyline class="st32" points="155.1,398.54 155.43,396.19 156.78,394.18 155.1,392.17 154.76,391.5 154.43,390.49 154.43,389.48 
	154.76,388.48 155.77,388.14 156.78,388.14 157.11,387.8 155.77,386.8 154.76,385.12 154.76,383.11 155.1,382.1 156.44,381.43 
	158.79,380.76 "/>
<path class="st32" d="M224.91,398.88l-1.01-0.34v-2.01l0.67-0.67l0.34-1.34v-2.01l-0.34-1.01l-1.34-0.67l0.67-0.67
	c1.4-2.86,1.78-5.17-1.34-7.05l-1.68-0.34"/>
<path class="st32" d="M216.85,389.82c-6.04,3.69-17.45,6.04-30.54,5.37c-11.75-0.67-22.15-3.36-28.53-7.05"/>
<path class="st32" d="M217.86,395.86c-6.38,4.03-18.12,6.04-31.55,5.71c-12.08-0.67-22.82-3.36-29.53-7.38"/>
<path class="st32" d="M158.45,379.08c0,5.37,13.76,9.73,30.88,9.73s31.21-4.36,31.21-9.73"/>
<path class="st32" d="M151.41,406.26c-1.34,1.34-2.01,2.68-2.01,4.03c0,7.38,18.12,13.42,39.94,13.42
	c22.49,0,40.27-6.04,40.27-13.42c0-1.34-0.67-2.35-1.68-3.69"/>
<path class="st32" d="M154.76,399.21c-1.01,0.67-1.34,1.68-1.34,2.68c0,5.71,16.11,10.07,35.91,10.07
	c20.14,0,36.25-4.36,36.25-10.07c0-1.01-0.34-2.01-1.68-3.02"/>
<ellipse class="st38" cx="190.29" cy="465.44" rx="61.94" ry="7.8"/>
<g>
	<polyline class="st0" points="189.01,330.58 195.51,330.58 196.12,307.09 204.47,265.06 205.09,176.73 173.87,176.73 
		174.49,265.06 182.83,307.09 183.45,330.58 189.94,330.58 	"/>
	<path class="st39" d="M189.1,104.71h-7.11c-5.92,1.15-16.99,2.77-16.69,11.13v42.34l8.04,7.73l0.62,98.59l8.34,42.03l0.62,23.49
		h6.49"/>
	<line class="st39" x1="174.88" y1="165.9" x2="203" y2="165.9"/>
	<line class="st39" x1="182.91" y1="172.39" x2="194.97" y2="172.39"/>
	<line class="st39" x1="182.91" y1="193.1" x2="194.97" y2="193.1"/>
	<line class="st39" x1="183.22" y1="213.5" x2="194.97" y2="213.5"/>
	<line class="st39" x1="182.91" y1="234.21" x2="194.97" y2="234.21"/>
	<line class="st39" x1="182.91" y1="254.91" x2="194.97" y2="254.91"/>
	<line class="st39" x1="182.91" y1="275.31" x2="194.97" y2="275.31"/>
	<line class="st39" x1="169.01" y1="158.18" x2="208.88" y2="158.18"/>
	<path class="st39" d="M188.79,104.71h7.42c6.6,1.73,16.27,2.33,16.69,11.13v42.34l-8.34,7.73l-0.62,98.59l-8.34,42.03l-0.62,23.49
		h-6.49"/>
	<line class="st39" x1="203.31" y1="165.9" x2="175.19" y2="165.9"/>
	<line class="st39" x1="194.97" y1="172.39" x2="183.22" y2="172.39"/>
	<line class="st39" x1="194.97" y1="193.1" x2="183.22" y2="193.1"/>
	<line class="st39" x1="194.97" y1="213.5" x2="183.22" y2="213.5"/>
	<line class="st39" x1="194.97" y1="234.21" x2="183.22" y2="234.21"/>
	<line class="st39" x1="194.97" y1="254.91" x2="183.22" y2="254.91"/>
	<line class="st39" x1="194.97" y1="275.31" x2="183.22" y2="275.31"/>
	<line class="st39" x1="209.19" y1="158.18" x2="169.32" y2="158.18"/>
</g>
<g>
	<g>
		<polyline class="st0" points="744.9,331.02 751.39,331.02 752.01,307.53 760.35,265.5 760.97,247.42 729.76,247.42 730.37,265.5 
			738.72,307.53 739.34,331.02 745.83,331.02 		"/>
		<path class="st39" d="M744.98,105.15h-7.11c-5.92,1.15-16.99,2.77-16.69,11.13v42.34l8.04,7.73l0.62,98.59l8.34,42.03l0.62,23.49
			h6.49"/>
		<line class="st39" x1="730.76" y1="166.34" x2="758.89" y2="166.34"/>
		<line class="st39" x1="738.8" y1="172.83" x2="750.85" y2="172.83"/>
		<line class="st39" x1="738.8" y1="193.54" x2="750.85" y2="193.54"/>
		<line class="st39" x1="739.11" y1="213.94" x2="750.85" y2="213.94"/>
		<line class="st39" x1="738.8" y1="234.64" x2="750.85" y2="234.64"/>
		<line class="st39" x1="738.8" y1="255.35" x2="750.85" y2="255.35"/>
		<line class="st39" x1="738.8" y1="275.75" x2="750.85" y2="275.75"/>
		<line class="st39" x1="724.89" y1="158.61" x2="764.76" y2="158.61"/>
		<path class="st39" d="M744.67,105.15h7.42c6.6,1.73,16.27,2.33,16.69,11.13v42.34l-8.34,7.73l-0.62,98.59l-8.34,42.03l-0.62,23.49
			h-6.49"/>
		<line class="st39" x1="759.2" y1="166.34" x2="731.07" y2="166.34"/>
		<line class="st39" x1="750.85" y1="172.83" x2="739.11" y2="172.83"/>
		<line class="st39" x1="750.85" y1="193.54" x2="739.11" y2="193.54"/>
		<line class="st39" x1="750.85" y1="213.94" x2="739.11" y2="213.94"/>
		<line class="st39" x1="750.85" y1="234.64" x2="739.11" y2="234.64"/>
		<line class="st39" x1="750.85" y1="255.35" x2="739.11" y2="255.35"/>
		<line class="st39" x1="750.85" y1="275.75" x2="739.11" y2="275.75"/>
		<line class="st39" x1="765.07" y1="158.61" x2="725.2" y2="158.61"/>
	</g>
	<path class="st40" d="M758.71,380.29c0,7.73-6.27,14-14,14s-14-6.27-14-14c0-7.73,14-28.14,14-39.16
		C744.71,358.69,758.71,372.56,758.71,380.29z"/>
</g>
<g>
	<g>
		<g>
			<path class="st41" d="M320.3,342.6c0,0,126.39-69.24,242.3-24.58"/>
			<g>
				<polygon class="st20" points="534.88,347.54 610.37,344.03 569.6,280.41 				"/>
			</g>
		</g>
	</g>
	<path class="st42" d="M313.16,346.89c0,0,150.03-104.31,275.78-12.86"/>
</g>
<g>
	<rect x="144.92" y="489.94" class="st43" width="90.28" height="58.4"/>
	<text transform="matrix(1 0 0 1.0002 161.5584 525.6839)"><tspan x="0" y="0" class="st24 st34 st35 st36">C</tspan><tspan x="11.07" y="0" class="st24 st34 st35 st37">L</tspan><tspan x="22.47" y="0" class="st24 st34 st35">EA</tspan><tspan x="44.65" y="0" class="st24 st34 st35">N</tspan></text>
</g>
</svg>
