<?xml version="1.0" encoding="utf-8"?>
<!-- Generator: Adobe Illustrator 23.0.1, SVG Export Plug-In . SVG Version: 6.00 Build 0)  -->
<svg version="1.1" id="Layer_1" xmlns="http://www.w3.org/2000/svg" xmlns:xlink="http://www.w3.org/1999/xlink" x="0px" y="0px"
	 viewBox="0 0 1000 1000" style="enable-background:new 0 0 1000 1000;" xml:space="preserve">
<style type="text/css">
	.st0{fill:#AFB1B4;}
	.st1{fill:#CED0D1;}
	.st2{fill:none;stroke:#151616;stroke-width:0.9901;stroke-miterlimit:10;}
	.st3{fill:none;stroke:#000000;stroke-width:6.5611;stroke-miterlimit:10;}
	.st4{fill-rule:evenodd;clip-rule:evenodd;fill:#070A09;}
	.st5{fill-rule:evenodd;clip-rule:evenodd;fill:#009933;}
	.st6{fill:none;stroke:#000000;stroke-width:0.9901;stroke-miterlimit:10;}
	.st7{fill:none;stroke:#000000;stroke-width:0.9901;stroke-linecap:round;stroke-linejoin:round;stroke-miterlimit:10;}
	.st8{fill:none;stroke:#000000;stroke-width:1.3048;stroke-linecap:round;stroke-linejoin:round;stroke-miterlimit:10;}
	.st9{fill:none;stroke:#151616;stroke-width:1.3048;stroke-miterlimit:10;}
	.st10{fill-rule:evenodd;clip-rule:evenodd;fill:#FCFCFC;}
	.st11{fill:none;stroke:#FEFEFE;stroke-width:1.3048;stroke-miterlimit:10;}
	.st12{fill:none;stroke:#000000;stroke-width:1.1967;stroke-linecap:round;stroke-linejoin:round;stroke-miterlimit:10;}
	.st13{fill-rule:evenodd;clip-rule:evenodd;fill:#FFFFFF;}
	.st14{fill:none;stroke:#151616;stroke-width:1.1967;stroke-miterlimit:10;}
	.st15{fill-rule:evenodd;clip-rule:evenodd;}
	.st16{fill:none;stroke:#000000;stroke-width:1.1967;stroke-miterlimit:10;}
	.st17{fill:#FFFFFF;}
	.st18{fill-rule:evenodd;clip-rule:evenodd;fill:none;}
	.st19{fill:none;stroke:#009933;stroke-width:6.9903;stroke-miterlimit:10;}
	.st20{fill:#009933;}
	.st21{fill:none;stroke:#009933;stroke-width:15.3786;stroke-miterlimit:10;}
	.st22{fill:none;stroke:#000000;stroke-width:0.9613;stroke-linecap:round;stroke-linejoin:round;stroke-miterlimit:10;}
	.st23{fill:none;stroke:#151616;stroke-width:1.049;stroke-miterlimit:10;}
	.st24{fill:#151616;}
	.st25{fill:none;stroke:#000000;stroke-width:0.9613;stroke-miterlimit:10;}
	.st26{fill:none;stroke:#151616;stroke-width:0.9613;stroke-miterlimit:10;}
	.st27{fill:none;stroke:#151616;stroke-width:0.225;stroke-miterlimit:10;}
	.st28{fill:none;stroke:#000000;stroke-width:0.9932;stroke-linecap:round;stroke-linejoin:round;stroke-miterlimit:10;}
	.st29{fill:none;stroke:#151616;stroke-width:0.9932;stroke-miterlimit:10;}
	.st30{fill:none;stroke:#FEFEFE;stroke-width:0.9932;stroke-miterlimit:10;}
	.st31{fill:none;stroke:#151616;stroke-width:0.9932;stroke-linecap:round;stroke-linejoin:round;stroke-miterlimit:10;}
	.st32{fill:none;stroke:#151616;stroke-width:1.2586;stroke-miterlimit:10;}
	.st33{fill:none;stroke:#000000;stroke-width:1.625;stroke-linecap:round;stroke-linejoin:round;stroke-miterlimit:10;}
	.st34{fill:#8F9194;}
	.st35{fill:none;stroke:#151616;stroke-width:1.159;stroke-miterlimit:10;}
	.st36{fill:#AFB1B4;stroke:#000000;stroke-width:1.115;stroke-miterlimit:10;}
	.st37{fill:none;stroke:#009933;stroke-width:7.5778;stroke-miterlimit:10;}
	.st38{fill:none;stroke:#009933;stroke-width:16.6712;stroke-miterlimit:10;}
	.st39{fill:#FFFFFF;stroke:#151616;stroke-width:1.2586;stroke-miterlimit:10;}
	.st40{fill:none;stroke:#000000;stroke-width:1.5181;stroke-linecap:round;stroke-linejoin:round;stroke-miterlimit:10;}
	.st41{fill-rule:evenodd;clip-rule:evenodd;fill:#C8C8C8;}
	.st42{fill:#C7C7C7;}
	.st43{fill:none;stroke:#000000;stroke-width:1.5079;stroke-linecap:round;stroke-linejoin:round;stroke-miterlimit:10;}
	.st44{fill:none;stroke:#151616;stroke-width:1.5079;stroke-miterlimit:10;}
	.st45{fill:none;stroke:#000000;stroke-width:0.9814;stroke-linecap:round;stroke-linejoin:round;stroke-miterlimit:10;}
	.st46{fill:none;stroke:#151616;stroke-width:0.9814;stroke-miterlimit:10;}
	.st47{fill:none;stroke:#FEFEFE;stroke-width:0.9814;stroke-miterlimit:10;}
	.st48{fill:none;stroke:#151616;stroke-width:0.9814;stroke-linecap:round;stroke-linejoin:round;stroke-miterlimit:10;}
	.st49{fill:none;stroke:#151616;stroke-width:0.6983;stroke-miterlimit:10;}
	.st50{fill:none;stroke:#151616;stroke-width:4.1862;stroke-miterlimit:10;}
	.st51{fill:none;stroke:#000000;stroke-width:0.785;stroke-linecap:round;stroke-linejoin:round;stroke-miterlimit:10;}
	.st52{fill:none;stroke:#151616;stroke-width:0.785;stroke-miterlimit:10;}
	.st53{fill:none;stroke:#000000;stroke-width:1.0776;stroke-linecap:round;stroke-linejoin:round;stroke-miterlimit:10;}
	.st54{fill:none;stroke:#151616;stroke-width:1.0776;stroke-miterlimit:10;}
	.st55{fill-rule:evenodd;clip-rule:evenodd;fill:#009933;stroke:#009933;stroke-miterlimit:10;}
	.st56{fill:#CED0D1;stroke:#000000;stroke-width:1.115;stroke-miterlimit:10;}
	.st57{fill:#C8C8C8;}
	.st58{fill:none;stroke:#151616;stroke-width:1.5181;stroke-miterlimit:10;}
	.st59{clip-path:url(#SVGID_4_);}
	.st60{clip-path:url(#SVGID_6_);}
	.st61{clip-path:url(#SVGID_8_);}
	.st62{clip-path:url(#SVGID_10_);}
	.st63{clip-path:url(#SVGID_14_);}
	.st64{clip-path:url(#SVGID_16_);}
	.st65{clip-path:url(#SVGID_18_);}
	.st66{clip-path:url(#SVGID_20_);}
	.st67{clip-path:url(#SVGID_24_);}
	.st68{clip-path:url(#SVGID_26_);}
	.st69{clip-path:url(#SVGID_28_);}
	.st70{clip-path:url(#SVGID_30_);}
	.st71{clip-path:url(#SVGID_34_);}
	.st72{clip-path:url(#SVGID_38_);}
	.st73{clip-path:url(#SVGID_42_);}
	.st74{clip-path:url(#SVGID_46_);}
	.st75{clip-path:url(#SVGID_48_);}
	.st76{clip-path:url(#SVGID_50_);}
	.st77{clip-path:url(#SVGID_52_);}
	.st78{fill:#7A7A7A;}
	.st79{clip-path:url(#SVGID_56_);}
	.st80{clip-path:url(#SVGID_58_);}
	.st81{clip-path:url(#SVGID_60_);}
	.st82{clip-path:url(#SVGID_62_);}
	.st83{clip-path:url(#SVGID_66_);}
	.st84{clip-path:url(#SVGID_68_);}
	.st85{clip-path:url(#SVGID_70_);}
	.st86{clip-path:url(#SVGID_72_);}
	.st87{clip-path:url(#SVGID_76_);}
	.st88{clip-path:url(#SVGID_78_);}
	.st89{clip-path:url(#SVGID_80_);}
	.st90{clip-path:url(#SVGID_82_);}
	.st91{clip-path:url(#SVGID_86_);}
	.st92{clip-path:url(#SVGID_88_);}
	.st93{clip-path:url(#SVGID_90_);fill:#FFFFFF;}
	.st94{clip-path:url(#SVGID_92_);}
	.st95{clip-path:url(#SVGID_94_);}
	.st96{clip-path:url(#SVGID_96_);}
	.st97{clip-path:url(#SVGID_98_);}
	.st98{clip-path:url(#SVGID_102_);}
	.st99{clip-path:url(#SVGID_104_);}
	.st100{clip-path:url(#SVGID_106_);fill:#FFFFFF;}
	.st101{clip-path:url(#SVGID_108_);}
	.st102{clip-path:url(#SVGID_110_);}
	.st103{clip-path:url(#SVGID_112_);}
	.st104{clip-path:url(#SVGID_114_);}
	.st105{clip-path:url(#SVGID_118_);}
	.st106{clip-path:url(#SVGID_120_);}
	.st107{clip-path:url(#SVGID_122_);}
</style>
<line class="st49" x1="76.67" y1="676.84" x2="76.48" y2="676.46"/>
<g>
	<g>
		<path class="st24" d="M96.99,710.82h-4.18v-26.66c-1.01,0.96-2.33,1.92-3.96,2.88c-1.63,0.96-3.1,1.68-4.4,2.16v-4.04
			c2.34-1.1,4.38-2.43,6.13-4c1.75-1.56,2.99-3.08,3.72-4.56h2.7V710.82z"/>
		<path class="st24" d="M107.94,694.02c0-4.03,0.41-7.27,1.24-9.73c0.83-2.46,2.06-4.35,3.69-5.68c1.63-1.33,3.69-2,6.17-2
			c1.83,0,3.43,0.37,4.81,1.1c1.38,0.74,2.52,1.8,3.42,3.18c0.9,1.39,1.6,3.08,2.11,5.07c0.51,1.99,0.77,4.68,0.77,8.05
			c0,4-0.41,7.22-1.23,9.68c-0.82,2.45-2.05,4.35-3.68,5.69c-1.63,1.34-3.7,2.01-6.19,2.01c-3.28,0-5.86-1.18-7.74-3.53
			C109.06,705.03,107.94,700.42,107.94,694.02z M112.24,694.02c0,5.59,0.65,9.32,1.96,11.17c1.31,1.85,2.92,2.78,4.84,2.78
			s3.54-0.93,4.84-2.79c1.31-1.86,1.96-5.58,1.96-11.16c0-5.61-0.65-9.34-1.96-11.18c-1.31-1.84-2.94-2.77-4.89-2.77
			c-1.92,0-3.45,0.81-4.6,2.44C112.96,684.59,112.24,688.42,112.24,694.02z"/>
		<path class="st24" d="M134.65,694.02c0-4.03,0.41-7.27,1.24-9.73c0.83-2.46,2.06-4.35,3.69-5.68c1.63-1.33,3.69-2,6.17-2
			c1.83,0,3.43,0.37,4.81,1.1c1.38,0.74,2.52,1.8,3.42,3.18c0.9,1.39,1.6,3.08,2.11,5.07c0.51,1.99,0.77,4.68,0.77,8.05
			c0,4-0.41,7.22-1.23,9.68c-0.82,2.45-2.05,4.35-3.68,5.69c-1.63,1.34-3.7,2.01-6.19,2.01c-3.28,0-5.86-1.18-7.74-3.53
			C135.77,705.03,134.65,700.42,134.65,694.02z M138.94,694.02c0,5.59,0.65,9.32,1.96,11.17c1.31,1.85,2.92,2.78,4.84,2.78
			c1.92,0,3.54-0.93,4.84-2.79c1.31-1.86,1.96-5.58,1.96-11.16c0-5.61-0.65-9.34-1.96-11.18c-1.31-1.84-2.94-2.77-4.89-2.77
			c-1.92,0-3.45,0.81-4.6,2.44C139.66,684.59,138.94,688.42,138.94,694.02z"/>
		<path class="st24" d="M160.88,700.59v-4.21h12.85v4.21H160.88z"/>
		<path class="st24" d="M198.18,706.8v4.02h-22.52c-0.03-1.01,0.13-1.98,0.49-2.9c0.57-1.53,1.49-3.04,2.75-4.53
			c1.26-1.49,3.09-3.21,5.47-5.16c3.7-3.04,6.2-5.44,7.51-7.22c1.3-1.77,1.95-3.45,1.95-5.03c0-1.66-0.59-3.06-1.78-4.2
			c-1.18-1.14-2.73-1.71-4.64-1.71c-2.01,0-3.62,0.6-4.83,1.81c-1.21,1.21-1.82,2.88-1.84,5.02l-4.3-0.44
			c0.29-3.21,1.4-5.65,3.32-7.33c1.92-1.68,4.5-2.52,7.74-2.52c3.27,0,5.86,0.91,7.76,2.72c1.91,1.81,2.86,4.06,2.86,6.74
			c0,1.36-0.28,2.7-0.84,4.02c-0.56,1.32-1.48,2.7-2.78,4.16c-1.29,1.46-3.44,3.46-6.45,6c-2.51,2.11-4.12,3.54-4.83,4.29
			c-0.71,0.75-1.3,1.51-1.77,2.27H198.18z"/>
		<path class="st24" d="M216.31,710.82v-8.16h-14.78v-3.84l15.54-22.08h3.42v22.08h4.6v3.84h-4.6v8.16H216.31z M216.31,698.83
			v-15.36l-10.67,15.36H216.31z"/>
		<path class="st24" d="M229.6,694.02c0-4.03,0.41-7.27,1.24-9.73c0.83-2.46,2.06-4.35,3.69-5.68c1.63-1.33,3.69-2,6.17-2
			c1.83,0,3.43,0.37,4.81,1.1c1.38,0.74,2.52,1.8,3.42,3.18c0.9,1.39,1.6,3.08,2.11,5.07c0.51,1.99,0.77,4.68,0.77,8.05
			c0,4-0.41,7.22-1.23,9.68c-0.82,2.45-2.05,4.35-3.68,5.69c-1.63,1.34-3.7,2.01-6.19,2.01c-3.28,0-5.86-1.18-7.74-3.53
			C230.73,705.03,229.6,700.42,229.6,694.02z M233.9,694.02c0,5.59,0.65,9.32,1.96,11.17c1.31,1.85,2.92,2.78,4.84,2.78
			s3.54-0.93,4.84-2.79c1.31-1.86,1.96-5.58,1.96-11.16c0-5.61-0.65-9.34-1.96-11.18c-1.31-1.84-2.94-2.77-4.89-2.77
			c-1.92,0-3.45,0.81-4.6,2.44C234.62,684.59,233.9,688.42,233.9,694.02z"/>
		<path class="st24" d="M279.72,710.82l-13.2-34.07h4.88l8.85,24.75c0.71,1.98,1.31,3.84,1.79,5.58c0.53-1.86,1.14-3.72,1.84-5.58
			l9.2-24.75h4.6l-13.34,34.07H279.72z"/>
		<path class="st24" d="M293.04,710.82l13.08-34.07h4.86l13.94,34.07h-5.14l-3.97-10.32h-14.24l-3.74,10.32H293.04z M302.87,696.83
			h11.55l-3.55-9.44c-1.09-2.87-1.89-5.22-2.42-7.07c-0.43,2.19-1.05,4.36-1.84,6.51L302.87,696.83z"/>
		<path class="st24" d="M353.73,698.87l4.51,1.14c-0.95,3.7-2.65,6.53-5.1,8.47c-2.45,1.94-5.46,2.92-9,2.92
			c-3.67,0-6.66-0.75-8.96-2.24c-2.3-1.49-4.05-3.66-5.25-6.5c-1.2-2.84-1.8-5.88-1.8-9.14c0-3.55,0.68-6.64,2.03-9.29
			c1.35-2.64,3.28-4.65,5.79-6.02c2.5-1.37,5.26-2.06,8.26-2.06c3.41,0,6.27,0.87,8.6,2.6s3.94,4.18,4.86,7.32l-4.44,1.05
			c-0.79-2.48-1.94-4.28-3.44-5.42c-1.5-1.13-3.39-1.7-5.67-1.7c-2.62,0-4.81,0.63-6.56,1.88c-1.76,1.26-2.99,2.94-3.71,5.05
			c-0.71,2.12-1.07,4.3-1.07,6.54c0,2.9,0.42,5.43,1.27,7.59c0.84,2.16,2.16,3.78,3.94,4.84c1.78,1.07,3.71,1.6,5.79,1.6
			c2.52,0,4.66-0.73,6.41-2.18C351.92,703.9,353.11,701.74,353.73,698.87z"/>
	</g>
	
		<ellipse transform="matrix(0.3827 -0.9239 0.9239 0.3827 -558.1021 670.6382)" class="st50" cx="222.79" cy="752.95" rx="26.42" ry="26.42"/>
	<line class="st50" x1="209.4" y1="759.73" x2="236.36" y2="759.73"/>
	<line class="st50" x1="216.18" y1="766.16" x2="229.93" y2="766.16"/>
	<line class="st50" x1="202.97" y1="752.77" x2="242.96" y2="752.77"/>
	<line class="st50" x1="223.15" y1="739.02" x2="223.15" y2="752.77"/>
</g>
<path class="st51" d="M713.36,632.18v-0.21h0.21v-0.42c0-1.19,0-2.37,0-3.56l-0.21-0.21"/>
<path class="st51" d="M705.82,633.64h0.21v-0.21h0.21v-0.84c0.22-1.3,0.25-0.89,0.21-2.51v-0.42l-0.21-0.63
	c0.08-1.56-0.08-1.19-0.21-2.3l-0.21-0.21v-0.21"/>
<polyline class="st51" points="702.47,634.69 702.68,634.48 702.68,633.85 702.89,633.43 702.89,627.78 702.68,627.36 
	702.68,626.32 702.47,626.11 702.47,625.9 702.26,625.69 702.05,625.69 "/>
<path class="st51" d="M696.61,634.9l0.21-0.21v-0.42l0.21-0.21v-0.42l0.21-0.42v-3.56c0.17-1.22-0.45-2.34-0.42-3.35l-0.42-0.42"/>
<polyline class="st51" points="694.31,634.9 694.52,634.9 694.52,634.69 694.73,634.48 694.73,634.06 694.93,633.64 694.93,628.41 
	694.73,627.99 694.73,626.94 694.52,626.52 694.52,626.32 694.31,626.11 694.31,625.9 694.1,625.9 "/>
<polyline class="st51" points="691.79,634.9 692,634.9 692,634.69 692.21,634.27 692.21,634.06 692.42,633.64 692.42,628.2 
	692.21,627.78 692.21,627.36 692,626.73 692,626.32 691.79,626.11 691.79,625.9 691.58,626.11 "/>
<path class="st51" d="M689.91,633.85h0.21v-0.21l0.21-0.21c0-0.7,0-1.4,0-2.09v-3.14l-0.21-0.42v-0.21l-0.21-0.21v-0.21"/>
<path class="st51" d="M688.24,634.06v-0.21h0.21v-0.63l0.21-0.42v-3.14c0.09-1.39-0.31-0.13-0.21-2.09l-0.42-0.42"/>
<path class="st51" d="M679.02,631.55v0.63l0.21,0.42v0.42l0.21,0.42v0.42h0.21v-0.21l0.21-0.21v-0.63l0.21-0.42v-1.67
	c-0.11-0.74-0.13-1.62-0.42-2.3v-0.63h-0.21l-0.21,0.21v0.21l-0.21,0.21v0.42v1.05"/>
<line class="st51" x1="713.36" y1="632.18" x2="712.31" y2="632.18"/>
<line class="st51" x1="713.36" y1="627.78" x2="712.31" y2="627.78"/>
<line class="st51" x1="712.31" y1="632.18" x2="706.24" y2="632.39"/>
<line class="st51" x1="712.31" y1="627.78" x2="706.24" y2="627.78"/>
<line class="st51" x1="705.82" y1="633.64" x2="702.68" y2="633.85"/>
<line class="st51" x1="705.82" y1="626.32" x2="702.68" y2="626.52"/>
<line class="st51" x1="702.47" y1="634.69" x2="697.45" y2="634.9"/>
<line class="st51" x1="702.05" y1="625.69" x2="697.45" y2="625.9"/>
<polyline class="st51" points="696.4,634.9 696.61,634.9 696.82,635.11 697.45,635.11 697.45,634.9 697.66,634.48 697.66,633.85 
	697.87,633.64 697.87,632.39 698.07,631.76 698.07,630.29 697.87,629.87 697.87,627.78 697.66,627.36 697.66,626.52 697.45,626.32 
	697.45,625.9 697.03,625.48 696.4,625.48 696.4,625.69 696.19,625.9 "/>
<line class="st51" x1="696.61" y1="634.9" x2="695.35" y2="634.9"/>
<line class="st51" x1="696.4" y1="625.9" x2="695.14" y2="625.9"/>
<path class="st51" d="M694.1,634.9l0.21,0.21h0.84l0.21-0.21v-0.21l0.21-0.42v-0.63c-0.09-1.73,0.32-0.33,0.21-2.3v-2.09l-0.21-0.42
	v-1.88l-0.21-0.21v-0.42c-0.3-0.22-0.3-0.92-0.84-0.84h-0.21l-0.42,0.42"/>
<line class="st51" x1="694.31" y1="634.9" x2="692" y2="634.9"/>
<line class="st51" x1="694.1" y1="625.9" x2="691.58" y2="625.9"/>
<line class="st51" x1="689.7" y1="627.15" x2="691.58" y2="626.11"/>
<line class="st51" x1="689.91" y1="633.85" x2="691.79" y2="634.9"/>
<line class="st51" x1="689.91" y1="633.85" x2="688.24" y2="634.06"/>
<line class="st51" x1="689.91" y1="627.15" x2="688.03" y2="627.15"/>
<line class="st51" x1="679.44" y1="627.78" x2="688.03" y2="627.15"/>
<line class="st51" x1="679.65" y1="633.85" x2="688.24" y2="634.06"/>
<path class="st51" d="M631.29,635.32l0.42-0.42c0-0.84,0-1.67,0-2.51v-2.72l-0.21-0.42v-0.21l-0.21-0.21v-0.21"/>
<path class="st51" d="M657.25,634.48l0.42-0.42c0-0.77,0-1.54,0-2.3v-1.05c0.12-1.78-0.23-1.09-0.21-2.09l-0.21-0.21v-0.21h-0.21"/>
<path class="st51" d="M625.64,633.01v1.47l0.21,0.42l0.21,0.21h0.21v-0.63l0.21-0.42v-2.51c0.03-1.37,0.04-0.87-0.42-2.09v-0.42
	h-0.21l-0.21,0.21v1.05l-0.21,0.42v0.63"/>
<line class="st51" x1="651.18" y1="638.04" x2="632.34" y2="638.46"/>
<line class="st51" x1="650.97" y1="625.06" x2="631.92" y2="625.48"/>
<line class="st51" x1="657.25" y1="634.48" x2="652.86" y2="634.9"/>
<line class="st51" x1="657.04" y1="628.2" x2="652.65" y2="627.99"/>
<line class="st51" x1="625.85" y1="629.04" x2="631.29" y2="628.62"/>
<line class="st51" x1="626.06" y1="635.11" x2="631.29" y2="635.32"/>
<polyline class="st51" points="625.85,631.13 625.85,631.34 626.06,631.34 626.06,631.55 626.27,631.76 626.27,632.8 626.06,633.01 
	"/>
<line class="st51" x1="679.44" y1="629.87" x2="679.44" y2="630.08"/>
<path class="st51" d="M679.65,630.08v0.21c0,0.35,0,0.7,0,1.05v0.21"/>
<line class="st51" x1="657.67" y1="630.29" x2="679.44" y2="629.87"/>
<line class="st51" x1="657.67" y1="630.5" x2="679.65" y2="630.08"/>
<line class="st51" x1="657.67" y1="632.18" x2="679.65" y2="631.55"/>
<polyline class="st51" points="631.92,625.48 631.5,625.48 631.08,625.9 631.08,626.11 630.87,626.32 630.67,626.73 630.67,627.15 
	630.46,627.57 630.46,628.62 "/>
<polyline class="st51" points="630.67,635.32 630.67,635.95 630.87,636.36 630.87,636.99 631.08,637.2 631.08,637.62 631.29,638.04 
	631.5,638.04 631.71,638.25 631.71,638.46 632.34,638.46 "/>
<path class="st51" d="M651.18,638.04l0.42-0.21h0.21l0.63-0.63v-0.21l0.21-0.21v-0.84l0.21-0.42c0-0.98,0-1.95,0-2.93v-2.3
	c0.04-1.62,0.01-1.21-0.21-2.51v-0.42l-0.21-0.42v-0.42l-0.21-0.21v-0.42l-0.63-0.63h-0.21l-0.21-0.21h-0.21"/>
<line class="st51" x1="398.29" y1="888" x2="401.64" y2="888"/>
<line class="st51" x1="398.92" y1="893.02" x2="398.29" y2="888"/>
<line class="st51" x1="398.92" y1="893.02" x2="401.43" y2="893.02"/>
<line class="st51" x1="401.22" y1="894.7" x2="398.92" y2="893.02"/>
<line class="st51" x1="401.64" y1="890.93" x2="401.22" y2="894.7"/>
<line class="st51" x1="401.64" y1="882.35" x2="401.64" y2="890.93"/>
<line class="st51" x1="398.29" y1="879.42" x2="401.64" y2="882.35"/>
<line class="st51" x1="398.29" y1="888" x2="398.29" y2="879.42"/>
<path class="st51" d="M404.78,891.56l0.21,0.21c1.78-0.12,1.09,0.23,2.09,0.21h0.42"/>
<line class="st51" x1="395.36" y1="883.18" x2="395.36" y2="882.97"/>
<polyline class="st51" points="525.36,888.42 525.15,888.63 524.95,888.63 524.53,888.84 523.27,888.84 "/>
<polyline class="st51" points="524.32,878.79 524.74,879 525.15,879.83 525.15,880.67 "/>
<polyline class="st51" points="395.36,875.23 395.36,874.81 395.57,874.39 395.78,873.76 395.99,873.55 396.41,873.34 
	396.83,872.93 397.66,872.93 "/>
<polyline class="st51" points="513.43,869.79 513.85,869.79 514.27,869.99 514.69,869.99 515.11,870.41 "/>
<line class="st51" x1="524.32" y1="878.79" x2="515.11" y2="870.41"/>
<polyline class="st51" points="407.08,901.82 406.66,901.82 406.46,901.61 405.83,901.4 405.41,901.19 "/>
<path class="st51" d="M525.15,896.37v0.42c-0.81,1.37-0.37,1.58-1.67,2.09h-0.63"/>
<polyline class="st51" points="396.2,892.81 395.99,892.39 395.57,892.19 395.36,891.77 395.36,890.93 "/>
<line class="st51" x1="405.41" y1="901.19" x2="396.2" y2="892.81"/>
<line class="st51" x1="395.36" y1="890.93" x2="395.36" y2="882.97"/>
<line class="st51" x1="525.15" y1="896.37" x2="525.36" y2="888.42"/>
<line class="st51" x1="522.85" y1="898.88" x2="407.08" y2="901.82"/>
<line class="st51" x1="395.36" y1="882.97" x2="395.36" y2="875.23"/>
<line class="st51" x1="513.43" y1="869.79" x2="397.66" y2="872.93"/>
<line class="st51" x1="525.36" y1="888.42" x2="525.15" y2="880.67"/>
<line class="st51" x1="523.27" y1="888.84" x2="407.5" y2="891.98"/>
<polyline class="st51" points="538.13,886.32 538.34,886.32 538.34,885.9 538.55,885.7 538.55,882.76 538.34,882.35 538.34,881.51 
	538.13,881.3 538.13,881.09 537.92,881.09 "/>
<line class="st51" x1="538.13" y1="886.32" x2="525.36" y2="887.58"/>
<line class="st51" x1="537.92" y1="881.09" x2="525.15" y2="880.67"/>
<path class="st52" d="M538.55,882.56c47.52,0,87.51-57.99,67.83-103.84c-22.19-51.29-48.57-46.68-89.39-70.76
	c-38.94-22.82-49.62-51.92-3.98-70.97c35.8-14.86,75.78-5.65,112.63-5.65"/>
<path class="st52" d="M519.5,705.87c-39.15-21.77-50.03-49.2-3.98-67.2c35.59-14.03,74.32-5.23,111.16-5.23"/>
<path class="st52" d="M538.55,884.44c48.15,0,90.23-59.24,70.34-105.93c-22.4-52.76-49.41-48.15-90.86-72.64"/>
<path class="st52" d="M367.31,534.83l-6.7,3.77c-5.44,5.21-14.36,7.54-20.73,13.4l-6.28,3.98l-6.28,4.4l-5.44,3.56l-2.93,1.88
	l-1.88,2.09l-1.88,1.88l-3.14,2.09l-3.56,2.3l-3.56,2.93l-3.35,3.14l-1.67,1.67"/>
<polyline class="st52" points="367.52,559.95 363.33,562.67 359.35,564.98 355.58,567.7 351.4,570.84 347.63,572.51 342.19,574.4 
	339.46,575.65 338.42,575.65 337.58,576.07 336.95,576.7 336.32,576.91 335.49,576.7 333.18,576.7 332.35,577.12 331.51,577.12 
	330.25,577.33 329,577.33 "/>
<path class="st52" d="M328.79,577.33l-2.51,0.21l-1.88,0.21c-9.77,0.41-29.82-0.49-23.87,15.07l2.3,2.72l2.72,2.51l2.93,1.26
	l5.23,1.67l7.12,1.88l8.37,0.63l5.02-0.84l7.96-1.67l9.63-2.93l2.93-0.21l0.84-0.42h1.26l1.26,0.21l1.88-0.42l1.47-0.63l2.09,0.21"
	/>
<polygon class="st52" points="319.37,588.21 319.16,585.07 318.11,583.19 316.85,581.93 315.18,581.31 311.62,580.89 305.97,580.68 
	303.88,581.31 302.41,582.77 301.78,585.49 302.2,588.63 302.83,590.52 304.08,593.24 305.55,594.7 308.9,595.54 313.71,595.75 
	316.23,595.12 317.69,593.87 318.74,591.77 319.37,589.68 "/>
<polyline class="st52" points="337.58,597.43 336.95,593.45 336.53,590.94 336.53,588.84 335.91,586.75 335.28,585.07 "/>
<polyline class="st52" points="337.37,588.21 337.58,585.49 336.95,583.19 335.91,581.1 336.11,578.58 336.53,577.12 "/>
<polyline class="st52" points="333.18,596.17 332.77,593.03 331.93,590.73 331.09,587.38 330.46,584.45 328.58,582.77 "/>
<polyline class="st52" points="333.39,588.63 332.77,584.45 332.35,580.68 332.77,577.96 "/>
<polyline class="st52" points="328.79,579.63 328.16,581.72 327.95,584.86 328.16,588.21 329.62,593.45 "/>
<path class="st52" d="M306.81,603.08l-4.61,3.77c-8.95,5.59-21.62,6.91-17.79-7.75l1.47-2.72"/>
<polyline class="st52" points="306.81,603.92 304.71,608.52 302.41,613.34 301.78,617.31 302.2,619.83 302.62,621.5 303.25,622.76 
	304.71,624.43 306.39,625.48 308.69,626.32 311.2,626.73 314.34,625.9 316.02,624.43 316.85,622.76 318.11,619.83 319.37,617.73 
	320.62,616.69 321.46,614.8 322.93,611.87 324.6,609.57 325.02,609.36 "/>
<polyline class="st52" points="345.74,620.24 342.6,622.55 340.3,624.22 338.63,626.73 335.91,629.04 332.97,631.97 329.83,634.69 
	328.16,635.53 325.65,636.15 323.34,636.15 321.04,635.32 319.16,633.85 317.48,632.18 316.44,630.29 315.81,628.2 315.81,625.48 
	316.23,624.43 "/>
<polyline class="st52" points="360.61,634.9 357.89,635.95 355.37,636.78 352.86,637.2 350.77,637.2 347.84,638.88 342.81,640.55 
	338.21,641.81 333.6,642.64 330.04,642.43 326.9,641.6 324.81,640.34 323.14,638.25 322.51,636.57 322.72,635.95 "/>
<polyline class="st52" points="347.42,550.95 346.79,557.44 346.79,561.63 347,564.56 347.42,566.86 348.26,569.37 349.09,571.05 
	"/>
<polyline class="st52" points="359.56,563.72 358.93,557.23 359.56,550.95 361.03,546.14 362.49,542.79 "/>
<polyline class="st52" points="362.07,609.99 360.4,610.82 358.31,612.5 355.79,614.38 "/>
<polyline class="st52" points="355.17,611.45 354.96,608.52 354.12,606.22 352.65,603.29 351.4,601.19 349.51,599.31 "/>
<polyline class="st52" points="340.3,623.38 339.67,621.08 338.42,618.78 336.32,615.85 335.28,615.01 "/>
<polyline class="st52" points="359.35,619.62 354.96,617.1 348.88,613.75 344.28,611.24 335.49,607.06 329.42,604.12 "/>
<path class="st52" d="M362.07,628.83l-6.7-3.56c-13.38-8.04-27.95-14.25-40.82-22.19l-3.98-1.47l-1.67,1.67l-1.26,0.21l-0.42-0.63
	l-0.42-0.42l0.21-0.42l-2.93-0.84l-2.3-1.05l-1.67-1.05l-1.26-1.05h-1.88l-0.42-1.26l-3.35-1.26h-0.84l-1.05-0.63l-0.63,0.84
	l-1.26,0.84l-1.26,0.21l-1.47-0.21l-1.47-0.84l-2.3-1.26l-2.51-0.84l-3.35-1.47l-3.35-1.88l-2.09-0.84c-2.57-0.72-3.31-1.04-5.65,0
	l-0.84-0.42l-1.88-1.47l-0.84-1.88l0.42-5.44c4.04-6.85,10.59-14.88,15.49-21.35l0.84-0.21l3.14,2.3l0.42,1.47l0.84,1.26l0.63,1.26
	l11.72,9.63l0.63,0.42l1.05,0.42l1.47,1.47l-0.21,4.4l1.05,0.42"/>
<polyline class="st52" points="328.79,576.49 326.69,573.14 324.6,570 322.72,567.07 321.88,565.19 "/>
<polyline class="st52" points="350.98,636.57 350.35,634.48 348.05,629.87 346.16,626.32 345.12,624.64 "/>
<polyline class="st52" points="266.19,588.84 266.61,581.93 267.03,580.68 267.87,579.21 271.85,574.19 280.64,561.84 
	281.68,561.21 282.31,561.21 "/>
<path class="st52" d="M289.43,590.94l-0.84,0.42c-10.27-1.63-4.08-0.38-19.05-8.16l-1.05-0.21"/>
<polyline class="st52" points="276.45,585.91 271.64,583.19 269.33,581.93 268.5,581.31 268.29,580.26 268.5,579.42 "/>
<line class="st52" x1="296.76" y1="576.28" x2="288.59" y2="588.21"/>
<line class="st52" x1="298.64" y1="577.54" x2="290.48" y2="588.84"/>
<line class="st52" x1="299.69" y1="582.77" x2="294.25" y2="590.31"/>
<line class="st52" x1="297.8" y1="581.52" x2="292.36" y2="589.05"/>
<line class="st52" x1="297.6" y1="591.98" x2="299.06" y2="589.47"/>
<polyline class="st52" points="273.52,564.98 259.91,555.56 259.08,555.56 258.66,555.98 258.45,559.53 258.66,559.95 
	271.01,567.91 "/>
<line class="st52" x1="272.68" y1="565.4" x2="259.7" y2="556.39"/>
<polyline class="st52" points="265.57,575.44 251.75,566.65 251.12,566.44 250.49,566.86 250.28,570 250.49,570.42 263.26,579 "/>
<line class="st52" x1="264.73" y1="576.07" x2="251.33" y2="567.28"/>
<line class="st52" x1="293.41" y1="574.61" x2="283.36" y2="589.05"/>
<line class="st52" x1="292.15" y1="573.77" x2="281.89" y2="588.21"/>
<line class="st52" x1="290.69" y1="572.72" x2="280.43" y2="586.96"/>
<line class="st52" x1="289.22" y1="571.89" x2="279.17" y2="586.33"/>
<line class="st52" x1="287.97" y1="570.84" x2="277.71" y2="585.28"/>
<line class="st52" x1="286.5" y1="570" x2="276.45" y2="584.45"/>
<line class="st52" x1="285.03" y1="569.16" x2="274.78" y2="583.4"/>
<line class="st52" x1="283.57" y1="568.33" x2="273.52" y2="582.56"/>
<line class="st52" x1="282.31" y1="567.07" x2="272.05" y2="581.52"/>
<polyline class="st52" points="253.84,566.02 256.98,519.97 256.77,518.92 256.35,518.08 255.31,517.46 254.05,517.04 253,517.04 
	251.96,517.46 201.92,540.48 199.62,541.95 197.74,543.83 196.27,546.14 195.64,548.44 197.74,646.2 198.16,647.46 199.41,647.88 
	200.67,647.88 202.34,647.04 249.65,615.43 250.07,614.59 250.49,612.29 253.21,573.98 "/>
<line class="st52" x1="252.79" y1="528.97" x2="209.67" y2="549.9"/>
<line class="st52" x1="208.41" y1="557.02" x2="206.74" y2="637.83"/>
<path class="st52" d="M238.98,550.95l-15.07,8.37l-2.51,2.72c-3.34,5.06-7.65,17.4-2.09,22.4l2.09,1.05l1.26,0.21l15.49-9l2.51-3.35
	l2.72-5.23l0.84-3.56l0.63-4.4l-0.42-3.14l-1.26-2.93l-1.88-2.09L238.98,550.95z"/>
<polygon class="st52" points="224.53,566.23 223.07,566.86 222.86,574.4 224.32,573.77 "/>
<polygon class="st52" points="235,559.95 233.33,561 233.12,569.16 234.58,568.33 "/>
<polygon class="st52" points="237.93,586.54 223.49,594.29 221.18,597.01 218.88,601.19 217,606.85 216.58,611.24 217,614.38 
	217.83,616.69 219.09,618.15 221.18,619.41 222.44,619.41 237.09,611.03 239.4,607.68 242.12,602.66 242.96,599.31 243.37,595.12 
	242.96,592.19 241.91,589.26 240.02,587.38 "/>
<polygon class="st52" points="224.11,600.78 222.65,601.61 222.44,608.73 223.91,608.1 "/>
<polygon class="st52" points="234.16,595.12 232.49,595.75 232.28,603.71 233.74,602.87 "/>
<path class="st52" d="M359.98,627.78c7.75,2.93,21.77,14.65,27.01,16.75c32.03,12.98,41.03,60.92,7.12,99.23
	c-44.8,50.24-69.5,45.85-120.79,69.29c-48.99,22.4-72.43,50.66-35.17,69.29c16.96,8.37,38.73,8.79,61.34,7.75"/>
<path class="st52" d="M275.61,819.54c-47.31,18.63-67.2,42.29-30.36,57.78c15.28,6.49,34.33,7.33,54.01,6.91"/>
<path class="st52" d="M358.1,619.2c1.88,0,15.49,10.26,17.17,11.1c4.81,3.14,14.65,9.84,19.47,12.35
	c30.36,15.49,36.22,64.27,2.51,103.63c-45.85,53.38-70.55,48.57-122.68,73.69"/>
<line class="st51" x1="325.86" y1="890.72" x2="325.23" y2="894.7"/>
<line class="st51" x1="325.86" y1="882.35" x2="325.86" y2="890.72"/>
<line class="st51" x1="322.51" y1="879.21" x2="325.86" y2="882.35"/>
<line class="st52" x1="325.86" y1="882.35" x2="315.39" y2="882.35"/>
<line class="st52" x1="322.72" y1="879.21" x2="312.04" y2="879.21"/>
<line class="st52" x1="326.07" y1="890.93" x2="315.39" y2="890.93"/>
<line class="st52" x1="325.23" y1="894.7" x2="314.97" y2="894.7"/>
<line class="st51" x1="315.6" y1="891.77" x2="314.76" y2="895.95"/>
<line class="st51" x1="315.6" y1="882.35" x2="315.6" y2="891.77"/>
<line class="st51" x1="310.78" y1="878.16" x2="315.6" y2="882.35"/>
<line class="st51" x1="297.18" y1="893.44" x2="296.76" y2="890.72"/>
<line class="st51" x1="300.11" y1="895.95" x2="297.18" y2="893.44"/>
<line class="st51" x1="301.15" y1="891.77" x2="300.11" y2="895.95"/>
<line class="st51" x1="301.15" y1="882.35" x2="301.15" y2="891.77"/>
<line class="st51" x1="296.34" y1="878.16" x2="301.15" y2="882.35"/>
<line class="st51" x1="296.34" y1="883.81" x2="296.34" y2="878.16"/>
<line class="st52" x1="301.15" y1="882.35" x2="315.81" y2="882.35"/>
<line class="st52" x1="296.34" y1="877.95" x2="310.78" y2="877.95"/>
<line class="st52" x1="300.94" y1="891.98" x2="315.6" y2="891.98"/>
<line class="st52" x1="300.11" y1="895.95" x2="314.55" y2="895.95"/>
<path class="st24" d="M378.61,885.07l-46.06,2.72c12.77,1.26,25.33,1.67,33.7,1.47c3.14,0,5.44-0.42,7.54-0.63
	c1.47-0.21,2.51-0.21,4.81-0.84c2.09-0.42,3.56-0.63,3.77-1.05C383.01,886.32,386.36,884.44,378.61,885.07"/>
<polygon class="st15" points="390.13,884.86 372.96,878.58 389.08,893.23 "/>
<polygon class="st52" points="390.13,884.86 372.96,878.58 389.08,893.23 "/>
<g>
	<polyline class="st53" points="851.55,356.67 851.83,357.24 851.83,357.53 852.41,357.53 	"/>
	<polyline class="st53" points="852.41,356.95 851.83,356.95 851.55,356.38 	"/>
	<polyline class="st53" points="881.43,357.53 882.01,357.53 882.01,357.24 882.29,356.67 	"/>
	<polyline class="st53" points="882.29,356.09 882.01,356.67 882.01,356.95 881.43,356.95 	"/>
	<polyline class="st53" points="882.58,332.53 882.01,331.95 881.72,331.95 	"/>
	<polyline class="st53" points="852.7,331.95 852.12,331.95 851.83,332.24 851.83,332.53 	"/>
	<polyline class="st53" points="844.65,342.58 844.65,342.01 844.08,342.01 843.79,341.44 	"/>
	<polyline class="st53" points="843.79,357.53 844.08,357.53 844.65,357.24 844.65,356.67 	"/>
	<polyline class="st53" points="844.65,356.09 844.65,356.67 844.08,356.95 843.79,356.95 	"/>
	<polyline class="st53" points="816.49,356.67 816.78,357.24 816.78,357.53 817.35,357.53 	"/>
	<polyline class="st53" points="817.35,356.95 816.78,356.95 816.78,356.67 816.49,356.09 	"/>
	<polyline class="st53" points="817.35,341.44 816.78,342.01 816.49,342.58 	"/>
	<line class="st53" x1="881.43" y1="357.53" x2="852.41" y2="357.53"/>
	<line class="st53" x1="852.41" y1="356.95" x2="881.43" y2="356.95"/>
	<line class="st53" x1="882.58" y1="332.53" x2="882.29" y2="356.67"/>
	<line class="st53" x1="882.29" y1="356.09" x2="882.58" y2="332.24"/>
	<line class="st53" x1="852.7" y1="331.95" x2="881.72" y2="331.95"/>
	<line class="st53" x1="851.55" y1="356.67" x2="851.83" y2="332.53"/>
	<line class="st53" x1="817.35" y1="341.44" x2="843.79" y2="341.44"/>
	<line class="st53" x1="844.65" y1="356.09" x2="844.65" y2="342.3"/>
	<line class="st53" x1="844.65" y1="342.58" x2="844.65" y2="356.67"/>
	<line class="st53" x1="817.35" y1="356.95" x2="843.79" y2="356.95"/>
	<line class="st53" x1="843.79" y1="357.53" x2="817.35" y2="357.53"/>
	<line class="st53" x1="816.49" y1="342.58" x2="816.49" y2="356.09"/>
	<line class="st53" x1="816.49" y1="356.67" x2="816.49" y2="342.58"/>
	<line class="st53" x1="791.78" y1="352.93" x2="790.91" y2="352.93"/>
	<line class="st53" x1="771.66" y1="352.93" x2="771.09" y2="352.93"/>
	<line class="st53" x1="797.52" y1="339.71" x2="795.8" y2="349.19"/>
	<line class="st53" x1="769.36" y1="335.11" x2="793.21" y2="335.11"/>
	<line class="st53" x1="767.06" y1="349.19" x2="765.34" y2="339.71"/>
	<polyline class="st53" points="671.95,353.5 673.39,351.78 674.82,350.34 675.68,348.33 	"/>
	<polyline class="st53" points="652.41,338.56 651.55,340.29 651.26,342.58 651.26,344.31 651.83,346.61 	"/>
	<path class="st53" d="M653.56,351.21l-0.86-2.01l-1.15-1.72c-2.27-8.28,4.14-16.08,12.64-15.8l2.01,0.29l2.01,0.57
		c9.14,4.49,10.74,14.04,3.74,21.26l-2.01,1.15l-1.72,0.86"/>
	<polyline class="st53" points="767.06,349.19 768.21,351.49 768.79,352.07 769.94,352.64 771.09,352.93 	"/>
	<polyline class="st53" points="791.78,352.93 792.64,352.64 794.08,352.07 794.65,351.49 795.8,349.19 	"/>
	<polyline class="st53" points="797.52,339.71 797.52,338.56 797.24,337.41 795.51,335.69 794.36,335.11 793.21,335.11 	"/>
	<polyline class="st53" points="769.36,335.11 768.21,335.11 767.06,335.69 766.2,336.55 765.63,337.41 765.34,338.56 
		765.34,339.71 	"/>
	<line class="st53" x1="748.67" y1="326.21" x2="749.25" y2="326.21"/>
	<polyline class="st53" points="750.4,328.79 750.4,329.08 749.82,329.08 	"/>
	<line class="st53" x1="892.64" y1="322.47" x2="893.5" y2="322.47"/>
	<line class="st53" x1="750.11" y1="322.47" x2="750.68" y2="322.47"/>
	<line class="st53" x1="894.08" y1="326.21" x2="894.94" y2="326.21"/>
	<polyline class="st53" points="893.5,329.08 892.93,329.08 892.93,328.79 	"/>
	<line class="st53" x1="750.11" y1="322.47" x2="557.29" y2="322.47"/>
	<line class="st53" x1="557.58" y1="326.21" x2="748.67" y2="326.21"/>
	<line class="st53" x1="912.18" y1="322.47" x2="893.5" y2="322.47"/>
	<path class="st53" d="M924.25,334.25l-0.29-2.3c-0.45-4.55-5.12-8.66-9.48-9.48h-2.3"/>
	<line class="st53" x1="925.11" y1="363.85" x2="924.25" y2="334.25"/>
	<line class="st53" x1="925.11" y1="477.07" x2="925.11" y2="363.85"/>
	<line class="st53" x1="544.36" y1="363.85" x2="544.36" y2="459.54"/>
	<line class="st53" x1="545.22" y1="334.25" x2="544.36" y2="363.85"/>
	<path class="st53" d="M557.29,322.47h-2.3c-4.36,0.82-9.03,4.94-9.48,9.48l-0.29,2.3"/>
	<line class="st53" x1="894.94" y1="326.21" x2="912.18" y2="326.21"/>
	<line class="st53" x1="921.38" y1="364.14" x2="921.38" y2="476.78"/>
	<line class="st53" x1="548.67" y1="459.54" x2="548.67" y2="364.14"/>
	<line class="st53" x1="545.22" y1="334.25" x2="549.53" y2="334.54"/>
	<path class="st53" d="M557.58,326.21l-1.72,0.29c-2.91,1.05-5.62,3.16-6.32,6.32v1.72"/>
	<line class="st53" x1="548.67" y1="364.14" x2="544.36" y2="363.85"/>
	<line class="st53" x1="925.11" y1="363.85" x2="921.38" y2="364.14"/>
	<path class="st53" d="M920.23,334.54v-1.72c-1.9-3.97-2.36-4.43-6.32-6.32l-1.72-0.29"/>
	<line class="st53" x1="920.23" y1="334.54" x2="924.25" y2="334.25"/>
	<line class="st53" x1="939.19" y1="240.29" x2="924.54" y2="206.38"/>
	<line class="st53" x1="511.6" y1="298.04" x2="511.6" y2="297.18"/>
	<line class="st53" x1="893.5" y1="329.08" x2="910.74" y2="329.08"/>
	<line class="st53" x1="679.71" y1="329.08" x2="749.82" y2="329.08"/>
	<line class="st53" x1="562.18" y1="329.08" x2="645.22" y2="329.08"/>
	<polyline class="st53" points="562.18,329.08 558.73,329.65 557.29,330.8 556.43,331.95 555.57,333.39 554.99,335.11 
		554.99,336.55 	"/>
	<line class="st53" x1="555.28" y1="362.13" x2="918.21" y2="362.13"/>
	<polyline class="st53" points="917.93,336.55 917.93,335.11 917.06,333.39 916.49,331.95 915.34,330.8 913.9,329.65 912.18,329.37 
		910.74,329.08 	"/>
	<line class="st53" x1="645.22" y1="329.08" x2="679.71" y2="329.08"/>
	<path class="st53" d="M511.6,298.04v-5.46c0.05-13.2,0.73-39.62,7.18-51.44l0.57-0.86"/>
	<path class="st53" d="M511.6,297.18v-5.17c0.09-13.23,0.7-38.68,6.9-50.58l0.86-1.15"/>
	<line class="st53" x1="507.58" y1="415.29" x2="507.58" y2="297.18"/>
	<line class="st53" x1="506.14" y1="297.18" x2="506.14" y2="415.29"/>
	<path class="st53" d="M513.9,242.58l-0.86,0.86c-6.49,13.04-5.69,34.19-6.9,48.56v5.17"/>
	<line class="st53" x1="515.62" y1="240.29" x2="553.27" y2="206.38"/>
	<path class="st53" d="M507.58,297.18v-5.17c0.83-13.52,0.73-38.43,7.18-50.58l0.86-1.15"/>
	<line class="st53" x1="513.9" y1="242.58" x2="515.62" y2="240.57"/>
	<polyline class="st53" points="892.06,326.49 891.2,325.63 890.34,325.34 	"/>
	<polyline class="st53" points="752.98,325.34 752.12,325.63 751.26,326.49 	"/>
	<line class="st53" x1="892.06" y1="326.49" x2="892.93" y2="328.79"/>
	<line class="st53" x1="752.98" y1="325.34" x2="890.34" y2="325.34"/>
	<line class="st53" x1="750.4" y1="328.79" x2="751.26" y2="326.49"/>
	<polyline class="st53" points="891.49,332.81 891.49,331.67 890.91,330.8 890.05,329.65 889.19,329.37 887.75,329.08 	"/>
	<polyline class="st53" points="887.75,360.4 888.9,360.4 889.77,359.83 890.63,358.68 891.2,358.1 891.49,356.67 	"/>
	<polyline class="st53" points="751.83,356.67 752.12,358.1 752.41,358.68 753.27,359.83 754.42,360.4 755.57,360.4 	"/>
	<polyline class="st53" points="751.83,332.81 751.83,331.67 752.12,330.8 752.98,329.65 755.28,329.08 	"/>
	<polyline class="st53" points="683.15,332.81 682.87,331.67 682.29,330.8 681.72,329.65 680.86,329.37 679.71,329.08 	"/>
	<polyline class="st53" points="679.99,360.4 681.43,360.4 682.29,359.83 683.15,358.68 683.73,358.1 683.73,356.67 	"/>
	<polyline class="st53" points="642.35,356.67 642.64,358.1 643.21,358.68 644.07,359.83 644.94,360.4 645.8,360.4 	"/>
	<polyline class="st53" points="645.22,329.08 644.07,329.37 643.21,329.65 642.64,330.8 642.06,331.67 641.78,332.81 	"/>
	<polyline class="st53" points="751.83,332.53 751.83,331.67 752.12,331.09 	"/>
	<line class="st53" x1="752.12" y1="358.39" x2="752.12" y2="356.95"/>
	<polyline class="st53" points="891.2,356.95 891.2,358.1 890.63,358.68 	"/>
	<polyline class="st53" points="890.92,330.8 891.49,331.67 891.49,332.53 	"/>
	<polyline class="st53" points="644.94,360.4 644.07,359.54 643.5,358.68 642.92,358.1 642.92,356.95 	"/>
	<polyline class="st53" points="642.35,332.53 642.64,331.67 642.92,330.8 643.5,329.65 644.07,329.37 	"/>
	<line class="st53" x1="891.49" y1="332.81" x2="891.49" y2="356.67"/>
	<line class="st53" x1="887.75" y1="360.4" x2="755.57" y2="360.4"/>
	<line class="st53" x1="751.83" y1="356.67" x2="751.83" y2="332.81"/>
	<line class="st53" x1="755.28" y1="329.08" x2="887.75" y2="329.08"/>
	<line class="st53" x1="683.15" y1="332.81" x2="683.73" y2="356.67"/>
	<line class="st53" x1="679.99" y1="360.4" x2="645.8" y2="360.4"/>
	<line class="st53" x1="642.35" y1="356.67" x2="641.78" y2="332.81"/>
	<line class="st53" x1="751.83" y1="332.53" x2="752.12" y2="356.95"/>
	<line class="st53" x1="891.2" y1="356.95" x2="891.49" y2="332.53"/>
	<line class="st53" x1="642.35" y1="332.53" x2="642.92" y2="356.95"/>
	<line class="st53" x1="554.99" y1="336.55" x2="555.28" y2="362.13"/>
	<line class="st53" x1="918.21" y1="362.13" x2="917.93" y2="336.55"/>
	<line class="st53" x1="918.21" y1="366.15" x2="921.38" y2="364.14"/>
	<polyline class="st53" points="554.99,366.15 548.67,364.14 549.53,334.54 	"/>
	<line class="st53" x1="920.23" y1="334.54" x2="921.38" y2="364.14"/>
	<polyline class="st53" points="917.93,336.55 919.36,335.69 920.23,334.54 	"/>
	<line class="st53" x1="918.21" y1="366.15" x2="918.21" y2="362.13"/>
	<line class="st53" x1="555.28" y1="362.13" x2="554.99" y2="366.15"/>
	<polyline class="st53" points="549.53,334.54 552.41,335.69 554.99,336.55 	"/>
	<path class="st53" d="M944.94,240.29v1.72l0.86,2.59c0.51,7.75,1.04,15.48,1.15,23.28l0.29,6.9l0.29,7.18
		c0.78,14.42,0.56,28.41,0.57,42.82v19.25"/>
	<line class="st53" x1="929.42" y1="206.38" x2="944.94" y2="240.29"/>
	<path class="st53" d="M868.79,302.64l0.86-1.72c8.6-13.77,26.41,3.57,12.93,12.93l-2.01,0.57"/>
	<path class="st53" d="M592.06,314.71l-2.01-0.57c-10.97-3.35-6.55-19.87,4.6-18.1l2.01,0.57"/>
	<polyline class="st53" points="917.93,376.49 917.93,366.15 556.14,366.15 556.14,371.61 	"/>
	<line class="st53" x1="917.93" y1="366.15" x2="921.38" y2="364.14"/>
	<line class="st53" x1="556.14" y1="366.15" x2="548.67" y2="364.14"/>
	<line class="st53" x1="918.21" y1="366.15" x2="554.99" y2="366.15"/>
	<line class="st53" x1="962.75" y1="206.38" x2="928.56" y2="206.38"/>
	<line class="st53" x1="924.54" y1="206.38" x2="553.27" y2="206.38"/>
	<line class="st53" x1="924.82" y1="206.66" x2="929.42" y2="206.66"/>
	<path class="st53" d="M868.79,302.64l-0.29,1.15c-0.85,6.3,4.99,11.92,11.21,10.92l0.86-0.29"/>
	<path class="st53" d="M591.49,314.71h1.44l1.44-0.29c2.99-0.49,5.25-3.05,6.9-5.46l0.29-1.15l0.29-1.44
		c-0.24-4.31,0.19-4.79-2.87-8.05l-1.15-1.44l-1.44-0.57"/>
	<line class="st53" x1="816.49" y1="356.09" x2="817.35" y2="356.09"/>
	<polyline class="st53" points="817.35,353.5 816.78,353.5 816.78,352.93 817.35,352.93 	"/>
	<polyline class="st53" points="843.79,352.93 844.08,352.93 844.08,353.22 843.79,353.5 	"/>
	<line class="st53" x1="843.79" y1="356.09" x2="844.65" y2="356.09"/>
	<line class="st53" x1="851.83" y1="356.09" x2="852.41" y2="356.09"/>
	<line class="st53" x1="881.43" y1="356.09" x2="882.29" y2="356.09"/>
	<line class="st53" x1="852.41" y1="356.09" x2="851.83" y2="347.76"/>
	<line class="st53" x1="881.43" y1="331.95" x2="881.72" y2="332.81"/>
	<polyline class="st53" points="881.43,356.95 881.72,332.81 852.7,332.81 	"/>
	<line class="st53" x1="852.41" y1="356.95" x2="852.7" y2="332.81"/>
	<line class="st53" x1="881.43" y1="356.95" x2="852.41" y2="356.95"/>
	<line class="st53" x1="852.7" y1="332.81" x2="852.7" y2="331.95"/>
	<line class="st53" x1="851.83" y1="347.76" x2="851.83" y2="332.24"/>
	<line class="st53" x1="852.41" y1="356.95" x2="852.41" y2="356.09"/>
	<path class="st53" d="M674.82,348.04l0.57-2.01c2.15-12.72-14.39-19.04-21.26-8.62l-0.86,1.44"/>
	<path class="st53" d="M675.4,345.17l-0.57-1.72l-0.29-2.3c-4.58-9.95-17.94-10.47-22.13,0l-0.57,2.3l-0.29,1.72
		c1.05,11.67,15.77,15.98,22.13,5.75l0.86-1.72l0.29-2.01L675.4,345.17z"/>
	<line class="st53" x1="652.69" y1="340.29" x2="653.27" y2="338.85"/>
	<line class="st53" x1="674.53" y1="349.19" x2="674.82" y2="348.04"/>
	<line class="st53" x1="843.79" y1="341.44" x2="843.79" y2="342.87"/>
	<polyline class="st53" points="843.79,356.95 843.79,342.87 817.35,342.87 	"/>
	<line class="st53" x1="817.35" y1="356.95" x2="817.35" y2="342.87"/>
	<line class="st53" x1="843.79" y1="356.95" x2="817.35" y2="356.95"/>
	<line class="st53" x1="817.35" y1="342.87" x2="817.35" y2="341.44"/>
	<polyline class="st53" points="794.65,349.19 793.5,351.49 791.78,352.64 790.34,352.93 	"/>
	<polyline class="st53" points="791.49,338.56 792.64,338.56 793.79,338.85 794.65,340 795.22,340.86 795.51,342.01 795.51,343.45 	
		"/>
	<polyline class="st53" points="767.06,343.45 767.06,342.01 767.35,340.86 767.64,340 768.5,338.85 769.94,338.56 770.8,338.56 	
		"/>
	<polyline class="st53" points="772.24,352.93 770.8,352.64 769.94,352.07 769.36,351.49 768.5,350.34 767.93,349.19 	"/>
	<polyline class="st53" points="791.78,336.26 792.64,336.55 793.79,336.55 794.65,337.7 795.22,338.56 795.51,339.71 795.8,340.86 
			"/>
	<polyline class="st53" points="767.35,339.71 767.64,338.56 768.21,337.7 769.36,336.84 770.22,336.55 771.66,336.26 	"/>
	<line class="st53" x1="795.8" y1="340.86" x2="795.51" y2="343.16"/>
	<line class="st53" x1="767.35" y1="339.71" x2="767.06" y2="342.01"/>
	<line class="st53" x1="795.51" y1="343.45" x2="794.65" y2="349.19"/>
	<line class="st53" x1="770.8" y1="338.56" x2="791.49" y2="338.56"/>
	<line class="st53" x1="767.93" y1="349.19" x2="767.06" y2="343.45"/>
	<line class="st53" x1="790.34" y1="352.93" x2="772.24" y2="352.93"/>
	<line class="st53" x1="771.66" y1="336.26" x2="791.78" y2="336.26"/>
	<polyline class="st53" points="557.29,368.45 916.78,368.45 919.08,382.81 	"/>
	<line class="st53" x1="550.97" y1="382.81" x2="557.29" y2="368.45"/>
	<line class="st53" x1="556.43" y1="382.81" x2="550.97" y2="382.81"/>
	<line class="st53" x1="562.46" y1="371.03" x2="556.43" y2="382.81"/>
	<polyline class="st53" points="564.48,370.46 563.9,370.46 563.33,370.75 562.75,370.75 562.46,371.03 	"/>
	<line class="st53" x1="568.5" y1="370.46" x2="564.48" y2="370.46"/>
	<polyline class="st53" points="569.94,371.03 569.65,370.75 569.07,370.46 568.5,370.46 	"/>
	<line class="st53" x1="565.63" y1="382.81" x2="569.94" y2="371.03"/>
	<line class="st53" x1="569.65" y1="382.81" x2="565.63" y2="382.81"/>
	<line class="st53" x1="575.4" y1="371.03" x2="569.65" y2="382.81"/>
	<polyline class="st53" points="577.12,370.46 576.54,370.46 575.97,370.75 575.68,370.75 575.4,371.03 	"/>
	<line class="st53" x1="580.86" y1="370.46" x2="577.12" y2="370.46"/>
	<polyline class="st53" points="582.58,371.03 582.58,370.75 582,370.75 581.72,370.46 580.85,370.46 	"/>
	<line class="st53" x1="578.56" y1="382.81" x2="582.58" y2="371.03"/>
	<line class="st53" x1="582.29" y1="382.81" x2="578.56" y2="382.81"/>
	<line class="st53" x1="587.75" y1="371.03" x2="582.29" y2="382.81"/>
	<polyline class="st53" points="589.76,370.46 589.19,370.46 588.61,370.75 588.04,370.75 587.75,371.03 	"/>
	<line class="st53" x1="593.5" y1="370.46" x2="589.76" y2="370.46"/>
	<polyline class="st53" points="594.94,371.03 594.94,370.75 594.65,370.75 594.36,370.46 593.5,370.46 	"/>
	<line class="st53" x1="591.2" y1="382.81" x2="594.94" y2="371.03"/>
	<line class="st53" x1="595.22" y1="382.81" x2="591.2" y2="382.81"/>
	<line class="st53" x1="600.4" y1="371.03" x2="595.22" y2="382.81"/>
	<polyline class="st53" points="602.41,370.46 601.54,370.46 601.26,370.75 600.68,370.75 600.4,371.03 	"/>
	<line class="st53" x1="606.14" y1="370.46" x2="602.41" y2="370.46"/>
	<polyline class="st53" points="607.58,371.03 607.58,370.75 607.29,370.75 607,370.46 606.14,370.46 	"/>
	<line class="st53" x1="604.13" y1="382.81" x2="607.58" y2="371.03"/>
	<line class="st53" x1="608.15" y1="382.81" x2="604.13" y2="382.81"/>
	<line class="st53" x1="613.04" y1="371.03" x2="608.15" y2="382.81"/>
	<polyline class="st53" points="615.34,370.46 614.48,370.46 613.9,370.75 613.33,370.75 613.04,371.03 	"/>
	<line class="st53" x1="618.5" y1="370.46" x2="615.34" y2="370.46"/>
	<polyline class="st53" points="620.22,371.03 620.22,370.75 619.94,370.75 619.36,370.46 618.5,370.46 	"/>
	<line class="st53" x1="617.35" y1="382.81" x2="620.22" y2="371.03"/>
	<line class="st53" x1="621.09" y1="382.81" x2="617.35" y2="382.81"/>
	<line class="st53" x1="625.68" y1="371.03" x2="621.09" y2="382.81"/>
	<polyline class="st53" points="627.7,370.46 627.12,370.46 626.26,370.75 625.68,370.75 625.68,371.03 	"/>
	<line class="st53" x1="631.43" y1="370.46" x2="627.7" y2="370.46"/>
	<polyline class="st53" points="633.16,371.03 632.87,370.75 632.58,370.75 632.01,370.46 631.43,370.46 	"/>
	<line class="st53" x1="629.99" y1="382.81" x2="633.16" y2="371.03"/>
	<line class="st53" x1="633.73" y1="382.81" x2="629.99" y2="382.81"/>
	<line class="st53" x1="638.33" y1="371.03" x2="633.73" y2="382.81"/>
	<polyline class="st53" points="640.05,370.46 639.48,370.46 638.9,370.75 638.61,370.75 638.33,371.03 	"/>
	<line class="st53" x1="644.07" y1="370.46" x2="640.05" y2="370.46"/>
	<polyline class="st53" points="645.51,371.03 645.51,370.75 645.22,370.75 644.65,370.46 644.07,370.46 	"/>
	<line class="st53" x1="642.93" y1="382.81" x2="645.51" y2="371.03"/>
	<line class="st53" x1="646.66" y1="382.81" x2="642.92" y2="382.81"/>
	<line class="st53" x1="650.97" y1="371.03" x2="646.66" y2="382.81"/>
	<polyline class="st53" points="652.7,370.46 652.41,370.46 651.55,370.75 651.26,370.75 650.97,371.03 	"/>
	<line class="st53" x1="656.72" y1="370.46" x2="652.7" y2="370.46"/>
	<polyline class="st53" points="658.15,371.03 658.15,370.75 657.87,370.75 657.29,370.46 656.72,370.46 	"/>
	<line class="st53" x1="655.86" y1="382.81" x2="658.15" y2="371.03"/>
	<line class="st53" x1="659.59" y1="382.81" x2="655.86" y2="382.81"/>
	<line class="st53" x1="663.61" y1="371.03" x2="659.59" y2="382.81"/>
	<polyline class="st53" points="665.34,370.46 665.05,370.46 664.19,370.75 663.9,370.75 663.61,371.03 	"/>
	<line class="st53" x1="669.07" y1="370.46" x2="665.34" y2="370.46"/>
	<polyline class="st53" points="670.8,371.03 670.8,370.75 670.22,370.75 669.94,370.46 669.07,370.46 	"/>
	<line class="st53" x1="668.79" y1="382.81" x2="670.8" y2="371.03"/>
	<line class="st53" x1="672.24" y1="382.81" x2="668.79" y2="382.81"/>
	<line class="st53" x1="675.97" y1="371.03" x2="672.24" y2="382.81"/>
	<polyline class="st53" points="678.27,370.46 677.69,370.46 676.83,370.75 676.55,370.75 675.97,371.03 	"/>
	<line class="st53" x1="681.72" y1="370.46" x2="678.27" y2="370.46"/>
	<polyline class="st53" points="683.73,371.03 683.44,370.75 683.15,370.75 682.29,370.46 681.72,370.46 	"/>
	<line class="st53" x1="681.43" y1="382.81" x2="683.73" y2="371.03"/>
	<line class="st53" x1="685.45" y1="382.81" x2="681.43" y2="382.81"/>
	<line class="st53" x1="688.9" y1="371.03" x2="685.45" y2="382.81"/>
	<polyline class="st53" points="690.91,370.46 690.05,370.46 689.48,370.75 688.9,370.75 688.9,371.03 	"/>
	<line class="st53" x1="694.36" y1="370.46" x2="690.91" y2="370.46"/>
	<polyline class="st53" points="696.09,371.03 696.09,370.75 695.51,370.75 695.22,370.46 694.36,370.46 	"/>
	<line class="st53" x1="694.36" y1="382.81" x2="696.09" y2="371.03"/>
	<line class="st53" x1="698.1" y1="382.81" x2="694.36" y2="382.81"/>
	<line class="st53" x1="701.55" y1="371.03" x2="698.1" y2="382.81"/>
	<polyline class="st53" points="703.27,370.46 702.41,370.46 702.12,370.75 701.55,370.75 701.55,371.03 	"/>
	<line class="st53" x1="707.01" y1="370.46" x2="703.27" y2="370.46"/>
	<polyline class="st53" points="709.02,371.03 708.73,370.75 708.16,370.75 707.87,370.46 707.01,370.46 	"/>
	<line class="st53" x1="707.29" y1="382.81" x2="709.02" y2="371.03"/>
	<line class="st53" x1="711.32" y1="382.81" x2="707.29" y2="382.81"/>
	<line class="st53" x1="713.9" y1="371.03" x2="711.32" y2="382.81"/>
	<polyline class="st53" points="716.2,370.46 715.34,370.46 714.76,370.75 714.19,370.75 713.9,371.03 	"/>
	<line class="st53" x1="719.65" y1="370.46" x2="716.2" y2="370.46"/>
	<polyline class="st53" points="721.37,371.03 721.09,370.75 720.22,370.46 719.65,370.46 	"/>
	<line class="st53" x1="720.22" y1="382.81" x2="721.37" y2="371.03"/>
	<line class="st53" x1="723.96" y1="382.81" x2="720.22" y2="382.81"/>
	<line class="st53" x1="726.55" y1="371.03" x2="723.96" y2="382.81"/>
	<polyline class="st53" points="728.56,370.46 727.98,370.46 727.41,370.75 726.83,370.75 726.55,371.03 	"/>
	<line class="st53" x1="732.29" y1="370.46" x2="728.56" y2="370.46"/>
	<polyline class="st53" points="733.73,371.03 733.73,370.75 733.44,370.75 732.87,370.46 732.29,370.46 	"/>
	<line class="st53" x1="733.44" y1="382.81" x2="733.73" y2="371.03"/>
	<line class="st53" x1="736.89" y1="382.81" x2="733.44" y2="382.81"/>
	<line class="st53" x1="739.19" y1="371.03" x2="736.89" y2="382.81"/>
	<polyline class="st53" points="740.91,370.46 740.63,370.46 739.76,370.75 739.48,370.75 739.19,371.03 	"/>
	<line class="st53" x1="744.94" y1="370.46" x2="740.91" y2="370.46"/>
	<polyline class="st53" points="746.66,371.03 746.37,370.75 746.09,370.75 745.51,370.46 744.94,370.46 	"/>
	<line class="st53" x1="746.09" y1="382.81" x2="746.66" y2="371.03"/>
	<line class="st53" x1="749.82" y1="382.81" x2="746.09" y2="382.81"/>
	<line class="st53" x1="752.12" y1="371.03" x2="749.82" y2="382.81"/>
	<polyline class="st53" points="753.85,370.46 752.98,370.46 752.41,370.75 752.12,370.75 752.12,371.03 	"/>
	<line class="st53" x1="757.58" y1="370.46" x2="753.85" y2="370.46"/>
	<polyline class="st53" points="759.3,371.03 759.3,370.75 758.73,370.75 758.16,370.46 757.58,370.46 	"/>
	<line class="st53" x1="759.02" y1="382.81" x2="759.3" y2="371.03"/>
	<line class="st53" x1="762.75" y1="382.81" x2="759.02" y2="382.81"/>
	<line class="st53" x1="764.48" y1="371.03" x2="762.75" y2="382.81"/>
	<polyline class="st53" points="766.2,370.46 765.63,370.46 765.34,370.75 764.76,370.75 764.48,371.03 	"/>
	<line class="st53" x1="769.94" y1="370.46" x2="766.2" y2="370.46"/>
	<polyline class="st53" points="771.95,371.03 771.66,370.75 770.8,370.46 769.94,370.46 	"/>
	<line class="st53" x1="771.66" y1="382.81" x2="771.95" y2="371.03"/>
	<line class="st53" x1="775.4" y1="382.81" x2="771.66" y2="382.81"/>
	<line class="st53" x1="777.41" y1="371.03" x2="775.4" y2="382.81"/>
	<polyline class="st53" points="779.13,370.46 778.56,370.46 777.7,370.75 777.41,370.75 777.41,371.03 	"/>
	<line class="st53" x1="782.58" y1="370.46" x2="779.13" y2="370.46"/>
	<polyline class="st53" points="784.59,371.03 784.59,370.75 784.02,370.75 783.44,370.46 782.58,370.46 	"/>
	<line class="st53" x1="784.88" y1="382.81" x2="784.59" y2="371.03"/>
	<line class="st53" x1="788.33" y1="382.81" x2="784.88" y2="382.81"/>
	<line class="st53" x1="789.76" y1="371.03" x2="788.33" y2="382.81"/>
	<polyline class="st53" points="791.78,370.46 790.91,370.46 790.34,370.75 790.05,370.75 789.76,371.03 	"/>
	<line class="st53" x1="795.22" y1="370.46" x2="791.78" y2="370.46"/>
	<polyline class="st53" points="797.24,371.03 797.24,370.75 796.37,370.75 796.09,370.46 795.22,370.46 	"/>
	<line class="st53" x1="797.52" y1="382.81" x2="797.24" y2="371.03"/>
	<line class="st53" x1="801.26" y1="382.81" x2="797.52" y2="382.81"/>
	<line class="st53" x1="802.41" y1="371.03" x2="801.26" y2="382.81"/>
	<polyline class="st53" points="804.13,370.46 803.56,370.46 802.98,370.75 802.41,370.75 802.41,371.03 	"/>
	<line class="st53" x1="807.87" y1="370.46" x2="804.13" y2="370.46"/>
	<polyline class="st53" points="809.88,371.03 808.73,370.46 807.87,370.46 	"/>
	<line class="st53" x1="810.45" y1="382.81" x2="809.88" y2="371.03"/>
	<line class="st53" x1="814.19" y1="382.81" x2="810.45" y2="382.81"/>
	<line class="st53" x1="815.05" y1="371.03" x2="814.19" y2="382.81"/>
	<polyline class="st53" points="816.78,370.46 816.2,370.46 815.63,370.75 815.34,370.75 815.05,371.03 	"/>
	<line class="st53" x1="820.51" y1="370.46" x2="816.78" y2="370.46"/>
	<polyline class="st53" points="822.52,371.03 822.24,370.75 821.66,370.75 821.37,370.46 820.51,370.46 	"/>
	<line class="st53" x1="823.1" y1="382.81" x2="822.52" y2="371.03"/>
	<line class="st53" x1="827.12" y1="382.81" x2="823.1" y2="382.81"/>
	<line class="st53" x1="827.7" y1="371.03" x2="827.12" y2="382.81"/>
	<polyline class="st53" points="829.42,370.46 828.85,370.46 828.27,370.75 827.7,370.75 827.7,371.03 	"/>
	<line class="st53" x1="833.16" y1="370.46" x2="829.42" y2="370.46"/>
	<polyline class="st53" points="834.88,371.03 834.59,370.75 833.73,370.46 833.16,370.46 	"/>
	<line class="st53" x1="836.03" y1="382.81" x2="834.88" y2="371.03"/>
	<line class="st53" x1="840.05" y1="382.81" x2="836.03" y2="382.81"/>
	<line class="st53" x1="840.34" y1="371.03" x2="840.05" y2="382.81"/>
	<polyline class="st53" points="842.35,370.46 841.49,370.46 840.91,370.75 840.63,370.75 840.34,371.03 	"/>
	<line class="st53" x1="846.09" y1="370.46" x2="842.35" y2="370.46"/>
	<polyline class="st53" points="847.52,371.03 847.52,370.75 847.24,370.75 846.37,370.46 846.09,370.46 	"/>
	<line class="st53" x1="848.67" y1="382.81" x2="847.52" y2="371.03"/>
	<line class="st53" x1="852.98" y1="382.81" x2="848.67" y2="382.81"/>
	<line class="st53" x1="852.98" y1="371.03" x2="852.98" y2="382.81"/>
	<polyline class="st53" points="854.71,370.46 854.13,370.46 853.56,370.75 853.27,370.75 852.98,371.03 	"/>
	<line class="st53" x1="858.44" y1="370.46" x2="854.71" y2="370.46"/>
	<polyline class="st53" points="860.17,371.03 860.17,370.75 859.59,370.75 859.02,370.46 858.44,370.46 	"/>
	<line class="st53" x1="861.89" y1="382.81" x2="860.17" y2="371.03"/>
	<line class="st53" x1="865.63" y1="382.81" x2="861.89" y2="382.81"/>
	<line class="st53" x1="865.63" y1="371.03" x2="865.63" y2="382.81"/>
	<polyline class="st53" points="867.35,370.46 866.78,370.46 865.91,370.75 865.63,370.75 865.63,371.03 	"/>
	<line class="st53" x1="870.8" y1="370.46" x2="867.35" y2="370.46"/>
	<polyline class="st53" points="872.81,371.03 872.81,370.75 872.52,370.75 871.66,370.46 870.8,370.46 	"/>
	<line class="st53" x1="875.11" y1="382.81" x2="872.81" y2="371.03"/>
	<line class="st53" x1="878.56" y1="382.81" x2="875.11" y2="382.81"/>
	<line class="st53" x1="878.27" y1="371.03" x2="878.56" y2="382.81"/>
	<polyline class="st53" points="879.99,370.46 879.42,370.46 878.56,370.75 878.27,370.75 878.27,371.03 	"/>
	<line class="st53" x1="883.73" y1="370.46" x2="879.99" y2="370.46"/>
	<polyline class="st53" points="885.45,371.03 885.17,370.75 884.88,370.75 884.3,370.46 883.73,370.46 	"/>
	<line class="st53" x1="887.75" y1="382.81" x2="885.45" y2="371.03"/>
	<line class="st53" x1="891.49" y1="382.81" x2="887.75" y2="382.81"/>
	<line class="st53" x1="890.91" y1="371.03" x2="891.49" y2="382.81"/>
	<polyline class="st53" points="892.64,370.46 891.78,370.46 891.49,370.75 890.91,370.75 890.91,371.03 	"/>
	<line class="st53" x1="896.09" y1="370.46" x2="892.64" y2="370.46"/>
	<polyline class="st53" points="898.1,371.03 897.81,370.75 897.52,370.75 896.95,370.46 896.09,370.46 	"/>
	<line class="st53" x1="900.68" y1="382.81" x2="898.1" y2="371.03"/>
	<line class="st53" x1="904.42" y1="382.81" x2="900.68" y2="382.81"/>
	<line class="st53" x1="903.27" y1="371.03" x2="904.42" y2="382.81"/>
	<polyline class="st53" points="905.28,370.46 904.42,370.46 903.27,371.03 	"/>
	<line class="st53" x1="909.02" y1="370.46" x2="905.28" y2="370.46"/>
	<polyline class="st53" points="910.74,371.03 910.74,370.75 910.17,370.75 909.59,370.46 909.02,370.46 	"/>
	<line class="st53" x1="913.33" y1="382.81" x2="910.74" y2="371.03"/>
	<line class="st53" x1="919.08" y1="382.81" x2="913.33" y2="382.81"/>
	<line class="st53" x1="919.08" y1="382.81" x2="919.08" y2="477.07"/>
	<line class="st53" x1="550.97" y1="382.81" x2="550.97" y2="465.57"/>
	<line class="st53" x1="698.1" y1="528.22" x2="698.1" y2="382.81"/>
	<line class="st53" x1="694.36" y1="382.81" x2="694.36" y2="528.22"/>
	<line class="st53" x1="685.45" y1="524.77" x2="685.45" y2="382.81"/>
	<line class="st53" x1="681.43" y1="382.81" x2="681.43" y2="524.48"/>
	<line class="st53" x1="672.23" y1="489.42" x2="672.23" y2="382.81"/>
	<line class="st53" x1="668.79" y1="382.81" x2="668.79" y2="487.99"/>
	<line class="st53" x1="659.59" y1="489.42" x2="659.59" y2="382.81"/>
	<line class="st53" x1="655.86" y1="382.81" x2="655.86" y2="494.02"/>
	<line class="st53" x1="646.66" y1="512.7" x2="646.66" y2="382.81"/>
	<line class="st53" x1="642.92" y1="382.81" x2="642.92" y2="512.7"/>
	<line class="st53" x1="633.73" y1="509.25" x2="633.73" y2="382.81"/>
	<line class="st53" x1="629.99" y1="382.81" x2="629.99" y2="509.25"/>
	<line class="st53" x1="621.08" y1="503.22" x2="621.08" y2="382.81"/>
	<line class="st53" x1="617.35" y1="382.81" x2="617.35" y2="503.22"/>
	<line class="st53" x1="608.15" y1="433.68" x2="608.15" y2="382.81"/>
	<line class="st53" x1="604.13" y1="382.81" x2="604.13" y2="433.39"/>
	<line class="st53" x1="595.22" y1="491.72" x2="595.22" y2="382.81"/>
	<line class="st53" x1="591.2" y1="382.81" x2="591.2" y2="491.72"/>
	<line class="st53" x1="582.29" y1="484.83" x2="582.29" y2="382.81"/>
	<line class="st53" x1="578.56" y1="382.81" x2="578.56" y2="484.83"/>
	<line class="st53" x1="569.65" y1="410.4" x2="569.65" y2="382.81"/>
	<line class="st53" x1="565.62" y1="382.81" x2="565.62" y2="409.54"/>
	<line class="st53" x1="556.43" y1="414.42" x2="556.43" y2="382.81"/>
	<line class="st53" x1="556.43" y1="469.88" x2="556.43" y2="422.18"/>
	<line class="st53" x1="900.68" y1="382.81" x2="900.68" y2="410.4"/>
	<line class="st53" x1="891.49" y1="496.9" x2="891.49" y2="382.81"/>
	<line class="st53" x1="887.75" y1="382.81" x2="887.75" y2="496.9"/>
	<line class="st53" x1="720.22" y1="524.48" x2="720.22" y2="527.36"/>
	<line class="st53" x1="720.22" y1="382.81" x2="720.22" y2="510.4"/>
	<line class="st53" x1="836.03" y1="382.81" x2="836.03" y2="433.39"/>
	<line class="st53" x1="604.13" y1="447.47" x2="604.13" y2="498.33"/>
	<line class="st53" x1="608.15" y1="498.62" x2="608.15" y2="447.47"/>
	<line class="st53" x1="840.05" y1="434.54" x2="840.05" y2="382.81"/>
	<line class="st53" x1="836.03" y1="447.18" x2="836.03" y2="515.57"/>
	<line class="st53" x1="565.62" y1="427.07" x2="565.62" y2="477.07"/>
	<line class="st53" x1="569.65" y1="477.64" x2="569.65" y2="426.78"/>
	<line class="st53" x1="900.68" y1="426.78" x2="900.68" y2="488.28"/>
	<line class="st53" x1="723.96" y1="511.55" x2="723.96" y2="382.81"/>
	<line class="st53" x1="840.05" y1="516.15" x2="840.05" y2="446.61"/>
	<line class="st53" x1="707.29" y1="382.81" x2="707.29" y2="529.94"/>
	<line class="st53" x1="711.32" y1="529.94" x2="711.32" y2="382.81"/>
	<line class="st53" x1="723.96" y1="527.36" x2="723.96" y2="524.48"/>
	<line class="st53" x1="733.44" y1="382.81" x2="733.44" y2="529.94"/>
	<line class="st53" x1="736.89" y1="529.94" x2="736.89" y2="382.81"/>
	<line class="st53" x1="746.09" y1="382.81" x2="746.09" y2="529.08"/>
	<line class="st53" x1="749.82" y1="529.08" x2="749.82" y2="382.81"/>
	<line class="st53" x1="759.02" y1="382.81" x2="759.02" y2="529.08"/>
	<line class="st53" x1="762.75" y1="529.08" x2="762.75" y2="382.81"/>
	<line class="st53" x1="771.66" y1="382.81" x2="771.66" y2="527.36"/>
	<line class="st53" x1="775.4" y1="527.36" x2="775.4" y2="382.81"/>
	<line class="st53" x1="784.88" y1="382.81" x2="784.88" y2="529.08"/>
	<line class="st53" x1="788.33" y1="529.08" x2="788.33" y2="382.81"/>
	<line class="st53" x1="797.52" y1="382.81" x2="797.52" y2="524.77"/>
	<line class="st53" x1="801.26" y1="524.77" x2="801.26" y2="382.81"/>
	<line class="st53" x1="810.45" y1="382.81" x2="810.45" y2="523.05"/>
	<line class="st53" x1="814.19" y1="523.05" x2="814.19" y2="382.81"/>
	<line class="st53" x1="823.1" y1="382.81" x2="823.1" y2="522.18"/>
	<line class="st53" x1="827.12" y1="522.18" x2="827.12" y2="382.81"/>
	<line class="st53" x1="848.67" y1="382.81" x2="848.67" y2="513.56"/>
	<line class="st53" x1="852.98" y1="513.56" x2="852.98" y2="382.81"/>
	<line class="st53" x1="861.89" y1="382.81" x2="861.89" y2="503.22"/>
	<line class="st53" x1="865.63" y1="503.22" x2="865.63" y2="382.81"/>
	<line class="st53" x1="875.11" y1="382.81" x2="875.11" y2="503.22"/>
	<line class="st53" x1="878.56" y1="503.22" x2="878.56" y2="382.81"/>
	<polyline class="st53" points="615.34,435.98 615.91,436.84 617.06,439.14 617.35,440.29 	"/>
	<polyline class="st53" points="617.35,441.44 617.06,442.59 615.34,446.03 	"/>
	<polyline class="st53" points="613.04,434.54 613.9,434.54 615.34,435.98 	"/>
	<polyline class="st53" points="608.16,433.68 609.3,433.68 610.74,433.96 613.04,434.54 	"/>
	<polyline class="st53" points="604.13,433.39 607.01,433.39 608.16,433.68 	"/>
	<polyline class="st53" points="607.58,433.96 607.01,433.68 605.28,433.68 604.13,433.39 	"/>
	<polyline class="st53" points="606.14,434.54 607.01,434.54 607.58,433.96 	"/>
	<polyline class="st53" points="606.14,446.9 604.99,446.03 603.84,444.6 602.98,443.16 602.98,438.27 603.84,437.13 604.99,435.98 
		606.14,434.54 	"/>
	<path class="st53" d="M718.79,510.4l-0.86,0.86c-5.2,5.49-0.51,14.37,7.76,11.78l1.15-0.86"/>
	<polyline class="st53" points="720.22,525.34 720.51,525.06 720.8,524.48 721.09,524.2 721.37,523.91 	"/>
	<polyline class="st53" points="723.96,524.48 722.81,525.06 721.66,525.34 720.22,525.34 	"/>
	<polyline class="st53" points="726.55,522.18 725.97,523.05 725.4,523.33 724.54,523.91 723.96,524.48 	"/>
	<polyline class="st53" points="728.56,520.75 727.98,521.03 727.41,521.9 727.12,522.18 726.55,522.18 	"/>
	<polyline class="st53" points="728.56,512.7 729.13,513.85 729.71,515.29 729.71,518.16 729.13,519.31 728.56,520.75 	"/>
	<polyline class="st53" points="726.55,510.69 726.83,510.69 727.98,511.84 728.56,512.7 	"/>
	<polyline class="st53" points="723.96,511.55 724.54,511.26 725.4,510.98 725.97,510.69 726.55,510.69 	"/>
	<polyline class="st53" points="720.22,510.4 721.66,510.4 723.96,511.55 	"/>
	<line class="st53" x1="719.65" y1="510.11" x2="720.22" y2="509.83"/>
	<polyline class="st53" points="716.2,513.85 716.49,512.7 717.35,511.55 718.79,510.4 719.65,510.11 	"/>
	<polyline class="st53" points="716.2,519.31 715.63,518.16 715.34,516.44 715.63,515.29 716.2,513.85 	"/>
	<polyline class="st53" points="719.65,523.05 718.79,522.18 717.35,521.61 716.49,520.75 716.2,519.31 	"/>
	<polyline class="st53" points="721.37,523.91 721.09,523.91 721.09,523.33 720.22,523.05 719.65,523.05 	"/>
	<path class="st53" d="M837.18,447.76l1.72-0.86c9.53-6.14-1.83-18.38-8.91-10.92l-1.15,1.15"/>
	<polyline class="st53" points="836.03,447.76 835.46,447.76 834.88,448.05 	"/>
	<polyline class="st53" points="840.05,446.61 837.75,447.76 836.03,447.76 	"/>
	<polyline class="st53" points="840.34,445.75 840.34,446.03 840.05,446.32 840.05,446.61 	"/>
	<polyline class="st53" points="842.35,443.16 841.2,444.88 840.92,445.46 840.63,445.46 840.34,445.75 	"/>
	<line class="st53" x1="842.35" y1="438.85" x2="842.35" y2="443.16"/>
	<polyline class="st53" points="840.34,435.69 840.34,435.98 840.63,435.98 840.92,436.26 841.2,436.84 841.78,437.7 842.35,438.85 
			"/>
	<polyline class="st53" points="840.05,434.54 840.05,435.4 840.34,435.69 	"/>
	<polyline class="st53" points="836.03,433.39 837.75,433.68 838.9,433.96 840.05,434.54 	"/>
	<polyline class="st53" points="834.88,433.68 835.46,433.68 836.03,433.39 	"/>
	<polyline class="st53" points="833.16,433.96 833.73,433.68 834.88,433.68 	"/>
	<polyline class="st53" points="829.42,436.55 830.57,435.4 831.72,434.54 833.16,433.96 	"/>
	<polyline class="st53" points="829.42,445.17 828.85,444.31 828.27,443.16 827.98,442.01 827.98,439.42 828.27,438.56 
		828.85,437.41 829.42,436.55 	"/>
	<polyline class="st53" points="833.16,447.76 831.72,447.18 830.57,446.32 829.42,445.17 	"/>
	<polyline class="st53" points="834.88,448.05 834.59,448.05 834.59,447.76 833.16,447.76 	"/>
	<polyline class="st53" points="613.04,447.18 611.89,447.18 610.74,447.47 608.15,447.47 	"/>
	<polyline class="st53" points="615.34,446.03 614.48,446.61 613.33,447.18 613.04,447.18 	"/>
	<polyline class="st53" points="607.58,447.76 607.29,447.47 607.01,447.47 606.43,447.18 606.14,446.9 	"/>
	<line class="st53" x1="604.13" y1="447.76" x2="607.01" y2="447.76"/>
	<polyline class="st53" points="608.16,447.47 607.01,447.76 604.13,447.76 	"/>
	<polyline class="st53" points="608.73,433.68 607.58,434.25 606.14,434.83 603.84,437.13 603.56,438.56 602.98,440.29 
		603.56,442.01 603.56,443.16 604.13,444.6 605.28,445.75 606.14,446.9 607.58,447.76 	"/>
	<polyline class="st53" points="577.12,413.56 577.98,414.71 578.56,415.86 	"/>
	<polyline class="st53" points="578.56,422.47 577.98,423.62 577.12,424.77 	"/>
	<polyline class="st53" points="575.4,411.84 575.68,411.84 575.68,412.13 575.97,412.41 576.83,412.7 577.12,413.56 	"/>
	<polyline class="st53" points="569.65,410.4 571.09,410.69 572.24,411.26 573.96,411.55 575.4,411.84 	"/>
	<polyline class="st53" points="565.63,409.54 567.06,409.54 569.65,410.4 	"/>
	<line class="st53" x1="567.64" y1="409.54" x2="565.63" y2="409.54"/>
	<line class="st53" x1="568.5" y1="410.4" x2="569.07" y2="410.4"/>
	<polyline class="st53" points="564.48,412.13 565.63,411.26 567.06,410.69 568.5,410.4 	"/>
	<polyline class="st53" points="562.46,414.14 562.75,413.85 563.33,412.99 563.9,412.7 564.48,412.13 	"/>
	<polyline class="st53" points="556.43,414.42 557.29,414.42 558.44,414.14 562.46,414.14 	"/>
	<polyline class="st53" points="556.43,422.18 556.14,421.03 555.57,419.6 555.57,417.59 556.14,416.15 556.43,414.42 	"/>
	<polyline class="st53" points="913.33,415.29 913.9,417.3 913.9,419.88 913.33,421.32 	"/>
	<polyline class="st53" points="910.74,414.42 911.03,414.42 911.61,414.71 912.18,414.71 912.18,415 912.47,415 913.04,415.29 
		913.33,415.29 	"/>
	<polyline class="st53" points="909.02,412.41 910.74,414.14 910.74,414.42 	"/>
	<polyline class="st53" points="905.28,410.4 906.43,410.98 907.87,411.55 909.02,412.41 	"/>
	<polyline class="st53" points="903.27,410.11 903.85,410.11 903.85,410.4 905.28,410.4 	"/>
	<polyline class="st53" points="904.42,409.54 904.13,409.54 903.85,409.83 903.27,410.11 	"/>
	<polyline class="st53" points="900.69,410.4 901.84,409.83 902.98,409.54 904.42,409.54 	"/>
	<polyline class="st53" points="898.1,411.84 898.67,411.26 899.25,410.98 899.82,410.4 900.69,410.4 	"/>
	<polyline class="st53" points="896.09,412.99 896.95,412.7 897.81,411.84 898.1,411.84 	"/>
	<path class="st53" d="M896.09,425.34l-0.86-1.72c-1.96-4.7-1.86-4.34,0-9.2l0.86-1.44"/>
	<polyline class="st53" points="569.36,410.4 567.64,410.69 566.2,411.84 564.48,412.7 563.33,414.14 562.46,415.57 561.89,419.02 
		561.89,420.75 562.18,422.18 563.04,424.19 565.63,426.78 567.06,427.64 	"/>
	<polyline class="st53" points="569.65,426.78 567.92,427.07 567.06,427.64 565.63,427.64 	"/>
	<line class="st53" x1="575.4" y1="426.78" x2="569.65" y2="426.78"/>
	<polyline class="st53" points="577.12,424.77 576.83,425.34 575.97,425.92 575.68,425.92 575.68,426.49 575.4,426.78 	"/>
	<polyline class="st53" points="562.46,424.48 561.6,424.19 560.45,423.62 559.3,423.33 558.44,423.04 557.29,422.47 556.43,422.18 
			"/>
	<polyline class="st53" points="564.48,426.49 562.75,424.77 562.75,424.48 562.46,424.48 	"/>
	<line class="st53" x1="566.78" y1="427.64" x2="564.48" y2="426.49"/>
	<path class="st53" d="M905.57,427.93l1.44-0.86l1.44-0.57l1.44-1.15l0.86-1.72l0.57-1.44l0.57-2.01v-1.44l-0.29-2.01l-0.86-1.44
		c-1.58-3.07-5.05-5.46-8.62-4.89h-1.44l-1.44,0.57"/>
	<polyline class="st53" points="913.33,421.32 913.04,421.9 913.04,422.18 912.47,422.18 912.18,422.47 912.18,423.04 
		911.03,423.62 910.74,423.62 	"/>
	<polyline class="st53" points="898.1,426.78 897.81,426.78 896.95,425.92 896.09,425.34 	"/>
	<line class="st53" x1="900.69" y1="426.78" x2="898.1" y2="426.78"/>
	<polyline class="st53" points="904.42,427.64 902.98,427.64 901.84,427.07 900.69,426.78 	"/>
	<polyline class="st53" points="905.28,427.93 905,427.93 904.42,428.22 	"/>
	<polyline class="st53" points="909.02,425.92 907.87,426.78 906.43,427.64 905.28,427.93 	"/>
	<polyline class="st53" points="910.74,423.62 910.74,424.19 909.02,425.92 	"/>
	<line class="st53" x1="913.33" y1="382.81" x2="913.33" y2="415.29"/>
	<line class="st53" x1="913.33" y1="421.32" x2="913.33" y2="479.65"/>
	<line class="st53" x1="904.42" y1="409.54" x2="904.42" y2="382.81"/>
	<line class="st53" x1="904.42" y1="487.99" x2="904.42" y2="427.07"/>
	<polygon class="st53" points="608.44,437.99 611.6,438.27 612.75,441.15 610.74,443.73 607.58,443.16 606.14,440.57 	"/>
	<polyline class="st53" points="607.01,440.57 607.29,441.15 607.58,442.01 607.58,442.59 608.15,443.16 	"/>
	<line class="st53" x1="607.01" y1="440.57" x2="606.14" y2="440.57"/>
	<line class="st53" x1="608.15" y1="443.16" x2="607.58" y2="443.16"/>
	<polyline class="st53" points="608.73,437.99 608.44,438.56 607.58,439.14 607.29,439.71 607.01,440.57 	"/>
	<polyline class="st53" points="608.15,443.16 608.73,443.45 609.88,443.45 610.74,443.73 	"/>
	<polyline class="st53" points="611.03,434.54 612.18,434.83 613.9,435.69 615.05,436.55 615.91,437.7 616.2,439.14 616.49,440.57 
		616.49,442.01 616.2,443.45 615.34,444.6 614.19,445.75 613.04,446.61 611.6,446.9 610.45,447.18 	"/>
	<line class="st53" x1="610.45" y1="434.54" x2="611.03" y2="434.54"/>
	<line class="st53" x1="609.3" y1="447.18" x2="610.45" y2="447.18"/>
	<path class="st53" d="M609.3,447.18l-0.86-0.29c-7.15-0.97-6.42-11.53,0.29-12.36h1.72"/>
	<polygon class="st53" points="721.37,513.85 724.53,514.43 725.68,517.59 723.39,519.6 720.22,518.74 719.36,515.86 	"/>
	<polyline class="st53" points="719.65,515.86 719.65,516.44 720.22,518.16 720.51,518.74 	"/>
	<line class="st53" x1="719.65" y1="515.86" x2="719.36" y2="515.86"/>
	<line class="st53" x1="720.51" y1="518.74" x2="720.22" y2="518.74"/>
	<polyline class="st53" points="721.66,513.85 721.09,514.14 720.8,514.71 719.94,515.29 719.65,515.86 	"/>
	<polyline class="st53" points="720.51,518.74 721.09,518.74 721.95,519.31 722.81,519.31 723.39,519.6 	"/>
	<polyline class="st53" points="725.68,510.98 726.83,511.55 727.98,512.99 728.56,513.85 728.85,515.29 728.85,518.16 
		728.27,519.31 727.7,520.75 726.55,521.61 	"/>
	<line class="st53" x1="719.65" y1="510.98" x2="720.51" y2="510.4"/>
	<line class="st53" x1="719.36" y1="511.26" x2="719.65" y2="510.98"/>
	<line class="st53" x1="726.26" y1="521.61" x2="726.55" y2="521.61"/>
	<path class="st53" d="M726.26,521.61l-1.15,0.57l-1.15,0.86c-3.24-0.12-3.59,0.64-6.03-2.01l-0.57-1.15l-0.86-1.15v-1.15
		l-0.29-1.15l0.29-1.15v-1.44l0.86-0.86l0.86-1.15l1.15-0.57"/>
	<polygon class="st53" points="832.29,441.44 833.16,438.28 836.32,437.99 838.33,440.29 837.18,443.16 834.31,443.74 	"/>
	<polyline class="st53" points="836.03,437.99 835.46,437.99 834.59,438.28 833.16,438.28 	"/>
	<line class="st53" x1="836.32" y1="437.99" x2="836.03" y2="437.99"/>
	<polyline class="st53" points="837.18,443.16 837.75,442.3 837.75,441.72 838.04,440.86 838.33,440.29 837.75,439.42 
		837.18,439.14 836.89,438.56 836.03,437.99 	"/>
	<polyline class="st53" points="837.18,446.9 836.03,447.18 834.31,447.18 833.16,446.9 831.72,446.03 830.57,445.46 830,444.31 
		829.13,442.87 828.85,441.44 828.85,440 829.13,438.56 830,437.13 831.14,435.98 832.29,435.4 833.73,434.54 836.6,434.54 
		838.04,435.11 839.19,435.98 840.34,437.13 841.2,438.28 841.49,439.71 841.49,441.15 840.92,444.02 840.05,445.17 838.9,446.03 
		837.18,446.9 	"/>
	<polygon class="st53" points="900.4,420.75 900.4,417.59 902.98,415.86 906.15,417.59 906.15,420.75 902.98,422.18 	"/>
	<polyline class="st53" points="902.98,422.18 903.85,421.9 904.42,421.32 905,421.32 905.57,420.75 906.15,420.75 	"/>
	<polyline class="st53" points="905.57,420.75 905.57,417.59 906.15,417.59 	"/>
	<polyline class="st53" points="905.57,417.59 905,417.3 904.42,416.72 903.85,416.44 902.98,416.15 	"/>
	<polyline class="st53" points="905,425.34 903.27,425.63 901.84,425.34 900.4,425.34 898.1,423.62 897.52,422.18 896.66,421.03 
		896.38,419.6 896.66,417.87 897.24,416.44 897.81,415.29 898.67,414.42 900.11,413.56 	"/>
	<line class="st53" x1="905" y1="425.34" x2="905" y2="425.34"/>
	<line class="st53" x1="900.4" y1="413.56" x2="900.11" y2="413.56"/>
	<path class="st53" d="M900.4,413.56l1.15-0.57l1.44-0.29c2.2-0.24,4.11,1.32,5.46,2.87l1.15,2.3v1.72l-0.29,0.86l-0.57,1.44
		l-0.29,0.86l-1.15,0.86l-1.15,1.15l-1.15,0.57"/>
	<polygon class="st53" points="567.06,420.75 567.06,417.59 569.65,416.15 572.24,417.59 572.24,420.75 569.65,422.18 	"/>
	<polyline class="st53" points="567.35,420.75 567.92,421.32 568.79,421.32 569.65,422.18 	"/>
	<line class="st53" x1="567.35" y1="420.75" x2="567.06" y2="420.75"/>
	<line class="st53" x1="567.35" y1="417.59" x2="567.35" y2="420.75"/>
	<line class="st53" x1="567.35" y1="417.59" x2="567.06" y2="417.59"/>
	<polyline class="st53" points="569.94,416.15 568.79,416.72 567.92,417.3 567.35,417.59 	"/>
	<path class="st53" d="M571.66,412.99l1.44,0.57c5.93,2.5,4.67,11.33-1.72,12.07h-1.44"/>
	<line class="st53" x1="570.8" y1="412.7" x2="571.66" y2="412.99"/>
	<line class="st53" x1="569.07" y1="425.34" x2="569.94" y2="425.63"/>
	<polyline class="st53" points="569.07,425.34 567.64,425.34 566.78,424.77 565.63,424.19 564.48,423.05 563.33,420.75 
		563.33,418.16 563.9,417.3 564.19,415.86 565.05,415 566.2,414.14 567.06,413.28 567.92,412.99 569.65,412.7 570.8,412.7 	"/>
	<polygon class="st53" points="589.19,306.09 589.76,302.93 592.93,301.78 595.22,303.79 594.65,307.24 591.78,307.81 	"/>
	<polyline class="st53" points="589.76,306.38 590.63,306.67 590.91,307.24 591.2,307.53 591.78,307.81 	"/>
	<line class="st53" x1="589.76" y1="306.38" x2="589.19" y2="306.09"/>
	<polyline class="st53" points="590.63,303.22 590.05,304.08 590.05,304.65 589.76,305.52 589.76,306.38 	"/>
	<line class="st53" x1="590.63" y1="303.22" x2="589.76" y2="302.93"/>
	<polyline class="st53" points="593.5,302.07 592.35,302.35 591.78,302.64 590.63,303.22 	"/>
	<polyline class="st53" points="588.9,310.69 588.04,309.54 587.18,308.68 586.6,307.53 586.03,305.23 586.03,303.79 586.6,302.64 
		586.89,301.49 587.75,300.34 588.9,299.48 589.76,299.19 591.2,298.62 592.35,298.33 593.5,298.62 594.94,299.19 596.09,299.48 
		596.66,300.06 	"/>
	<line class="st53" x1="588.9" y1="310.69" x2="589.76" y2="310.98"/>
	<polygon class="st53" points="877.7,301.78 880.57,302.93 881.15,306.09 878.85,307.81 875.97,307.24 875.11,303.79 	"/>
	<polyline class="st53" points="877.41,301.78 877.12,302.64 876.26,303.22 875.97,303.79 875.4,304.08 	"/>
	<line class="st53" x1="877.41" y1="301.78" x2="877.7" y2="301.78"/>
	<polyline class="st53" points="880.57,303.22 878.85,302.64 878.27,302.35 877.41,301.78 	"/>
	<line class="st53" x1="880.57" y1="303.22" x2="880.57" y2="302.93"/>
	<polyline class="st53" points="881.15,306.09 880.86,305.52 880.57,304.65 880.57,303.22 	"/>
	<path class="st53" d="M871.95,302.93l0.57-1.15l1.15-1.15l0.57-1.15l1.15-0.29l1.15-0.57l1.72-0.29l1.15,0.29l1.15,0.57l1.15,0.29
		c2.15,1.56,3.64,4.17,2.59,6.9v1.15l-0.29,0.29"/>
	<line class="st53" x1="871.95" y1="302.93" x2="871.95" y2="303.22"/>
	<line class="st53" x1="557.01" y1="203.22" x2="557.29" y2="203.22"/>
	<polyline class="st53" points="551.55,207.53 551.26,207.53 551.26,208.1 	"/>
	<line class="st53" x1="928.56" y1="206.66" x2="929.42" y2="205.52"/>
	<line class="st53" x1="551.55" y1="207.53" x2="552.69" y2="205.52"/>
	<line class="st53" x1="928.56" y1="206.66" x2="927.12" y2="203.79"/>
	<line class="st53" x1="929.42" y1="205.52" x2="928.27" y2="202.93"/>
	<line class="st53" x1="552.69" y1="205.52" x2="557.01" y2="203.22"/>
	<line class="st53" x1="927.12" y1="203.79" x2="928.27" y2="202.93"/>
	<line class="st53" x1="963.04" y1="205.52" x2="928.56" y2="205.52"/>
	<line class="st53" x1="924.54" y1="206.66" x2="928.56" y2="206.66"/>
	<polyline class="st53" points="924.25,206.38 924.25,205.52 552.69,205.52 	"/>
	<line class="st53" x1="924.25" y1="205.52" x2="922.24" y2="202.93"/>
	<line class="st53" x1="557.87" y1="202.93" x2="557.29" y2="203.22"/>
	<line class="st53" x1="927.41" y1="203.5" x2="922.52" y2="203.5"/>
	<line class="st53" x1="557.87" y1="202.93" x2="922.24" y2="202.93"/>
	<line class="st53" x1="961.89" y1="202.93" x2="928.27" y2="202.93"/>
	<polyline class="st53" points="757.01,343.73 757.01,344.6 757.58,345.46 758.16,345.75 759.88,345.75 760.45,345.46 761.03,344.6 
			"/>
	<polygon class="st53" points="756.72,344.88 756.72,344.31 757.01,343.45 757.87,342.87 759.59,342.87 760.45,343.45 
		760.74,344.31 761.03,344.88 760.74,345.75 760.45,346.61 758.73,347.18 757.01,346.61 756.72,345.75 	"/>
	<line class="st53" x1="761.32" y1="340.86" x2="761.32" y2="339.71"/>
	<line class="st53" x1="763.62" y1="344.88" x2="761.32" y2="340.86"/>
	<line class="st53" x1="763.62" y1="344.88" x2="763.9" y2="343.73"/>
	<line class="st53" x1="756.43" y1="340.86" x2="756.43" y2="339.71"/>
	<line class="st53" x1="761.32" y1="340.86" x2="756.43" y2="340.86"/>
	<line class="st53" x1="753.85" y1="344.88" x2="754.13" y2="343.73"/>
	<polyline class="st53" points="756.43,340.86 753.85,344.88 756.43,349.19 761.32,349.19 763.62,344.88 	"/>
	<polyline class="st53" points="801.83,344.31 802.12,344.88 802.7,345.75 805.28,345.75 805.86,345.17 805.86,344.31 	"/>
	<polygon class="st53" points="801.83,345.46 801.83,344.31 802.12,343.73 802.41,343.16 803.56,342.87 804.42,342.87 
		805.28,343.16 805.86,343.73 805.86,346.03 805.28,346.61 804.42,347.18 803.56,347.18 802.7,346.61 802.12,346.03 	"/>
	<line class="st53" x1="805.28" y1="340.29" x2="805.57" y2="339.14"/>
	<line class="st53" x1="809.02" y1="343.73" x2="805.28" y2="340.29"/>
	<line class="st53" x1="809.02" y1="343.73" x2="809.02" y2="342.87"/>
	<line class="st53" x1="800.69" y1="341.44" x2="800.69" y2="340.29"/>
	<line class="st53" x1="805.28" y1="340.29" x2="800.68" y2="341.44"/>
	<line class="st53" x1="798.96" y1="345.75" x2="798.96" y2="344.88"/>
	<polyline class="st53" points="800.68,341.44 798.96,345.75 802.12,349.48 807.01,348.33 809.02,343.73 	"/>
	<polyline class="st53" points="676.83,521.32 676.83,520.75 676.55,515.29 676.55,510.11 	"/>
	<line class="st53" x1="676.55" y1="509.25" x2="676.55" y2="510.12"/>
	<polyline class="st53" points="654.99,498.05 654.99,507.82 655.28,515.57 	"/>
	<polyline class="st53" points="676.83,497.76 676.83,499.48 676.55,501.21 676.55,509.25 	"/>
	<polyline class="st53" points="675.97,520.17 675.97,507.82 675.68,498.05 	"/>
	<polyline class="st53" points="655.28,496.03 654.99,497.18 654.99,498.05 	"/>
	<polyline class="st53" points="659.3,489.71 657.87,491.15 656.72,492.59 655.86,494.31 655.28,496.03 	"/>
	<polyline class="st53" points="665.05,487.41 664.48,487.41 664.19,487.99 663.33,487.99 661.89,488.28 660.45,488.85 
		659.59,489.14 659.3,489.71 	"/>
	<line class="st53" x1="665.34" y1="487.41" x2="665.05" y2="487.41"/>
	<polyline class="st53" points="663.9,487.99 665.05,487.41 665.34,487.41 	"/>
	<polyline class="st53" points="675.68,498.05 675.68,497.18 675.4,496.03 	"/>
	<line class="st53" x1="676.83" y1="496.32" x2="676.83" y2="497.76"/>
	<polyline class="st53" points="676.55,495.17 676.83,495.46 676.83,496.32 	"/>
	<line class="st53" x1="676.55" y1="494.88" x2="676.55" y2="495.17"/>
	<polyline class="st53" points="666.78,487.41 667.64,487.41 668.79,487.99 670.22,488.28 671.95,488.85 673.1,490.29 
		673.67,490.57 674.53,491.44 675.4,492.01 675.97,493.74 676.55,494.88 	"/>
	<line class="st53" x1="666.2" y1="487.41" x2="666.78" y2="487.41"/>
	<polyline class="st53" points="671.37,489.71 671.09,489.14 670.22,488.85 669.07,488.28 667.64,487.99 666.78,487.99 
		666.49,487.41 666.2,487.41 	"/>
	<polyline class="st53" points="675.4,496.03 674.82,494.31 674.25,492.59 673.1,491.15 671.37,489.71 	"/>
	<line class="st53" x1="663.9" y1="487.99" x2="663.04" y2="487.99"/>
	<line class="st53" x1="665.34" y1="487.41" x2="666.78" y2="487.41"/>
	<line class="st53" x1="902.12" y1="427.07" x2="905" y2="427.07"/>
	<polyline class="st53" points="899.25,412.13 897.52,412.99 896.38,414.14 895.51,415.57 894.94,417.3 894.65,418.73 
		894.94,420.17 894.94,421.9 895.8,423.62 898.1,425.92 899.54,426.78 	"/>
	<path class="st53" d="M902.12,427.07h1.72c5.84-0.46,8.6-6.99,6.03-11.78l-0.86-1.15l-1.15-1.44c-9.35-5.71-18.2,6.23-9.77,13.22
		l1.72,0.86"/>
	<line class="st53" x1="905.28" y1="427.07" x2="905" y2="427.07"/>
	<line class="st53" x1="899.25" y1="411.84" x2="899.25" y2="412.13"/>
	<polyline class="st53" points="574.25,426.78 575.68,425.63 576.83,424.48 577.98,423.04 578.56,421.9 	"/>
	<polyline class="st53" points="578.56,417.3 577.98,415.57 577.12,414.14 576.26,413.27 574.82,412.41 573.67,411.84 
		571.95,411.26 	"/>
	<polyline class="st53" points="574.25,426.78 575.68,425.63 576.55,424.77 577.41,423.62 578.56,420.75 	"/>
	<path class="st53" d="M578.56,417.59l-0.57-1.44c-7.27-12.87-23.22,1.82-11.21,10.34l1.72,0.57"/>
	<line class="st53" x1="571.95" y1="411.26" x2="571.95" y2="411.26"/>
	<path class="st53" d="M601.26,305.52v1.72l-0.57,1.44c-3.93,6.54-11.44,6.73-15.23,0l-0.29-1.44l-0.29-1.72
		c0.03-7.82,9.85-12.03,14.66-4.89l1.15,1.15l0.57,2.01V305.52z"/>
	<path class="st53" d="M598.1,298.62l1.15,1.15l1.15,1.72l0.86,1.15l0.29,1.44v2.01l-0.29,1.72l-0.57,1.72l-1.15,1.44
		c-3.06,2.34-3.17,2.96-7.47,2.87l-1.44-0.57l-1.72-0.86"/>
	<line class="st53" x1="598.1" y1="298.62" x2="597.81" y2="298.33"/>
	<path class="st53" d="M869.65,305.52l0.57-1.72l0.29-2.01c4.34-6.49,10.62-6.49,14.94,0l0.57,2.01l0.29,1.72
		c-0.72,7.87-10.11,11.2-14.94,4.6l-0.86-1.44l-0.29-1.44L869.65,305.52z"/>
	<path class="st53" d="M885.46,308.96l-0.86,1.15c-5.47,8.07-17.5,1.72-14.37-7.18v-0.29"/>
	<line class="st53" x1="707.29" y1="382.81" x2="707.29" y2="529.08"/>
	<line class="st53" x1="711.32" y1="529.08" x2="711.32" y2="382.81"/>
	<path class="st15" d="M663.62,356.09c6.9,0,12.36-5.17,12.36-11.78s-5.46-12.07-12.36-12.07c-6.61,0-12.36,5.46-12.36,12.07
		S657.01,356.09,663.62,356.09z"/>
	<path class="st54" d="M663.62,356.09c6.9,0,12.36-5.17,12.36-11.78s-5.46-12.07-12.36-12.07c-6.61,0-12.36,5.46-12.36,12.07
		S657.01,356.09,663.62,356.09z"/>
	<rect x="816.78" y="341.44" class="st15" width="27.3" height="16.09"/>
	<rect x="816.78" y="341.44" class="st54" width="27.3" height="16.09"/>
	<rect x="852.41" y="332.24" class="st15" width="29.02" height="25"/>
	<rect x="852.41" y="332.24" class="st54" width="29.02" height="25"/>
	<polygon class="st15" points="765.34,341.43 765.05,339.42 765.34,337.99 766.2,336.84 767.06,335.98 768.5,335.98 769.08,335.69 
		793.21,335.69 794.65,335.98 795.51,336.26 796.37,337.41 797.24,338.27 797.24,340 795.51,350.06 794.94,351.21 793.79,352.93 
		792.93,353.22 791.78,353.22 790.05,353.5 770.51,353.22 769.65,353.22 768.5,352.93 767.64,351.78 767.35,350.92 766.78,350.06 	
		"/>
	<polygon class="st54" points="765.34,341.43 765.05,339.42 765.34,337.99 766.2,336.84 767.06,335.98 768.5,335.98 769.08,335.69 
		793.21,335.69 794.65,335.98 795.51,336.26 796.37,337.41 797.24,338.27 797.24,340 795.51,350.06 794.94,351.21 793.79,352.93 
		792.93,353.22 791.78,353.22 790.05,353.5 770.51,353.22 769.65,353.22 768.5,352.93 767.64,351.78 767.35,350.92 766.78,350.06 	
		"/>
</g>
<g>
	<polygon class="st55" points="711.92,343.49 714.42,341.84 713.06,342.57 691.42,346.95 692.48,370.31 696.54,363.22 	"/>
	<path class="st55" d="M724.06,631.27c92.67-109.43,82.06-201.1-30.57-274.71l5.94-8.89C813.35,421.98,821.75,516.3,724.06,631.27z"
		/>
</g>
</svg>
