<?xml version="1.0" encoding="utf-8"?>
<!-- Generator: Adobe Illustrator 23.0.1, SVG Export Plug-In . SVG Version: 6.00 Build 0)  -->
<svg version="1.1" id="Layer_1" xmlns="http://www.w3.org/2000/svg" xmlns:xlink="http://www.w3.org/1999/xlink" x="0px" y="0px"
	 viewBox="0 0 1000 1000" style="enable-background:new 0 0 1000 1000;" xml:space="preserve">
<style type="text/css">
	.st0{fill:#AFB1B4;}
	.st1{fill:#CED0D1;}
	.st2{fill:none;stroke:#151616;stroke-width:0.9901;stroke-miterlimit:10;}
	.st3{fill:none;stroke:#000000;stroke-width:6.5611;stroke-miterlimit:10;}
	.st4{fill-rule:evenodd;clip-rule:evenodd;fill:#070A09;}
	.st5{fill-rule:evenodd;clip-rule:evenodd;fill:#009933;}
	.st6{fill:none;stroke:#000000;stroke-width:0.9901;stroke-miterlimit:10;}
	.st7{fill:none;stroke:#000000;stroke-width:0.9901;stroke-linecap:round;stroke-linejoin:round;stroke-miterlimit:10;}
	.st8{fill:none;stroke:#000000;stroke-width:1.3048;stroke-linecap:round;stroke-linejoin:round;stroke-miterlimit:10;}
	.st9{fill:none;stroke:#151616;stroke-width:1.3048;stroke-miterlimit:10;}
	.st10{fill-rule:evenodd;clip-rule:evenodd;fill:#FCFCFC;}
	.st11{fill:none;stroke:#FEFEFE;stroke-width:1.3048;stroke-miterlimit:10;}
	.st12{fill:none;stroke:#000000;stroke-width:1.1967;stroke-linecap:round;stroke-linejoin:round;stroke-miterlimit:10;}
	.st13{fill-rule:evenodd;clip-rule:evenodd;fill:#FFFFFF;}
	.st14{fill:none;stroke:#151616;stroke-width:1.1967;stroke-miterlimit:10;}
	.st15{fill-rule:evenodd;clip-rule:evenodd;}
	.st16{fill:none;stroke:#000000;stroke-width:1.1967;stroke-miterlimit:10;}
	.st17{fill:#FFFFFF;}
	.st18{fill-rule:evenodd;clip-rule:evenodd;fill:none;}
	.st19{fill:none;stroke:#009933;stroke-width:6.9903;stroke-miterlimit:10;}
	.st20{fill:#009933;}
	.st21{fill:none;stroke:#009933;stroke-width:15.3786;stroke-miterlimit:10;}
	.st22{fill:none;stroke:#000000;stroke-width:0.9613;stroke-linecap:round;stroke-linejoin:round;stroke-miterlimit:10;}
	.st23{fill:none;stroke:#151616;stroke-width:1.049;stroke-miterlimit:10;}
	.st24{fill:#151616;}
	.st25{fill:none;stroke:#000000;stroke-width:0.9613;stroke-miterlimit:10;}
	.st26{fill:none;stroke:#151616;stroke-width:0.9613;stroke-miterlimit:10;}
	.st27{fill:none;stroke:#151616;stroke-width:0.225;stroke-miterlimit:10;}
	.st28{fill:none;stroke:#000000;stroke-width:0.9932;stroke-linecap:round;stroke-linejoin:round;stroke-miterlimit:10;}
	.st29{fill:none;stroke:#151616;stroke-width:0.9932;stroke-miterlimit:10;}
	.st30{fill:none;stroke:#FEFEFE;stroke-width:0.9932;stroke-miterlimit:10;}
	.st31{fill:none;stroke:#151616;stroke-width:0.9932;stroke-linecap:round;stroke-linejoin:round;stroke-miterlimit:10;}
	.st32{fill:none;stroke:#151616;stroke-width:1.2586;stroke-miterlimit:10;}
	.st33{fill:none;stroke:#000000;stroke-width:1.625;stroke-linecap:round;stroke-linejoin:round;stroke-miterlimit:10;}
	.st34{fill:#8F9194;}
	.st35{fill:none;stroke:#151616;stroke-width:1.159;stroke-miterlimit:10;}
	.st36{fill:#AFB1B4;stroke:#000000;stroke-width:1.115;stroke-miterlimit:10;}
	.st37{fill:none;stroke:#009933;stroke-width:7.5778;stroke-miterlimit:10;}
	.st38{fill:none;stroke:#009933;stroke-width:16.6712;stroke-miterlimit:10;}
	.st39{fill:#FFFFFF;stroke:#151616;stroke-width:1.2586;stroke-miterlimit:10;}
	.st40{fill:none;stroke:#000000;stroke-width:1.5181;stroke-linecap:round;stroke-linejoin:round;stroke-miterlimit:10;}
	.st41{fill-rule:evenodd;clip-rule:evenodd;fill:#C8C8C8;}
	.st42{fill:#C7C7C7;}
	.st43{fill:none;stroke:#000000;stroke-width:1.5079;stroke-linecap:round;stroke-linejoin:round;stroke-miterlimit:10;}
	.st44{fill:none;stroke:#151616;stroke-width:1.5079;stroke-miterlimit:10;}
	.st45{fill:none;stroke:#000000;stroke-width:0.9814;stroke-linecap:round;stroke-linejoin:round;stroke-miterlimit:10;}
	.st46{fill:none;stroke:#151616;stroke-width:0.9814;stroke-miterlimit:10;}
	.st47{fill:none;stroke:#FEFEFE;stroke-width:0.9814;stroke-miterlimit:10;}
	.st48{fill:none;stroke:#151616;stroke-width:0.9814;stroke-linecap:round;stroke-linejoin:round;stroke-miterlimit:10;}
	.st49{fill:none;stroke:#151616;stroke-width:0.6983;stroke-miterlimit:10;}
	.st50{fill:none;stroke:#151616;stroke-width:4.1862;stroke-miterlimit:10;}
	.st51{fill:none;stroke:#000000;stroke-width:0.785;stroke-linecap:round;stroke-linejoin:round;stroke-miterlimit:10;}
	.st52{fill:none;stroke:#151616;stroke-width:0.785;stroke-miterlimit:10;}
	.st53{fill:none;stroke:#000000;stroke-width:1.0776;stroke-linecap:round;stroke-linejoin:round;stroke-miterlimit:10;}
	.st54{fill:none;stroke:#151616;stroke-width:1.0776;stroke-miterlimit:10;}
	.st55{fill-rule:evenodd;clip-rule:evenodd;fill:#009933;stroke:#009933;stroke-miterlimit:10;}
	.st56{fill:#CED0D1;stroke:#000000;stroke-width:1.115;stroke-miterlimit:10;}
	.st57{fill:#C8C8C8;}
	.st58{fill:none;stroke:#151616;stroke-width:1.5181;stroke-miterlimit:10;}
	.st59{clip-path:url(#SVGID_4_);}
	.st60{clip-path:url(#SVGID_6_);}
	.st61{clip-path:url(#SVGID_8_);}
	.st62{clip-path:url(#SVGID_10_);}
	.st63{clip-path:url(#SVGID_14_);}
	.st64{clip-path:url(#SVGID_16_);}
	.st65{clip-path:url(#SVGID_18_);}
	.st66{clip-path:url(#SVGID_20_);}
	.st67{clip-path:url(#SVGID_24_);}
	.st68{clip-path:url(#SVGID_26_);}
	.st69{clip-path:url(#SVGID_28_);}
	.st70{clip-path:url(#SVGID_30_);}
	.st71{clip-path:url(#SVGID_34_);}
	.st72{clip-path:url(#SVGID_38_);}
	.st73{clip-path:url(#SVGID_42_);}
	.st74{clip-path:url(#SVGID_46_);}
	.st75{clip-path:url(#SVGID_48_);}
	.st76{clip-path:url(#SVGID_50_);}
	.st77{clip-path:url(#SVGID_52_);}
	.st78{fill:#7A7A7A;}
	.st79{clip-path:url(#SVGID_56_);}
	.st80{clip-path:url(#SVGID_58_);}
	.st81{clip-path:url(#SVGID_60_);}
	.st82{clip-path:url(#SVGID_62_);}
	.st83{clip-path:url(#SVGID_66_);}
	.st84{clip-path:url(#SVGID_68_);}
	.st85{clip-path:url(#SVGID_70_);}
	.st86{clip-path:url(#SVGID_72_);}
	.st87{clip-path:url(#SVGID_76_);}
	.st88{clip-path:url(#SVGID_78_);}
	.st89{clip-path:url(#SVGID_80_);}
	.st90{clip-path:url(#SVGID_82_);}
	.st91{clip-path:url(#SVGID_86_);}
	.st92{clip-path:url(#SVGID_88_);}
	.st93{clip-path:url(#SVGID_90_);fill:#FFFFFF;}
	.st94{clip-path:url(#SVGID_92_);}
	.st95{clip-path:url(#SVGID_94_);}
	.st96{clip-path:url(#SVGID_96_);}
	.st97{clip-path:url(#SVGID_98_);}
	.st98{clip-path:url(#SVGID_102_);}
	.st99{clip-path:url(#SVGID_104_);}
	.st100{clip-path:url(#SVGID_106_);fill:#FFFFFF;}
	.st101{clip-path:url(#SVGID_108_);}
	.st102{clip-path:url(#SVGID_110_);}
	.st103{clip-path:url(#SVGID_112_);}
	.st104{clip-path:url(#SVGID_114_);}
	.st105{clip-path:url(#SVGID_118_);}
	.st106{clip-path:url(#SVGID_120_);}
	.st107{clip-path:url(#SVGID_122_);}
</style>
<path class="st1" d="M109.67,443c5.77,11.73,13.22,24.07,13.22,24.07l9.23,15.41l75.41,101.05c0,0,146.14,35.47,160.46,25.94
	C385.14,598.06,601,398.71,601,398.71H133.44c0,0-24.49,9.16-25.77,23.62"/>
<polyline class="st17" points="583.61,349.54 584.01,348.73 584.01,347.93 584.42,347.93 584.42,347.52 584.82,347.52 
	584.82,347.12 585.23,347.12 585.63,346.71 586.84,346.71 587.25,347.12 587.65,347.12 588.46,347.52 588.87,347.52 588.87,347.93 
	590.08,347.93 590.08,349.14 589.68,349.54 589.68,349.95 589.27,350.35 589.27,350.76 588.87,351.16 588.87,351.97 588.46,352.38 
	588.06,353.19 588.06,352.78 587.65,352.78 587.65,352.38 587.25,351.97 586.84,351.97 586.44,351.57 586.44,351.16 586.03,351.16 
	585.63,350.76 585.63,350.35 585.23,350.35 584.82,349.95 584.42,349.95 584.42,349.54 583.61,349.54 "/>
<path class="st17" d="M605.87,371.81l0.4,0.4c0.85,1.79,1.4,2.81,2.43,4.45l0.4,0.81h0.4v-0.4h0.81l0.81-0.81v-0.4h0.4v-0.4h0.4
	l0.4-0.4v-0.81l0.4-0.4v-1.62h0.4v-0.81l0.4-0.4v-0.4l0.4-0.81l0.4-0.4h-0.4l-0.4-0.4h-1.21v-0.4h-1.21l-0.41-0.4h-0.81l-0.4-0.4
	h-0.4l-0.4-0.4h-1.21l-0.4-0.4h-0.4l0.4-0.81c3.83-6.42,7.97-14.82,10.53-21.86l0.81-1.62v0.81l0.4,0.81v2.83l0.4,0.81v0.81l0.4,0.4
	v2.02h0.4v1.21l0.4,0.4v0.81l0.4,0.4v0.4l0.41,0.4v0.4l0.81,0.81l0.4,0.81l0.81,0.81l0.4,0.81l1.21,1.21
	c1.84,2.4,3.72,4.71,5.26,7.29l0.4,0.4l0.4,0.81v0.4l0.41,0.4l0.4,0.81v0.4l0.4,0.81l0.4,0.4v1.21l0.4,0.81v0.4l-0.4,0.4v3.24
	l-0.4,0.4v0.81l-1.21,1.21l-0.4,0.81v0.4l-1.21,1.21l-0.81,0.4l-2.02,2.02l-0.81,0.4l-0.81,0.81l-0.81,0.4h-0.4l-0.81,0.81
	l-0.81,0.4l-0.4,0.4h-0.81l-0.4,0.4h-0.4l-0.81,0.4l-0.4,0.4h-5.26l-0.4-0.4h-0.4l-0.4-0.4h-1.21l-0.41-0.4h-0.81l-0.81-0.81h-0.4
	l-0.81-0.81h-0.4l-0.4-0.4h-0.4l-0.4-0.4v-0.4l-0.4-0.4h-0.41l-0.81-0.81l-0.4-0.81l-0.81-0.4l-0.81-0.81l-0.4-0.81l-0.81-0.4
	l-0.4-0.4v-0.4h-0.4v-0.4l-0.81-0.81v-1.62l0.4-0.4v-1.21l0.4-0.4v-0.81l0.4-0.4v-0.4l0.4-0.4v-0.4l0.4-0.4l0.4-0.4l0.4-0.4V371
	l0.4-0.4v-0.4h0.4l0.4-0.4v0.4h0.4l1.21,1.21"/>
<polyline class="st17" points="605.87,371.81 606.28,371 606.28,370.19 606.68,369.79 606.68,369.38 607.09,369.38 607.49,368.98 
	608.3,368.98 608.3,368.57 608.7,368.57 609.11,368.98 609.51,368.98 610.32,369.79 611.13,369.79 611.13,370.19 612.35,370.19 
	612.35,371.4 611.94,371.81 611.94,372.21 611.54,372.62 610.73,374.24 610.73,375.05 610.32,375.45 609.51,374.64 609.51,374.24 
	609.11,374.24 608.7,373.83 608.7,373.43 608.3,373.02 607.9,373.02 607.09,372.21 606.28,372.21 606.28,371.81 605.87,371.81 "/>
<path class="st40" d="M583.61,254.82v2.02c-0.42,5.49-4.57,10.58-10.12,11.34l-1.62-0.4"/>
<line class="st40" x1="592.92" y1="171.83" x2="578.75" y2="209.88"/>
<path class="st40" d="M594.94,146.73l0.81,2.43c1.73,5.38,0.24,13.65-1.21,19.03l-1.62,3.64"/>
<line class="st40" x1="486.45" y1="226.88" x2="485.64" y2="228.91"/>
<line class="st40" x1="486.45" y1="227.29" x2="486.45" y2="226.88"/>
<polyline class="st40" points="489.28,223.65 488.47,226.07 486.85,226.88 486.45,227.29 "/>
<line class="st40" x1="511.14" y1="156.85" x2="489.28" y2="223.65"/>
<path class="st40" d="M527.74,129.32l-2.43,2.02c-5.24,5.73-10.83,14.32-12.95,21.86l-1.21,3.64"/>
<path class="st40" d="M552.84,114.34l-2.02-0.4c-17.45,0.9-31.05,24.98-36.84,39.27l-1.62,4.05"/>
<line class="st40" x1="572.27" y1="118.39" x2="552.84" y2="114.34"/>
<line class="st40" x1="488.88" y1="226.88" x2="488.47" y2="228.1"/>
<line class="st40" x1="512.36" y1="157.25" x2="488.88" y2="226.88"/>
<path class="st40" d="M521.26,160.9l1.62-4.45c4.53-13.89,20.09-38.06,36.43-38.86l2.02,0.4"/>
<path class="st40" d="M553.65,128.92h-2.02c-12.03,0.26-23.84,18.57-27.12,28.74l-1.62,4.05"/>
<line class="st40" x1="576.72" y1="133.37" x2="553.65" y2="128.92"/>
<polyline class="st40" points="576.72,133.37 580.77,121.63 561.34,117.99 "/>
<line class="st40" x1="497.38" y1="230.53" x2="521.26" y2="160.9"/>
<line class="st40" x1="496.97" y1="231.74" x2="497.38" y2="230.53"/>
<polyline class="st40" points="500.21,228.5 499.4,229.72 499,230.53 497.78,231.74 496.97,231.74 "/>
<line class="st40" x1="522.88" y1="161.71" x2="500.21" y2="228.5"/>
<path class="st40" d="M526.53,163.33l1.21-4.05c5.22-11.3,15.72-28.94,29.96-28.74l23.07,4.86l-4.05-2.02"/>
<polyline class="st40" points="584.82,125.27 584.82,123.65 584.01,122.84 "/>
<line class="st40" x1="580.77" y1="121.63" x2="584.01" y2="122.84"/>
<line class="st40" x1="580.77" y1="135.39" x2="584.82" y2="125.27"/>
<polyline class="st40" points="587.25,123.65 587.65,124.06 588.06,124.87 588.06,125.68 "/>
<line class="st40" x1="575.91" y1="118.8" x2="573.08" y2="117.99"/>
<line class="st40" x1="569.84" y1="117.18" x2="572.27" y2="118.39"/>
<line class="st40" x1="587.25" y1="123.65" x2="584.42" y2="122.44"/>
<line class="st40" x1="603.85" y1="126.49" x2="584.42" y2="122.44"/>
<line class="st40" x1="575.91" y1="118.8" x2="595.35" y2="122.44"/>
<line class="st40" x1="573.08" y1="117.99" x2="573.08" y2="117.58"/>
<polyline class="st40" points="597.37,123.25 596.16,122.84 595.35,122.44 "/>
<polyline class="st40" points="584.42,135.39 603.04,139.04 604.25,139.44 "/>
<path class="st40" d="M615.18,151.99v-3.64c0.05-7.68-1.5-17.82-9.31-21.46l-2.02-0.4"/>
<path class="st40" d="M607.09,140.66l1.62,0.4c10.68,5.52,6.48,26.52,3.24,35.22l-1.62,4.05"/>
<line class="st40" x1="584.01" y1="135.8" x2="607.09" y2="140.66"/>
<line class="st40" x1="584.01" y1="135.8" x2="588.06" y2="125.68"/>
<line class="st40" x1="502.64" y1="229.72" x2="526.53" y2="163.33"/>
<polyline class="st40" points="499.4,232.55 500.21,232.55 502.24,230.53 502.64,229.72 "/>
<line class="st40" x1="499.4" y1="232.96" x2="499.4" y2="232.55"/>
<line class="st40" x1="498.59" y1="234.17" x2="499.4" y2="232.96"/>
<line class="st40" x1="502.64" y1="234.98" x2="498.59" y2="234.17"/>
<line class="st40" x1="503.86" y1="232.15" x2="502.64" y2="234.98"/>
<line class="st40" x1="529.36" y1="161.71" x2="503.86" y2="232.15"/>
<path class="st40" d="M552.03,138.63l-1.62-0.4c-10.2,2.07-15.36,12.46-20.24,20.65l-0.81,2.83"/>
<line class="st40" x1="606.28" y1="149.56" x2="552.03" y2="138.63"/>
<path class="st40" d="M609.11,178.31l0.81-3.24c2.16-4.69,2.39-9.97,2.83-14.98l-0.4-2.43l-0.4-2.02l-0.81-2.02l-0.81-1.62
	l-0.81-1.21l-1.62-0.81l-1.62-0.4"/>
<line class="st40" x1="589.27" y1="224.45" x2="609.11" y2="178.31"/>
<line class="st40" x1="610.32" y1="180.33" x2="590.49" y2="227.29"/>
<polyline class="st40" points="571.46,266.56 573.49,265.75 575.1,264.53 576.72,262.91 577.94,261.29 578.75,259.27 "/>
<path class="st40" d="M502.64,234.98l0.4,2.02c2.53,6.81-2.83,13.85-9.72,14.98l-2.02-0.4"/>
<path class="st40" d="M485.64,228.91l-1.62,0.81c-17.83,19.34,16.77,32.79,14.98,6.88l-0.4-2.43"/>
<line class="st40" x1="488.47" y1="228.1" x2="486.45" y2="226.88"/>
<line class="st40" x1="499.4" y1="232.96" x2="496.97" y2="231.74"/>
<line class="st40" x1="497.38" y1="230.53" x2="488.88" y2="226.88"/>
<path class="st40" d="M488.07,234.58l0.81-0.4c7.61,0.87,5.44,11.67-1.62,9.72l-1.21-0.81"/>
<polyline class="st40" points="569.84,117.18 569.03,116.77 568.63,116.77 568.22,117.18 "/>
<line class="st40" x1="605.87" y1="126.89" x2="597.37" y2="123.25"/>
<line class="st40" x1="608.3" y1="141.06" x2="604.25" y2="139.44"/>
<line class="st40" x1="491.31" y1="251.58" x2="487.26" y2="250.77"/>
<line class="st40" x1="573.08" y1="117.58" x2="569.44" y2="116.77"/>
<path class="st40" d="M515.6,244.29l2.43,3.24l2.83,3.24c3.74,5.82,14.76,15.68,20.65,19.84l2.43,2.02l3.24,2.02
	c4.61,2.52,9.47,6.24,14.98,4.86l1.62-0.4l1.21-0.4"/>
<polyline class="st40" points="485.23,253.2 488.47,252.39 491.31,251.58 "/>
<polyline class="st40" points="499.4,249.15 503.86,247.93 511.95,245.51 515.6,244.29 "/>
<line class="st40" x1="482.81" y1="249.55" x2="485.23" y2="253.2"/>
<line class="st40" x1="482.81" y1="249.55" x2="480.38" y2="246.32"/>
<polyline class="st40" points="510.74,237 509.12,234.17 507.09,230.93 505.48,228.1 "/>
<path class="st40" d="M377.96,179.92l3.64-0.81c22.29-2.26,43.61-6.56,65.58,1.21l3.64,1.21"/>
<path class="st40" d="M377.96,179.92l-2.43,0.81c-30.86,6.91-17.91,35.21-2.83,51.41l2.02,2.43"/>
<path class="st40" d="M406.7,272.22l-4.05-4.86c-6.47-10.4-15.23-19.03-23.07-28.34l-4.86-4.45"/>
<path class="st40" d="M431.8,316.35l-2.83-6.48c-6.48-11.72-11.48-21.15-19.03-32.39l-3.24-5.26"/>
<path class="st40" d="M510.33,371l-2.43,0.4c-24.03,1.3-46.09-14.48-61.13-31.98l-2.43-2.83l-2.02-2.83
	c-2.98-4.49-6.75-9.74-8.91-14.57l-1.62-2.83"/>
<path class="st40" d="M603.04,389.62l-2.02-2.43c-20.36-26.59-55.91-20.83-85.01-17.41l-5.67,1.21"/>
<path class="st40" d="M605.06,379.5l0.81,2.43c0.16,1.99,3.37,8.78,1.62,10.93l-0.81,0.4l-0.4-0.4h-0.4l-0.81-1.21l-2.02-2.02"/>
<line class="st40" x1="503.45" y1="241.86" x2="515.6" y2="244.29"/>
<line class="st40" x1="485.23" y1="253.2" x2="488.07" y2="250.77"/>
<line class="st40" x1="510.74" y1="237" x2="503.05" y2="235.79"/>
<polyline class="st40" points="515.6,244.29 513.98,241.86 512.36,239.84 510.74,237 "/>
<line class="st40" x1="480.78" y1="246.32" x2="480.38" y2="246.32"/>
<polyline class="st40" points="367.03,607.82 370.67,605.8 373.91,603.37 379.58,599.32 381.6,597.29 383.62,595.68 387.67,591.63 
	388.08,590.41 388.08,589.6 387.67,588.39 387.27,587.98 386.46,587.58 385.24,587.17 "/>
<polyline class="st40" points="358.12,611.87 360.14,611.46 362.17,610.65 364.6,609.44 367.03,607.82 "/>
<path class="st40" d="M292.54,568.15l-1.62-0.4c-18.4,1.68-33.34,5.84-51.01,11.34l-6.48,2.02"/>
<line class="st40" x1="385.24" y1="587.17" x2="292.54" y2="568.15"/>
<polyline class="st40" points="217.65,583.53 218.46,576.24 219.27,573.01 220.08,569.36 "/>
<polyline class="st40" points="233.44,581.1 230.2,581.91 226.15,583.13 222.1,583.53 217.65,583.53 "/>
<path class="st40" d="M220.08,569.36l1.62-5.67c4.86-17.38,8.59-36.99,1.21-54.25l-1.62-2.43"/>
<path class="st40" d="M117.66,421.6l-2.43,0.81l-2.83,0.81l-4.86,1.62l0.4,3.64c-0.32,12,4.53,18.39,8.91,28.34l2.83,4.05"/>
<polyline class="st40" points="217.65,583.53 215.62,583.94 213.19,584.34 211.58,584.34 207.53,583.53 205.5,582.72 204.29,581.91 
	203.07,580.29 201.86,579.08 "/>
<polyline class="st40" points="358.12,611.87 353.67,612.27 349.21,611.87 344.36,611.46 340.31,610.65 "/>
<polyline class="st40" points="116.85,412.29 120.9,407.84 124.54,403.39 128.18,399.74 131.83,396.5 135.06,392.86 138.3,390.03 
	"/>
<path class="st40" d="M164.21,425.25l-1.62-2.43c-11.72-11.47-27.03-7.96-40.89-3.24l-4.05,2.02"/>
<line class="st40" x1="221.29" y1="507.02" x2="164.21" y2="425.25"/>
<path class="st40" d="M571.46,265.75l0.4,2.02v2.02c-1.86,9.97-12.7,3.57-17.81,0.81l-3.24-2.02l-2.83-2.02
	c-10.73-7.83-24.32-21.89-31.17-33.2l-4.05-6.48l-1.21-3.24l-1.21-2.83l-1.21-2.43"/>
<polyline class="st40" points="513.98,205.43 515.6,205.83 517.62,206.24 "/>
<path class="st40" d="M567.01,270.2l-1.21,0.81h-1.21c-9.96,1.25-22.96-12.02-29.96-17.81l-2.83-3.24l-2.43-2.83
	c-6.28-6.98-19.8-24.43-17.81-34.41l0.4-1.21l0.81-1.21"/>
<path class="st40" d="M585.63,219.6l-2.43-3.24l-2.02-3.64l-2.83-2.83c-6.17-7.71-20.86-21.43-30.36-24.29l-1.62-0.4h-2.02
	c-11.04-2.19-3.96,14.94-0.81,18.62l1.21,3.24l2.02,3.24l2.43,3.24l2.43,2.83c6.15,8.53,20.46,23.3,30.36,27.53l2.43,1.62l2.43,0.4
	c11.27,3.83,10.03-8.29,5.67-14.57l-0.81-2.83l-2.02-2.83l-1.62-3.24L585.63,219.6z"/>
<path class="st40" d="M549.6,212.31l-2.02-3.24l-1.62-2.83l-1.62-3.24c-2.47-4.4-7.04-13.8,0.4-15.79l2.02,0.4l1.62,0.4
	c9.27,1.71,22.44,15.22,28.74,21.86l2.43,2.83l2.43,3.24l2.02,3.24l2.02,2.83l2.02,3.24l1.21,2.43l1.62,2.83l0.81,2.83l0.81,2.02
	l0.4,2.02v2.02l-0.4,1.21v1.62l-0.81,0.81l-1.21,0.81h-3.24c-8.51-1.28-22.41-13.43-27.93-19.84l-2.43-2.83l-2.83-2.83l-2.02-3.24
	L549.6,212.31z"/>
<line class="st40" x1="568.22" y1="275.46" x2="605.06" y2="379.5"/>
<line class="st40" x1="496.16" y1="203" x2="450.82" y2="181.54"/>
<line class="st40" x1="490.5" y1="243.89" x2="486.85" y2="243.08"/>
<line class="st40" x1="492.12" y1="235.79" x2="488.88" y2="234.58"/>
<polyline class="st40" points="486.85,243.08 485.64,243.08 484.02,240.65 484.02,239.84 483.62,238.22 484.02,237 485.23,236.2 
	486.04,234.98 487.66,234.98 488.88,234.58 "/>
<line class="st40" x1="383.22" y1="596.08" x2="607.49" y2="392.86"/>
<line class="st40" x1="201.86" y1="579.08" x2="119.68" y2="460.87"/>
<line class="st40" x1="340.31" y1="610.65" x2="209.55" y2="583.94"/>
<line class="st40" x1="138.3" y1="390.03" x2="362.57" y2="186.81"/>
<line class="st40" x1="564.98" y1="278.7" x2="570.25" y2="273.84"/>
<line class="st40" x1="512.76" y1="210.29" x2="539.89" y2="186"/>
<line class="st40" x1="567.01" y1="270.2" x2="593.73" y2="245.51"/>
<g>
	<rect x="794.92" y="698.09" class="st20" width="93.51" height="42.91"/>
	<rect x="794.92" y="698.09" class="st20" width="93.51" height="42.91"/>
	<polygon class="st20" points="813.54,773.8 813.54,661.26 736.22,717.53 	"/>
</g>
<path class="st56" d="M649.87,379.84c0,7.73-6.27,14-14,14s-14-6.27-14-14c0-7.73,14-28.14,14-39.16
	C635.86,358.24,649.87,372.11,649.87,379.84z"/>
<path class="st56" d="M626.87,346.84c0,7.73-6.27,14-14,14s-14-6.27-14-14c0-7.73,14-28.14,14-39.16
	C612.86,325.24,626.87,339.11,626.87,346.84z"/>
<path class="st56" d="M619.87,410.84c0,7.73-6.27,14-14,14s-14-6.27-14-14c0-7.73,14-28.14,14-39.16
	C605.86,389.24,619.87,403.11,619.87,410.84z"/>
<path class="st56" d="M615.87,485.84c0,7.73-6.27,14-14,14s-14-6.27-14-14c0-7.73,14-28.14,14-39.16
	C601.86,464.24,615.87,478.11,615.87,485.84z"/>
<path class="st56" d="M641.87,520.84c0,7.73-6.27,14-14,14s-14-6.27-14-14s14-28.14,14-39.16
	C627.86,499.24,641.87,513.11,641.87,520.84z"/>
<path class="st56" d="M607.87,550.84c0,7.73-6.27,14-14,14s-14-6.27-14-14s14-28.14,14-39.16
	C593.86,529.24,607.87,543.11,607.87,550.84z"/>
<line x1="31.94" y1="280.27" x2="34.37" y2="277.04"/>
<line x1="25.06" y1="289.58" x2="27.08" y2="286.35"/>
<polyline class="st41" points="486.85,742.63 498.59,745.46 509.93,742.22 515.19,748.7 524.5,751.13 531.79,752.75 541.5,749.1 
	547.17,754.77 556.08,758.01 566.6,759.63 575.1,757.2 580.77,762.46 587.25,764.89 600.2,766.51 607.9,764.89 613.16,769.75 
	620.44,771.37 627.73,772.18 637.45,766.51 641.9,768.94 648.38,768.94 655.66,764.89 661.74,758.01 664.57,752.34 674.29,751.94 
	682.79,745.86 690.07,738.17 693.31,734.12 700.6,732.1 708.7,726.84 720.03,713.88 720.84,817.92 720.03,825.21 716.39,832.9 
	645.95,884.72 643.52,888.36 634.61,891.6 619.23,887.96 501.43,862.45 491.71,855.98 487.26,843.02 "/>
<path class="st42" d="M498.59,745.86l-11.33-2.83l0.4,99.99l4.45,12.55l9.72,6.48l117.4,25.1l15.38,4.05l8.5-3.24l2.02-3.64v-0.4
	h0.4l70.44-51.41l3.24-7.29l0.81-7.29l-0.81-102.01l-10.12,11.34v0.4l-8.1,4.86l-7.29,2.43l-2.83,3.64l-7.29,7.69l-8.91,6.48h-0.4
	l-9.31,0.4l-2.43,5.26l-6.48,7.29l-7.29,4.05h-7.29l-4.05-2.43l-9.31,5.26l-0.4,0.4l-7.29-0.81h-0.4l-6.88-1.62h-0.4v-0.4
	l-5.26-4.45l-7.29,1.21l-12.95-1.21h-0.4l-6.48-2.43l-5.26-5.26l-8.1,2.02h-0.4l-10.53-1.21h-0.4l-8.5-3.24h-0.4l-5.26-5.67
	l-9.31,3.24h-0.4l-7.29-1.62l-9.31-2.02h-0.4v-0.4l-5.26-6.07L499,745.86l-0.4,0.4 M486.85,741.82l11.74,2.83l10.93-3.24h0.4
	l0.4,0.4l5.67,6.07l8.91,2.43l6.88,1.62l9.72-3.24l0.4-0.4l0.4,0.4l5.26,5.67l8.5,2.83l10.53,1.62l8.5-2.43h0.4l5.67,5.26l6.07,2.83
	l12.95,1.21l7.29-1.62h0.81l5.26,4.86l6.88,2.02l6.88,0.4l9.72-5.26l0.4-0.4v0.4l4.45,2.02l6.07,0.4l6.88-4.05l6.48-6.88l2.43-5.26
	l0.41-0.4h0.4l9.72-0.4l8.1-6.48l7.29-7.29l2.83-4.05l0.4-0.4l7.29-2.02l7.69-4.86l11.33-12.95l1.21-1.21v1.62l1.21,104.04
	l-1.21,7.29v0.4l-3.24,7.69l-0.4,0.4l-70.44,51.41l-2.02,3.64l-0.4,0.4l-8.91,3.24h-0.4l-15.79-4.05l-117.4-25.1h-0.4l-9.72-6.48
	l-0.4-0.4l-4.45-13.36l-0.4-100.4v-1.21L486.85,741.82z"/>
<polyline class="st40" points="567.01,648.3 567.01,649.11 566.6,649.52 566.6,649.92 565.79,650.73 "/>
<path class="st40" d="M540.29,661.26l0.81-0.81c6.54-4.56,11.29-7.39,18.62-10.53l1.62-0.4"/>
<polyline class="st40" points="596.16,644.66 596.16,646.68 595.75,647.09 "/>
<path class="st40" d="M569.84,647.49l2.83-0.4c5-1.72,15.09-1.61,20.65-2.43h2.83"/>
<path class="st40" d="M667,660.85l-1.21-0.4c-15.9-2.17-31.45-6.35-46.96-10.53l-2.02-0.4"/>
<path class="st40" d="M596.16,644.66h2.43c22.51,0.92,43.26,11.14,65.58,13.36l1.62,0.4"/>
<polyline class="st40" points="584.82,651.95 584.82,649.52 584.42,648.71 584.42,647.9 "/>
<line class="st40" x1="654.04" y1="667.73" x2="584.82" y2="651.95"/>
<line class="st40" x1="560.94" y1="654.78" x2="546.77" y2="664.9"/>
<polyline class="st40" points="561.34,651.95 560.94,652.76 560.94,654.78 "/>
<path class="st40" d="M584.82,651.95l-1.62-0.4c-8.12-0.89-14.26-0.84-21.86,2.43l-0.4,0.81"/>
<line class="st40" x1="560.94" y1="670.16" x2="560.94" y2="654.78"/>
<line class="st40" x1="584.82" y1="651.95" x2="584.82" y2="675.02"/>
<path class="st40" d="M539.48,631.3l1.21-1.21l2.02-0.81l1.62-1.21c25.93-13.41,64.13-14.86,92.3-8.91l2.43,0.4l2.83,0.81
	c15.57,3.04,47.49,17.43,29.55,36.84l-2.43,2.43l-1.62,0.81l-1.62,1.21l-1.21,1.21c-12.22,6.48-21.66,8.98-35.22,11.33l-5.67,0.81
	c-16.19,1.41-28.72,1.73-44.94-0.81l-8.5-1.21c-15.07-3.21-52.51-15.73-36.03-37.24l3.64-3.64L539.48,631.3z"/>
<path class="st40" d="M538.67,660.04l1.62-0.81c27.49-19.53,87.5-18.92,117.8-5.26l1.62,1.21l2.02,0.81l1.62,0.81l3.24,2.43
	l1.62,0.81"/>
<path class="st40" d="M565.79,650.73h-1.62c-7.55,2.48-15.07,5.76-21.46,10.53l-1.21,0.81"/>
<path class="st40" d="M565.79,650.73l2.02-0.4c8.01-1.79,18.1-2.79,26.31-3.24h1.62"/>
<line class="st40" x1="667" y1="660.85" x2="667" y2="660.85"/>
<path class="st40" d="M616.8,649.52l-2.43-0.4c-5.5-1.66-11.27-2.25-17-2.02h-1.62"/>
<path class="st40" d="M641.9,710.64l-0.4-0.4v-0.81l-0.4-0.4l-2.83,0.4c-7.89,2.33-16.21,2.08-24.29,3.24h-3.24v0.4h0.4v0.81h3.24
	c7.48-0.58,14.01-1.26,21.46-2.43l3.24-0.4L641.9,710.64z"/>
<path class="st40" d="M610.73,712.67h-2.83c-14.69,1.27-29.79,3.84-44.53,1.62l-2.43-0.81l-1.62-0.4
	c-4.75-1.41-8.41-3.61-12.55-5.26l-2.43-1.62l-2.02-1.62l-2.02-1.21l-2.43-1.62l-1.62-1.21l-1.21-0.81l-1.62-1.62l-0.81-0.4
	l-1.21-0.81l-0.81-0.81l-0.4-0.81l-0.81-0.4l-0.81-0.81l-0.81-0.4v0.4h-0.4v0.4h-0.4l0.4,0.81c32.32,26.1,42.71,20.81,82.18,19.03
	l1.62-0.4"/>
<path class="st40" d="M519.24,681.09l-0.81,0.81h-0.4l0.4,1.62c1.22,3.74,4.24,7.15,6.88,10.12l1.62,0.81"/>
<path class="st40" d="M527.74,693.64l-1.21-1.21c-3.63-2.62-7.79-8.84-7.69-13.36v-0.81"/>
<polyline class="st40" points="518.84,676.23 518.43,676.64 518.03,677.45 518.03,678.66 517.62,679.47 517.62,680.28 
	518.03,681.09 518.03,681.9 "/>
<polyline class="st40" points="688.05,675.43 688.45,675.83 688.86,675.83 688.05,673.4 "/>
<path class="st40" d="M688.05,678.26v3.24l-0.4,1.62l-0.4,1.21l-0.4,2.02l-0.4,1.62l-2.43,4.86l-0.81,1.21l-1.21,1.62l-0.81,1.62
	l-1.62,0.81l-0.4,0.81l-0.4,0.81l-1.62,0.81l-0.81,0.81h-0.81l-0.81,0.81h-0.81l-0.81,0.81l-0.81,0.4l-1.62,0.4l-2.02,0.81
	l-2.02,0.4l-1.62,0.4l-2.43,0.4c-6.19,0.99-12.5,1.79-18.62,2.83h-1.21l-1.62,0.4"/>
<path class="st40" d="M641.9,710.64l2.43-0.81l1.62-0.4h1.62l2.43-0.81h2.43l1.62-0.4h1.21l4.86-0.81l2.02-0.4l2.43-0.4
	c5.34-2.22,6.66-1.01,11.33-4.45l0.81-0.4l1.21-0.4l0.81-0.81c6.56-6.02,10.54-14.52,10.53-23.48l-0.4-0.4v-0.81"/>
<path class="st40" d="M686.43,664.49l13.36,3.24c3.6-1.55,0.33-1.17,4.05-1.21h0.81"/>
<line class="st40" x1="699.79" y1="667.73" x2="688.86" y2="675.83"/>
<path class="st40" d="M641.9,710.64l-11.34,7.69l1.62,0.4c8.68,2.89,15.96,12,16.6,21.46v1.21l69.22-50.6v-1.62
	c-1.62-10.27-6.74-17.37-16.6-21.05l-1.62-0.4"/>
<line class="st40" x1="630.57" y1="718.34" x2="611.13" y2="713.88"/>
<path class="st40" d="M526.93,694.45L507.1,690l-1.62,1.62c-2.93,2.51-2.57,4.39-4.86,7.29l-0.4,1.21l-0.81,1.21
	c-0.71,4.07-2.25,7.91-2.43,12.14v2.83l123.88,28.34v-1.21c-0.36-6.78,3.81-20.22,9.31-24.29l0.4-0.81"/>
<path class="st40" d="M494.95,692.43l0.81-0.81c6.42-2.15,4.36-2.42,11.33-1.62l10.93-8.1"/>
<polyline class="st40" points="486.04,709.03 486.45,709.43 486.45,710.24 486.85,711.05 487.26,711.45 487.66,712.26 
	488.47,712.67 489.28,713.48 490.9,714.29 492.12,715.1 492.93,715.1 494.55,715.5 495.76,715.91 496.98,716.31 "/>
<polyline class="st40" points="718.01,690.81 719.22,689.59 719.63,688.78 720.03,688.38 720.03,687.57 720.44,687.16 
	720.44,686.76 "/>
<path class="st40" d="M620.85,744.65l1.21,0.4c8.23,1.71,18.29,0.93,25.91-2.83l0.81-0.81"/>
<line class="st40" x1="685.22" y1="662.07" x2="704.65" y2="666.52"/>
<line class="st40" x1="494.95" y1="692.43" x2="518.84" y2="674.62"/>
<path class="st40" d="M486.04,709.03l0.4-1.62c-0.12-4.67,3.35-11.02,6.88-14.17l1.62-0.81"/>
<path class="st40" d="M704.65,666.52l1.62,0.4c8.13,2.72,13.5,9.55,14.17,18.22v1.62"/>
<path class="st40" d="M679.95,656.4l3.64,3.64c8.65,10.33,3.79,21.62-6.48,28.34l-3.24,2.43c-18.51,10.34-41.35,14.55-62.34,14.98
	l-3.24,0.4h-9.72c-21.64-1.13-44.4-3.64-63.56-14.57l-2.02-0.81l-1.62-1.21c-10.96-6.71-17.49-18.46-8.1-29.55l3.64-3.64"/>
<line class="st40" x1="518.84" y1="678.26" x2="518.84" y2="671.38"/>
<line class="st40" x1="688.05" y1="678.26" x2="688.05" y2="671.38"/>
<line class="st40" x1="718.01" y1="690.81" x2="718.01" y2="824.4"/>
<line class="st40" x1="648.78" y1="875.41" x2="648.78" y2="741.41"/>
<line class="st40" x1="620.85" y1="744.65" x2="620.85" y2="878.65"/>
<line class="st40" x1="496.97" y1="850.31" x2="496.97" y2="716.31"/>
<line class="st40" x1="720.44" y1="820.35" x2="720.44" y2="686.76"/>
<line class="st40" x1="486.04" y1="843.02" x2="486.04" y2="709.03"/>
<polyline class="st40" points="720.44,820.35 720.44,821.16 720.03,821.57 720.03,822.38 719.22,823.18 718.82,823.99 718.01,824.4 
	648.78,875.41 "/>
<path class="st40" d="M626.11,891.19h-0.41l-1.62-0.81l-0.4-0.4l-0.81-1.62l-0.4-0.4l-0.4-1.21c-0.95-2.08-1.38-3.01-1.21-5.26
	v-2.83l-123.88-28.34v3.64l0.81,2.43v1.21l0.81,1.62l0.4,1.21l0.4,0.4l0.4,0.81l0.81,0.4l0.4,0.4l0.81,0.4h0.81"/>
<path class="st40" d="M496.97,850.31l-1.21-0.4c-2.66-0.52-9.2-3.2-9.31-6.48l-0.4-0.4"/>
<path class="st40" d="M711.93,836.95l1.21-0.81c4.28-4.2,3.43-5.28,4.86-10.12v-1.62"/>
<path class="st40" d="M648.78,875.41v1.21c-0.22,4.28-1.86,7.54-4.86,10.53l-0.81,0.81"/>
<path class="st40" d="M648.78,875.41l-1.62,0.81l-0.81,0.81l-2.43,0.81h-1.21l-2.43,0.81l-1.62,0.4l-1.21,0.4h-1.62
	c-4.44,0.6-7.73,0.37-12.14-0.4h-1.62l-1.21-0.4"/>
<path class="st40" d="M626.11,891.19l-123.47-28.34c-8.71-1.49-15.95-9.72-16.19-18.62l-0.4-1.21"/>
<path class="st40" d="M711.93,836.95l-68.82,51.01c-8.97,4.43-4.98,3.59-15.38,3.64l-1.62-0.4"/>
<path class="st40" d="M720.44,820.35v1.62c-0.84,6.89-2.11,9.26-7.29,14.17l-1.21,0.81"/>
<path class="st40" d="M536.65,630.49l1.62-1.21l1.62-0.81l2.02-0.81c24.98-14.74,68.88-15.52,96.75-9.72l2.83,0.81l2.83,0.4
	c16.66,4.06,49.43,19.14,29.15,39.27l-1.21,1.21l-1.21,0.81l-3.24,2.43c-25.42,15.49-66.82,16.7-95.54,11.74l-2.83-0.4l-2.43-0.81
	c-15.46-2.65-52.79-16.66-35.62-38.05l3.64-3.64L536.65,630.49z"/>
<path class="st40" d="M679.95,671.38v1.21l-0.41,1.21c-9.45,38.88-147.98,38.61-152.62-2.43v-25.5"/>
<line class="st40" x1="679.95" y1="671.38" x2="679.95" y2="645.87"/>
<path class="st58" d="M553.65,756.39c7.69,2.83,21.86,1.62,22.67-0.4c0,0,0.81,3.64,6.07,6.07c2.43,1.21,4.86,1.62,6.88,2.43"/>
<path class="st58" d="M585.63,763.27c6.88,3.24,22.27,1.62,22.67-0.4c0,0,0.81,4.45,6.07,6.07c2.43,0.81,4.86,1.62,6.48,2.43"/>
<path class="st58" d="M487.26,741.82c8.1,2.83,22.27,1.62,22.67-0.4c0,0,1.21,3.64,6.48,6.07c2.02,1.21,4.86,1.62,6.88,2.02"/>
<path class="st58" d="M519.24,748.7c7.29,3.24,22.27,1.62,22.67-0.4c0,0,1.21,4.45,6.48,6.07c2.43,0.81,4.86,2.02,6.48,2.43"/>
<path class="st58" d="M649.59,768.94c7.29-4.05,15.79-15.38,14.57-17c0,0,3.64,1.62,8.91-0.81c2.02-0.81,4.45-2.43,6.07-3.64"/>
<path class="st58" d="M677.12,749.51c7.29-4.05,15.79-15.38,14.57-17c0,0,3.64,1.62,8.91-0.81c2.02-0.81,4.45-2.83,6.07-3.24"/>
<path class="st58" d="M703.03,730.48c7.29-4.45,16.19-15.38,14.98-17.41"/>
<path class="st58" d="M620.85,771.37c6.48,0,16.19-4.45,16.19-6.07c0,0,1.62,2.43,6.07,3.24c1.62,0,4.05-0.4,5.26-0.4"/>
<polyline class="st40" points="582.39,822.78 582.8,822.37 583.2,821.16 583.61,820.76 583.61,819.54 583.2,819.95 582.8,821.16 
	582.8,821.97 582.39,822.78 581.58,823.59 581.18,823.59 579.56,824.4 578.75,823.99 "/>
<polyline class="st40" points="538.67,770.15 537.86,769.75 537.05,769.75 536.24,770.56 535.84,770.56 "/>
<polyline class="st40" points="583.61,785.13 583.61,784.32 582.8,781.89 582.39,781.08 579.96,779.87 579.15,779.06 "/>
<polyline class="st40" points="538.27,815.09 537.46,814.68 536.65,813.87 535.84,813.47 535.43,812.66 534.62,811.85 
	534.22,811.04 534.22,809.83 534.22,809.02 "/>
<polyline class="st40" points="579.15,779.06 578.75,779.87 579.56,779.87 581.18,780.68 581.58,781.89 582.39,782.7 582.8,783.92 
	582.8,784.32 583.2,785.54 583.61,785.13 "/>
<line class="st40" x1="538.27" y1="770.15" x2="538.67" y2="770.15"/>
<polyline class="st40" points="534.22,774.2 534.22,772.58 534.62,771.77 535.43,770.96 535.84,770.56 536.65,770.56 537.46,770.15 
	538.27,770.15 "/>
<line class="st40" x1="581.58" y1="823.59" x2="582.39" y2="822.78"/>
<line class="st40" x1="535.43" y1="770.96" x2="535.84" y2="770.56"/>
<line class="st40" x1="538.67" y1="770.15" x2="579.15" y2="779.06"/>
<line class="st40" x1="583.61" y1="785.13" x2="583.61" y2="819.54"/>
<line class="st40" x1="538.27" y1="815.09" x2="578.75" y2="823.99"/>
<line class="st40" x1="578.75" y1="779.87" x2="538.27" y2="770.15"/>
<line class="st40" x1="534.22" y1="774.2" x2="534.22" y2="809.02"/>
<line class="st40" x1="583.2" y1="819.95" x2="583.2" y2="785.54"/>
<path d="M548.96,788.2c0.43,0,0.87,0.43,0.43,0.87c-0.43,0.43-0.87,0.87-1.3,0.43l-2.6-0.43c-0.87,0-1.3,0-2.17,0.43
	c-0.43,0.43-0.87,0.87-1.3,1.73l-3.9,8.23c-0.43,0.87-0.43,1.3-0.43,1.73c0.43,0.43,0.87,0.87,1.3,0.87l3.03,0.87
	c0.43,0,0.43,0.87,0,1.3c0,0.43-0.43,0.43-0.87,0.43l-3.03-0.43c-0.87-0.43-1.73-0.87-1.73-2.17c-0.43-0.87-0.43-1.73,0.43-3.03
	l3.9-8.23c0.43-1.3,1.3-1.73,2.6-2.6c0.87-0.87,1.73-0.87,3.03-0.87"/>
<path d="M551.99,789.93c0-0.43,0.43-0.43,0.87-0.43c0.43,0,0.87,0,0.43,0.87l-6.5,13.43c0,0.43,0,0.87,0.43,0.87
	c0,0,0.43,0.43,0,0.87c-0.43,0.43-0.43,0.87-0.87,0.87c-0.87-0.43-1.3-0.87-1.3-1.3c0-0.43,0-0.87,0.43-1.73"/>
<path d="M553.29,802.5l-0.43,1.73c-0.43,0.43-0.43,0.43-0.43,0.87c0,0.43,0.43,0.87,0.87,0.87l3.47,0.87c0.43,0,0.43,0.43,0.43,0.87
	c-0.43,0.43-0.87,0.87-1.3,0.87l-3.47-0.87c-0.87,0-1.3-0.87-1.73-1.73c0-0.43,0-1.3,0.43-2.17l2.17-4.33
	c0.43-0.87,1.3-2.17,2.6-2.6c0.87-0.87,2.17-0.87,2.6-0.87c1.3,0.43,1.73,0.87,2.17,1.73c0,1.3,0,2.17-0.43,3.47l-1.3,2.6
	 M558.06,797.73c-0.87,0-1.3,0-2.17,0.43c-0.43,0.43-0.87,1.3-1.3,1.73l-0.43,0.87l3.9,0.87l0.43-0.87c0.43-0.43,0.43-1.3,0.43-1.73
	C558.92,798.16,558.49,797.73,558.06,797.73z"/>
<path d="M567.59,805.1l-3.03-0.43c-0.43,0-0.87,0-1.3,0c-0.43,0.43-0.43,0.87-0.87,1.3c0,0.43-0.43,0.87,0,1.3
	c0,0.43,0.43,0.43,0.43,0.87l3.03,0.43 M561.96,809.43c-0.43,0-0.87-0.87-1.3-1.3c0-0.87,0-1.3,0.43-2.6
	c0.43-0.43,0.43-0.87,1.3-1.3c0.87-1.3,2.17-1.3,3.03-1.3l3.03,0.87l0.43-1.73c0.43-0.43,0.43-1.3,0.43-1.3
	c-0.43-0.43-0.43-0.87-0.87-0.87l-2.6-0.43c-0.43-0.43-0.43-0.43-0.43-1.3c0-0.43,0.43-0.87,1.3-0.87l2.6,0.87
	c0.87,0,1.3,0.87,1.3,1.73c0.43,0.87,0.43,1.3,0,2.17l-3.9,7.8c0,0.43-0.87,0.43-0.87,0.43L561.96,809.43z"/>
<path d="M569.32,810.73l4.77-9.97c0.43-0.43,0.87-0.87,1.3-0.87l3.47,0.87c0.87,0,1.3,0.87,1.3,1.3c0,0.87,0,2.17,0,2.6l-3.9,7.37
	c0,0.87-0.43,0.87-0.87,0.87c-0.87,0-0.87-0.43-0.43-0.87l3.47-7.37c0.43-0.43,0.43-0.87,0.43-1.73c-0.43,0-0.43-0.43-0.87-0.43
	l-3.03-0.87l-4.33,9.53c-0.43,0.43-0.43,0.87-0.87,0.43C568.89,811.6,568.89,811.6,569.32,810.73"/>
</svg>
