<?xml version="1.0" encoding="utf-8"?>
<!-- Generator: Adobe Illustrator 23.0.1, SVG Export Plug-In . SVG Version: 6.00 Build 0)  -->
<svg version="1.1" id="Layer_1" xmlns="http://www.w3.org/2000/svg" xmlns:xlink="http://www.w3.org/1999/xlink" x="0px" y="0px"
	 viewBox="0 0 1000 1000" style="enable-background:new 0 0 1000 1000;" xml:space="preserve">
<style type="text/css">
	.st0{fill:#AFB1B4;}
	.st1{fill:#CED0D1;}
	.st2{fill:none;stroke:#151616;stroke-width:0.9901;stroke-miterlimit:10;}
	.st3{fill:none;stroke:#000000;stroke-width:6.5611;stroke-miterlimit:10;}
	.st4{fill-rule:evenodd;clip-rule:evenodd;fill:#070A09;}
	.st5{fill-rule:evenodd;clip-rule:evenodd;fill:#009933;}
	.st6{fill:none;stroke:#000000;stroke-width:0.9901;stroke-miterlimit:10;}
	.st7{fill:none;stroke:#000000;stroke-width:0.9901;stroke-linecap:round;stroke-linejoin:round;stroke-miterlimit:10;}
	.st8{fill:none;stroke:#000000;stroke-width:1.3048;stroke-linecap:round;stroke-linejoin:round;stroke-miterlimit:10;}
	.st9{fill:none;stroke:#151616;stroke-width:1.3048;stroke-miterlimit:10;}
	.st10{fill-rule:evenodd;clip-rule:evenodd;fill:#FCFCFC;}
	.st11{fill:none;stroke:#FEFEFE;stroke-width:1.3048;stroke-miterlimit:10;}
	.st12{fill:none;stroke:#000000;stroke-width:1.1967;stroke-linecap:round;stroke-linejoin:round;stroke-miterlimit:10;}
	.st13{fill-rule:evenodd;clip-rule:evenodd;fill:#FFFFFF;}
	.st14{fill:none;stroke:#151616;stroke-width:1.1967;stroke-miterlimit:10;}
	.st15{fill-rule:evenodd;clip-rule:evenodd;}
	.st16{fill:none;stroke:#000000;stroke-width:1.1967;stroke-miterlimit:10;}
	.st17{fill:#FFFFFF;}
	.st18{fill-rule:evenodd;clip-rule:evenodd;fill:none;}
	.st19{fill:none;stroke:#009933;stroke-width:6.9903;stroke-miterlimit:10;}
	.st20{fill:#009933;}
	.st21{fill:none;stroke:#009933;stroke-width:15.3786;stroke-miterlimit:10;}
	.st22{fill:none;stroke:#000000;stroke-width:0.9613;stroke-linecap:round;stroke-linejoin:round;stroke-miterlimit:10;}
	.st23{fill:none;stroke:#151616;stroke-width:1.049;stroke-miterlimit:10;}
	.st24{fill:#151616;}
	.st25{fill:none;stroke:#000000;stroke-width:0.9613;stroke-miterlimit:10;}
	.st26{fill:none;stroke:#151616;stroke-width:0.9613;stroke-miterlimit:10;}
	.st27{fill:none;stroke:#151616;stroke-width:0.225;stroke-miterlimit:10;}
	.st28{fill:none;stroke:#000000;stroke-width:0.9932;stroke-linecap:round;stroke-linejoin:round;stroke-miterlimit:10;}
	.st29{fill:none;stroke:#151616;stroke-width:0.9932;stroke-miterlimit:10;}
	.st30{fill:none;stroke:#FEFEFE;stroke-width:0.9932;stroke-miterlimit:10;}
	.st31{fill:none;stroke:#151616;stroke-width:0.9932;stroke-linecap:round;stroke-linejoin:round;stroke-miterlimit:10;}
	.st32{fill:none;stroke:#151616;stroke-width:1.2586;stroke-miterlimit:10;}
	.st33{fill:none;stroke:#000000;stroke-width:1.625;stroke-linecap:round;stroke-linejoin:round;stroke-miterlimit:10;}
	.st34{fill:#8F9194;}
	.st35{fill:none;stroke:#151616;stroke-width:1.159;stroke-miterlimit:10;}
	.st36{fill:#AFB1B4;stroke:#000000;stroke-width:1.115;stroke-miterlimit:10;}
	.st37{fill:none;stroke:#009933;stroke-width:7.5778;stroke-miterlimit:10;}
	.st38{fill:none;stroke:#009933;stroke-width:16.6712;stroke-miterlimit:10;}
	.st39{fill:#FFFFFF;stroke:#151616;stroke-width:1.2586;stroke-miterlimit:10;}
	.st40{fill:none;stroke:#000000;stroke-width:1.5181;stroke-linecap:round;stroke-linejoin:round;stroke-miterlimit:10;}
	.st41{fill-rule:evenodd;clip-rule:evenodd;fill:#C8C8C8;}
	.st42{fill:#C7C7C7;}
	.st43{fill:none;stroke:#000000;stroke-width:1.5079;stroke-linecap:round;stroke-linejoin:round;stroke-miterlimit:10;}
	.st44{fill:none;stroke:#151616;stroke-width:1.5079;stroke-miterlimit:10;}
	.st45{fill:none;stroke:#000000;stroke-width:0.9814;stroke-linecap:round;stroke-linejoin:round;stroke-miterlimit:10;}
	.st46{fill:none;stroke:#151616;stroke-width:0.9814;stroke-miterlimit:10;}
	.st47{fill:none;stroke:#FEFEFE;stroke-width:0.9814;stroke-miterlimit:10;}
	.st48{fill:none;stroke:#151616;stroke-width:0.9814;stroke-linecap:round;stroke-linejoin:round;stroke-miterlimit:10;}
	.st49{fill:none;stroke:#151616;stroke-width:0.6983;stroke-miterlimit:10;}
	.st50{fill:none;stroke:#151616;stroke-width:4.1862;stroke-miterlimit:10;}
	.st51{fill:none;stroke:#000000;stroke-width:0.785;stroke-linecap:round;stroke-linejoin:round;stroke-miterlimit:10;}
	.st52{fill:none;stroke:#151616;stroke-width:0.785;stroke-miterlimit:10;}
	.st53{fill:none;stroke:#000000;stroke-width:1.0776;stroke-linecap:round;stroke-linejoin:round;stroke-miterlimit:10;}
	.st54{fill:none;stroke:#151616;stroke-width:1.0776;stroke-miterlimit:10;}
	.st55{fill-rule:evenodd;clip-rule:evenodd;fill:#009933;stroke:#009933;stroke-miterlimit:10;}
	.st56{fill:#CED0D1;stroke:#000000;stroke-width:1.115;stroke-miterlimit:10;}
	.st57{fill:#C8C8C8;}
	.st58{fill:none;stroke:#151616;stroke-width:1.5181;stroke-miterlimit:10;}
	.st59{clip-path:url(#SVGID_4_);}
	.st60{clip-path:url(#SVGID_6_);}
	.st61{clip-path:url(#SVGID_8_);}
	.st62{clip-path:url(#SVGID_10_);}
	.st63{clip-path:url(#SVGID_14_);}
	.st64{clip-path:url(#SVGID_16_);}
	.st65{clip-path:url(#SVGID_18_);}
	.st66{clip-path:url(#SVGID_20_);}
	.st67{clip-path:url(#SVGID_24_);}
	.st68{clip-path:url(#SVGID_26_);}
	.st69{clip-path:url(#SVGID_28_);}
	.st70{clip-path:url(#SVGID_30_);}
	.st71{clip-path:url(#SVGID_34_);}
	.st72{clip-path:url(#SVGID_38_);}
	.st73{clip-path:url(#SVGID_42_);}
	.st74{clip-path:url(#SVGID_46_);}
	.st75{clip-path:url(#SVGID_48_);}
	.st76{clip-path:url(#SVGID_50_);}
	.st77{clip-path:url(#SVGID_52_);}
	.st78{fill:#7A7A7A;}
	.st79{clip-path:url(#SVGID_56_);}
	.st80{clip-path:url(#SVGID_58_);}
	.st81{clip-path:url(#SVGID_60_);}
	.st82{clip-path:url(#SVGID_62_);}
	.st83{clip-path:url(#SVGID_66_);}
	.st84{clip-path:url(#SVGID_68_);}
	.st85{clip-path:url(#SVGID_70_);}
	.st86{clip-path:url(#SVGID_72_);}
	.st87{clip-path:url(#SVGID_76_);}
	.st88{clip-path:url(#SVGID_78_);}
	.st89{clip-path:url(#SVGID_80_);}
	.st90{clip-path:url(#SVGID_82_);}
	.st91{clip-path:url(#SVGID_86_);}
	.st92{clip-path:url(#SVGID_88_);}
	.st93{clip-path:url(#SVGID_90_);fill:#FFFFFF;}
	.st94{clip-path:url(#SVGID_92_);}
	.st95{clip-path:url(#SVGID_94_);}
	.st96{clip-path:url(#SVGID_96_);}
	.st97{clip-path:url(#SVGID_98_);}
	.st98{clip-path:url(#SVGID_102_);}
	.st99{clip-path:url(#SVGID_104_);}
	.st100{clip-path:url(#SVGID_106_);fill:#FFFFFF;}
	.st101{clip-path:url(#SVGID_108_);}
	.st102{clip-path:url(#SVGID_110_);}
	.st103{clip-path:url(#SVGID_112_);}
	.st104{clip-path:url(#SVGID_114_);}
	.st105{clip-path:url(#SVGID_118_);}
	.st106{clip-path:url(#SVGID_120_);}
	.st107{clip-path:url(#SVGID_122_);}
</style>
<rect x="794.92" y="698.09" class="st20" width="93.51" height="42.91"/>
<rect x="794.92" y="698.09" class="st20" width="93.51" height="42.91"/>
<polygon class="st20" points="813.54,773.8 813.54,661.26 736.22,717.53 "/>
<polyline class="st41" points="485.1,751.61 496.76,754.42 508.02,751.21 513.25,757.64 522.49,760.05 530.13,761.66 539.38,758.44 
	545.01,763.67 553.86,766.89 564.31,768.5 572.76,766.08 577.98,771.31 584.82,774.13 597.69,775.33 605.33,773.72 610.55,778.55 
	617.79,780.56 625.03,780.96 634.28,775.33 639.1,778.15 645.54,778.15 652.77,774.13 658.81,766.89 661.62,761.66 671.27,761.26 
	680.12,754.83 687.36,747.19 690.17,743.16 697.41,741.15 705.05,735.93 716.31,723.46 717.51,826.4 716.71,833.64 713.09,841.28 
	643.12,892.75 640.71,896.36 632.27,899.58 616.18,895.96 499.58,871.03 489.92,864.2 485.5,851.33 "/>
<path class="st42" d="M496.36,755.23l-10.86-2.81l0.4,98.92l4.42,12.47l9.25,6.43l117.01,24.93l15.28,4.02l8.04-3.22l2.41-3.62
	l0.4-0.4l69.97-50.66l3.22-7.64l0.8-7.24l-0.8-101.33l-10.05,11.26l-0.4,0.4l-7.64,4.83l-7.24,2.41l-2.81,3.62l-7.24,7.64
	l-8.85,6.43h-0.4l-9.25,0.4l-2.41,5.23l-6.43,7.24l-7.24,4.02v0.4h-0.4l-6.43-0.4h-0.4l-4.42-2.41l-8.85,5.63h-0.4l-7.24-0.8
	l-7.64-1.61l-5.23-4.83l-6.84,1.61h-0.4l-12.87-1.61h-0.4l-6.43-2.41v-0.4l-5.63-4.83l-8.04,2.01l-10.45-1.21h-0.4l-8.85-3.22
	l-5.23-5.63l-9.25,3.22h-0.4l-7.24-1.21l-9.25-2.41h-0.4v-0.4l-5.23-6.03l-10.86,3.22 M485.1,750.8l11.66,2.81l10.86-3.22h0.4
	l0.4,0.4l5.23,6.03l9.25,2.41l6.84,1.61l9.65-3.22l0.4-0.4l0.4,0.4l5.23,5.63l8.44,3.22l10.45,1.21l8.44-2.41h0.4v0.4l5.23,4.83
	l6.43,2.81l12.87,1.21l7.24-1.61h0.4l5.63,4.83l6.84,2.01l7.24,0.4l8.85-5.23l0.4-0.4l0.4,0.4l4.42,2.41h6.43l6.84-4.02l6.03-6.84
	l2.41-5.23l0.4-0.4h0.4l9.25-0.4l8.44-6.43l7.24-7.24l3.22-4.02v-0.4h0.4l6.84-2.01l7.64-4.83l11.26-12.87l1.21-1.21v2.01
	l1.21,102.94l-0.8,7.24v0.4h-0.4l-3.22,7.64v0.4h-0.4l-69.97,51.07l-2.41,3.62v0.4h-0.4l-8.44,3.22h-0.4l-15.68-3.62l-117.01-25.33
	l-9.65-6.43h-0.4v-0.4l-4.42-12.87v-0.4l-0.4-99.72v-1.21L485.1,750.8z"/>
<polyline class="st43" points="564.31,657.92 564.31,659.93 563.91,659.93 563.51,660.33 "/>
<path class="st43" d="M537.77,670.79l1.21-0.8c6.24-4.16,11.14-7.89,18.5-10.05l1.21-0.8"/>
<line class="st43" x1="593.67" y1="654.3" x2="593.67" y2="656.71"/>
<path class="st43" d="M567.53,657.12l2.81-0.4c5.54-1.33,14.68-1.8,20.51-2.41h2.81"/>
<path class="st43" d="M664.03,670.39h-1.21c-15.97-2.94-31.27-6.51-47.05-10.86l-1.61-0.4"/>
<path class="st43" d="M593.67,654.3h2.41c21.91,0.82,41.76,11,65.14,13.27l1.61,0.4"/>
<polyline class="st43" points="582.01,661.54 582.01,658.32 581.6,657.52 "/>
<line class="st43" x1="651.17" y1="677.22" x2="582.01" y2="661.54"/>
<line class="st43" x1="558.28" y1="664.35" x2="544.61" y2="674.81"/>
<polyline class="st43" points="558.68,661.54 558.68,662.34 558.28,663.15 558.28,664.35 "/>
<path class="st43" d="M582.01,661.54l-0.8-0.4c-8.17-0.91-14.48-0.64-22.12,2.41l-0.8,0.8"/>
<line class="st43" x1="558.28" y1="680.04" x2="558.28" y2="664.35"/>
<line class="st43" x1="582.01" y1="661.54" x2="582.01" y2="684.46"/>
<path class="st43" d="M536.97,641.03l1.61-1.21l1.61-0.8l2.01-1.21c24.36-13.07,64.85-14.77,91.28-8.85l2.81,0.4l2.81,0.8l2.41,0.8
	c10.19,2.53,20.17,6.74,27.74,14.07l1.61,2.41c4.81,6.04,2.93,12.81-1.21,18.5l-1.21,0.8l-2.41,2.41l-1.61,0.8l-1.61,1.21
	c-22.92,15.04-62.86,16.8-89.27,12.06l-5.63-0.8c-14.96-2.85-52.29-15.67-35.79-36.99l1.21-0.8l1.21-1.61l1.21-0.8L536.97,641.03z"
	/>
<path class="st43" d="M536.57,669.58l1.21-0.8c27.68-19.08,86.85-18.97,117.01-5.23l2.01,1.21l2.01,0.8l1.61,0.8l1.61,1.21
	l2.01,1.21l1.21,0.8"/>
<path class="st43" d="M563.51,660.33l-1.61,0.4c-7.06,1.68-15.66,5.56-21.31,10.05l-1.21,0.8"/>
<path class="st43" d="M563.51,660.33l1.61-0.4c8.48-1.64,17.91-2.54,26.54-3.22h2.01"/>
<line class="st43" x1="664.03" y1="670.39" x2="664.03" y2="670.39"/>
<path class="st43" d="M614.17,659.13l-2.41-0.4c-6.34-1.3-10.24-2.1-16.89-2.01h-1.21"/>
<path class="st43" d="M639.1,719.84l-0.4-0.4v-1.21l-2.81,0.8c-8.46,1.31-16.13,1.9-24.53,2.81h-2.81v1.61l3.22-0.4
	c6.49-0.02,14.68-1.68,21.31-2.41l3.22-0.4L639.1,719.84z"/>
<path class="st43" d="M608.54,721.85h-1.61c-38.04,3.14-49.73,8.04-80.42-18.09l-0.8-0.8v0.4l-0.4,0.4h-0.4l-0.4,0.4l0.8,0.4
	c32.41,26.05,42.07,20.65,81.63,18.9h1.61"/>
<path class="st43" d="M516.87,690.49v0.4l-0.8,0.8l0.4,1.21c1.04,4.07,3.8,7.26,6.84,10.05l1.21,1.21"/>
<polyline class="st43" points="525.71,702.96 524.1,701.75 522.9,700.54 522.09,699.34 519.68,696.92 519.28,695.72 518.47,694.11 
	517.67,693.3 517.27,691.7 516.87,690.49 516.87,688.48 516.46,687.68 "/>
<polyline class="st43" points="516.46,685.66 516.46,686.47 516.06,686.87 516.06,688.08 515.66,688.88 515.66,689.69 
	516.06,690.49 516.06,691.7 "/>
<polyline class="st43" points="684.94,685.26 685.75,685.26 685.34,684.06 684.94,682.85 "/>
<path class="st43" d="M684.94,687.68v0.8c-0.41,7.06-2.95,13.92-8.04,18.9l-0.8,0.8l-0.8,0.8l-0.8,0.4l-0.4,0.8l-4.83,2.41
	l-2.01,0.8l-3.22,0.8l-2.41,0.4l-1.61,0.4c-6.18,1.2-12.68,1.66-18.9,2.81h-1.21l-1.21,0.4"/>
<path class="st43" d="M639.1,719.84l1.21-0.4l1.61-0.4h1.21c4.47-1.4,9.08-1.43,13.67-2.41l4.83-0.8l2.01-0.4l2.01-0.8l1.21-0.4h0.8
	l0.8-0.4l1.21-0.4l1.61-0.8l0.8-0.8l2.41-1.21l0.8-0.8l0.8-0.4c2.57-2.16,4.2-4.91,6.03-7.64l0.8-1.61l0.8-2.01
	c1.43-2.76,2.23-7.61,2.01-10.86v-2.01"/>
<polyline class="st43" points="683.33,674.41 696.6,677.22 698.21,676.42 698.61,676.42 699.42,676.01 701.43,676.01 "/>
<line class="st43" x1="696.6" y1="677.22" x2="685.75" y2="685.26"/>
<path class="st43" d="M639.1,719.84l-11.26,8.04h1.61c9.5,3.83,15.31,11.12,16.49,21.31v1.21l68.76-50.26v-1.61l-0.4-1.21v-1.61
	l-0.4-1.61l-0.4-1.21l-0.8-1.21l-0.8-1.61l-0.4-1.21l-1.61-2.41l-1.21-1.61c-2.91-3.74-5.39-4.73-9.25-6.84l-1.21-0.4l-1.61-0.4"/>
<line class="st43" x1="627.84" y1="727.89" x2="608.54" y2="723.46"/>
<path class="st43" d="M524.51,704.16l-19.3-4.42c-6.67,4.79-9.98,16.58-10.05,24.53v1.21l123.04,28.15v-1.21
	c-0.27-7.34,3.71-18.92,8.85-24.13l0.8-0.4"/>
<path class="st43" d="M492.74,701.75l1.21-0.8c4.52-1.8,6.37-2.43,11.26-1.21l10.86-8.04"/>
<polyline class="st43" points="484.7,718.23 484.7,719.44 485.1,720.25 485.5,721.05 485.9,721.45 486.71,721.85 487.51,722.66 
	488.32,723.06 489.12,723.86 490.33,724.27 491.53,724.27 492.34,724.67 493.54,725.07 495.15,725.47 "/>
<path class="st43" d="M714.7,700.14l0.8-0.4c0.43-1.09,1.62-1.96,1.61-3.22v-0.4"/>
<path class="st43" d="M618.19,753.62l1.21,0.4c8.58,1.73,17.76,1.1,25.73-2.81l0.8-0.8"/>
<line class="st43" x1="681.73" y1="671.59" x2="701.43" y2="676.01"/>
<line class="st43" x1="492.74" y1="701.75" x2="516.46" y2="684.06"/>
<path class="st43" d="M484.7,718.23v-1.61c-0.32-4.13,3.36-12.1,7.24-13.67l0.8-1.21"/>
<path class="st43" d="M701.43,676.01l1.21,0.4c7.99,1.92,13.89,9.93,14.48,18.09v1.61"/>
<path class="st43" d="M676.9,665.96l2.41,2.41c27.47,33.7-53.51,48.63-73.58,47.05h-6.43c-19.54,2.35-105.13-12.51-76.8-47.05
	l0.8-1.21l1.61-1.21"/>
<line class="st43" x1="516.46" y1="687.68" x2="516.46" y2="680.84"/>
<line class="st43" x1="684.94" y1="687.68" x2="684.94" y2="680.84"/>
<line class="st43" x1="714.7" y1="700.14" x2="714.7" y2="832.83"/>
<line class="st43" x1="645.94" y1="883.5" x2="645.94" y2="750.4"/>
<line class="st43" x1="618.19" y1="753.62" x2="618.19" y2="886.71"/>
<line class="st43" x1="495.15" y1="858.57" x2="495.15" y2="725.47"/>
<line class="st43" x1="717.11" y1="828.81" x2="717.11" y2="696.12"/>
<line class="st43" x1="484.7" y1="851.33" x2="484.7" y2="718.23"/>
<polyline class="st43" points="717.11,828.81 717.11,830.02 716.71,830.82 716.31,831.22 715.9,831.63 715.5,832.43 714.7,832.83 
	645.94,883.5 "/>
<path class="st43" d="M623.42,899.58l-0.8-0.4l-0.8-0.8l-0.8-0.4l-0.8-1.61l-0.4-0.4l-0.4-1.21l-0.4-0.8l-0.4-1.21v-0.8l-0.4-1.61
	v-3.62l-123.04-28.15v1.21c0.29,3.94,0.62,9.4,4.83,11.26h0.4"/>
<path class="st43" d="M495.15,858.57l-1.61-0.4c-2.82-1.03-8.54-2.96-8.85-6.43v-0.4"/>
<polyline class="st43" points="708.67,845.3 709.87,844.49 711.48,842.89 711.88,841.68 712.69,840.88 713.49,839.67 713.89,838.46 
	714.3,837.26 714.3,835.65 714.7,834.44 714.7,832.83 "/>
<polyline class="st43" points="645.94,883.5 645.94,885.91 645.54,887.52 644.73,889.93 643.93,891.14 643.53,892.34 643.12,893.15 
	641.11,895.16 639.91,895.96 "/>
<path class="st43" d="M645.94,883.5l-0.8,0.4l-0.8,0.8c-3.59,1.62-4.69,1-8.44,2.41l-1.61,0.4h-1.21c-4.18,0.62-8.32,0.29-12.47-0.4
	h-1.21l-1.21-0.4"/>
<path class="st43" d="M623.42,899.58l-123.04-28.55l-1.21-0.4c-3.14-0.39-5.86-2.22-8.04-4.42l-2.01-2.01
	c-2.45-4.71-3.25-4.18-4.42-10.05v-2.81"/>
<path class="st43" d="M708.67,845.3l-68.76,50.66c-4.12,3.61-9.6,3.97-14.88,3.62h-1.61"/>
<path class="st43" d="M717.11,828.81v1.61c-0.86,6.09-2.52,9.9-7.24,14.07l-1.21,0.8"/>
<path class="st43" d="M534.56,640.63l3.22-2.41l2.01-0.8c24.05-14.44,69.2-15.61,96.1-9.25l2.81,0.4l2.41,0.8
	c16.35,3.12,49.05,18.34,29.76,38.6l-3.22,2.41l-1.21,0.8l-1.61,1.21c-24.34,15.18-67.29,17.04-94.9,11.66l-5.63-0.8
	c-15.34-3.69-52.02-16.49-34.98-38.2l3.62-3.62L534.56,640.63z"/>
<path class="st43" d="M676.9,680.84v1.21l-0.4,1.21c-9.36,38.77-147.39,38.39-151.59-2.41v-24.93"/>
<line class="st43" x1="676.9" y1="680.84" x2="676.9" y2="655.91"/>
<path class="st44" d="M551.45,765.28c7.64,2.81,21.71,1.61,22.52-0.4c0,0,0.8,3.62,6.03,6.03c2.01,1.21,4.83,1.61,6.84,2.41"/>
<path class="st44" d="M582.81,772.12c7.24,3.22,22.52,1.61,22.92-0.4c0,0,0.8,4.42,6.43,6.03c2.01,0.8,4.42,1.61,6.03,2.41"/>
<path class="st44" d="M485.5,750.8c8.04,2.81,22.12,1.61,22.52-0.4c0,0,1.21,3.62,6.43,6.03c2.01,1.21,4.83,2.01,6.43,2.41"/>
<path class="st44" d="M517.27,757.64c6.84,3.22,22.12,1.61,22.92-0.4c0,0,0.4,4.42,6.03,6.03c2.01,0.8,4.42,2.01,6.43,2.41"/>
<path class="st44" d="M646.74,777.75c6.84-4.02,15.68-15.28,14.48-16.89c0,0,3.62,1.61,8.85-0.8c2.01-0.8,4.42-2.41,6.03-3.22"/>
<path class="st44" d="M674.09,758.44c6.84-4.02,15.68-15.28,14.48-16.89c0,0,3.62,1.61,8.85-0.8c2.01-0.8,4.42-2.41,6.03-3.22"/>
<path class="st44" d="M699.82,739.55c7.24-4.02,15.68-15.28,14.88-17.29"/>
<path class="st44" d="M618.19,780.16c6.43,0,16.08-4.02,15.68-5.63c0,0,2.01,2.01,6.43,2.81c1.61,0,4.02,0,5.23,0"/>
<polyline class="st43" points="578.79,831.63 579.19,831.22 579.59,830.42 579.99,829.62 579.99,828.41 579.59,828.81 
	579.19,830.02 579.19,830.82 578.79,831.63 577.98,832.43 577.58,832.43 575.97,833.24 575.17,833.24 "/>
<polyline class="st43" points="535.76,779.35 534.56,779.35 533.75,778.95 532.95,779.76 532.55,779.76 "/>
<polyline class="st43" points="579.99,794.23 579.99,793.43 579.19,791.01 578.79,790.61 577.98,789.81 576.38,789 575.57,788.2 "/>
<polyline class="st43" points="534.96,823.99 534.16,823.58 533.35,822.78 532.55,822.38 532.15,821.57 531.34,820.77 
	530.94,819.97 530.94,818.76 530.94,817.96 "/>
<polyline class="st43" points="575.57,788.2 575.17,789 575.97,789 576.78,789.81 577.58,789.81 577.98,791.01 578.79,791.82 
	579.19,793.03 579.19,793.43 579.59,794.63 579.99,794.23 "/>
<line class="st43" x1="534.96" y1="779.35" x2="535.76" y2="779.35"/>
<polyline class="st43" points="530.94,783.37 530.94,781.77 531.34,780.96 532.15,780.56 532.55,779.76 533.35,779.35 
	534.16,779.35 534.96,779.35 "/>
<line class="st43" x1="577.98" y1="832.43" x2="578.79" y2="831.63"/>
<line class="st43" x1="532.15" y1="780.56" x2="532.55" y2="779.76"/>
<line class="st43" x1="535.76" y1="779.35" x2="575.57" y2="788.2"/>
<line class="st43" x1="579.99" y1="794.23" x2="579.99" y2="828.41"/>
<line class="st43" x1="534.96" y1="823.99" x2="575.17" y2="833.24"/>
<line class="st43" x1="575.17" y1="789" x2="534.96" y2="779.35"/>
<line class="st43" x1="530.94" y1="783.38" x2="530.94" y2="817.96"/>
<line class="st43" x1="579.59" y1="828.81" x2="579.59" y2="794.63"/>
<path d="M536.97,809.51l5.63,1.21c0.4,0,0.4,0.4,0,0.8c0,0.8-0.4,0.8-0.8,0.8l-6.43-1.61c-0.4,0-0.4-0.4,0-0.8c0,0,0,0,0-0.4
	l12.06-11.26l-5.23-1.21c-0.8,0-0.8-0.4-0.4-0.8c0.4-0.4,0.4-0.8,1.21-0.4l6.03,1.21c0.4,0,0.4,0.4,0.4,0.8l-0.4,0.4"/>
<path d="M548.23,808.71l-0.8,1.61c-0.4,0.4-0.4,0.8,0,1.21c0,0.4,0.4,0.4,0.4,0.4l3.62,0.8c0,0.4,0,0.8,0,1.21
	c-0.4,0.4-0.8,0.4-0.8,0.4l-3.62-0.4c-0.4-0.4-0.8-0.8-1.21-1.61c0-0.8,0-1.61,0.4-2.01l2.01-4.02c0.4-1.21,1.21-2.01,2.01-2.41
	c0.8-0.8,2.01-0.8,2.81-0.8c0.8,0.4,1.21,0.8,1.61,1.61c0.4,0.8,0,2.01-0.4,2.81l-0.8,2.41 M552.25,804.69c-0.4,0-1.21,0-1.61,0.4
	c-0.4,0.4-1.21,0.8-1.21,1.61l-0.4,0.4l4.02,1.21l0.4-1.21c0-0.4,0.4-0.8,0-1.61C553.05,805.09,552.65,804.69,552.25,804.69z"/>
<path d="M558.28,805.49c0.4-0.4,0.4-0.8,1.21-0.4l3.62,0.8c0.4,0,0.8,0.4,0.4,0.8l-0.8,1.61c-0.4,0.4-0.8,0.4-1.21,0.4
	c-0.4,0-0.4-0.4,0-0.8v-0.8l-2.41-0.4l-4.02,8.04c-0.4,0.8-0.4,0.8-0.8,0.8c-0.4,0-0.4-0.4-0.4-0.8"/>
<path d="M568.33,814.34l1.61-3.22c0.4-0.8,0.4-1.21,0-1.61c0-0.4-0.4-0.8-0.8-0.8c-0.8-0.4-1.21-0.4-1.61,0
	c-0.8,0.4-1.21,0.8-1.61,1.61l-1.61,3.22c0,0.4,0,1.21,0,1.61c0,0.4,0.4,0.8,1.21,0.8c0.4,0.4,0.8,0,1.61,0
	C567.93,815.54,567.93,814.74,568.33,814.34 M563.51,813.13l1.21-3.22c0.4-0.8,1.21-2.01,2.01-2.41c1.21-0.8,2.01-0.8,3.22-0.8
	c0.8,0.4,1.21,0.8,1.61,1.61c0.4,1.21,0,2.01-0.4,3.22l-1.61,2.81c-0.4,1.21-1.21,2.41-2.01,2.81c-1.21,0.4-2.01,0.4-2.81,0.4
	c-0.8-0.4-1.61-0.8-2.01-1.61C562.7,815.14,562.7,813.93,563.51,813.13z"/>
<path class="st1" d="M110.33,443c5.77,11.73,13.22,24.07,13.22,24.07l9.23,15.41l75.41,101.05c0,0,146.14,35.47,160.46,25.94
	c17.15-11.41,233.01-210.76,233.01-210.76H134.1c0,0-24.49,9.16-25.77,23.62"/>
<polyline class="st17" points="584.27,349.54 584.68,348.73 584.68,347.93 585.08,347.93 585.08,347.52 585.49,347.52 
	585.49,347.12 585.89,347.12 586.3,346.71 587.51,346.71 587.92,347.12 588.32,347.12 589.13,347.52 589.54,347.52 589.54,347.93 
	590.75,347.93 590.75,349.14 590.34,349.54 590.34,349.95 589.94,350.35 589.94,350.76 589.54,351.16 589.54,351.97 589.13,352.38 
	588.73,353.19 588.73,352.78 588.32,352.78 588.32,352.38 587.92,351.97 587.51,351.97 587.11,351.57 587.11,351.16 586.7,351.16 
	586.3,350.76 586.3,350.35 585.89,350.35 585.49,349.95 585.08,349.95 585.08,349.54 584.27,349.54 "/>
<path class="st17" d="M606.54,371.81l0.4,0.4c0.85,1.79,1.4,2.81,2.43,4.45l0.4,0.81h0.4v-0.4h0.81l0.81-0.81v-0.4h0.4v-0.4h0.4
	l0.4-0.4v-0.81l0.4-0.4v-1.62h0.4v-0.81l0.4-0.4v-0.4l0.4-0.81l0.4-0.4h-0.4l-0.4-0.4h-1.21v-0.4h-1.21l-0.41-0.4h-0.81l-0.4-0.4
	h-0.4l-0.4-0.4h-1.21l-0.4-0.4h-0.4l0.4-0.81c3.83-6.42,7.97-14.82,10.53-21.86l0.81-1.62v0.81l0.4,0.81v2.83l0.4,0.81v0.81l0.4,0.4
	v2.02h0.4v1.21l0.4,0.4v0.81l0.4,0.4v0.4l0.41,0.4v0.4l0.81,0.81l0.4,0.81l0.81,0.81l0.4,0.81l1.21,1.21
	c1.84,2.4,3.72,4.71,5.26,7.29l0.4,0.4l0.4,0.81v0.4l0.41,0.4l0.4,0.81v0.4l0.4,0.81l0.4,0.4v1.21l0.4,0.81v0.4l-0.4,0.4v3.24
	l-0.4,0.4v0.81l-1.21,1.21l-0.4,0.81v0.4l-1.21,1.21l-0.81,0.4l-2.02,2.02l-0.81,0.4l-0.81,0.81l-0.81,0.4h-0.4l-0.81,0.81
	l-0.81,0.4l-0.4,0.4h-0.81l-0.4,0.4h-0.4l-0.81,0.4l-0.4,0.4h-5.26l-0.4-0.4h-0.4l-0.4-0.4h-1.21l-0.41-0.4h-0.81l-0.81-0.81h-0.4
	l-0.81-0.81h-0.4l-0.4-0.4h-0.4l-0.4-0.4v-0.4l-0.4-0.4h-0.41l-0.81-0.81l-0.4-0.81l-0.81-0.4l-0.81-0.81l-0.4-0.81l-0.81-0.4
	l-0.4-0.4v-0.4h-0.41v-0.4l-0.81-0.81v-1.62l0.4-0.4v-1.21l0.4-0.4v-0.81l0.41-0.4v-0.4l0.4-0.4v-0.4l0.4-0.4l0.4-0.4l0.4-0.4V371
	l0.4-0.4v-0.4h0.4l0.4-0.4v0.4h0.4l1.21,1.21"/>
<polyline class="st17" points="606.54,371.81 606.94,371 606.94,370.19 607.35,369.79 607.35,369.38 607.75,369.38 608.16,368.98 
	608.97,368.98 608.97,368.57 609.37,368.57 609.78,368.98 610.18,368.98 610.99,369.79 611.8,369.79 611.8,370.19 613.02,370.19 
	613.02,371.4 612.61,371.81 612.61,372.21 612.21,372.62 611.4,374.24 611.4,375.05 610.99,375.45 610.18,374.64 610.18,374.24 
	609.78,374.24 609.37,373.83 609.37,373.43 608.97,373.02 608.56,373.02 607.75,372.21 606.94,372.21 606.94,371.81 606.54,371.81 
	"/>
<path class="st40" d="M584.27,254.82v2.02c-0.42,5.49-4.57,10.58-10.12,11.34l-1.62-0.4"/>
<line class="st40" x1="593.58" y1="171.83" x2="579.41" y2="209.88"/>
<path class="st40" d="M595.61,146.73l0.81,2.43c1.73,5.38,0.24,13.65-1.21,19.03l-1.62,3.64"/>
<line class="st40" x1="487.12" y1="226.88" x2="486.31" y2="228.91"/>
<line class="st40" x1="487.12" y1="227.29" x2="487.12" y2="226.88"/>
<polyline class="st40" points="489.95,223.65 489.14,226.07 487.52,226.88 487.12,227.29 "/>
<line class="st40" x1="511.81" y1="156.85" x2="489.95" y2="223.65"/>
<path class="st40" d="M528.41,129.32l-2.43,2.02c-5.24,5.73-10.83,14.32-12.95,21.86l-1.21,3.64"/>
<path class="st40" d="M553.51,114.34l-2.02-0.4c-17.45,0.9-31.05,24.98-36.84,39.27l-1.62,4.05"/>
<line class="st40" x1="572.94" y1="118.39" x2="553.51" y2="114.34"/>
<line class="st40" x1="489.54" y1="226.88" x2="489.14" y2="228.1"/>
<line class="st40" x1="513.02" y1="157.25" x2="489.54" y2="226.88"/>
<path class="st40" d="M521.93,160.9l1.62-4.45c4.53-13.89,20.09-38.06,36.43-38.86l2.02,0.4"/>
<path class="st40" d="M554.32,128.92h-2.02c-12.03,0.26-23.84,18.57-27.12,28.74l-1.62,4.05"/>
<line class="st40" x1="577.39" y1="133.37" x2="554.32" y2="128.92"/>
<polyline class="st40" points="577.39,133.37 581.44,121.63 562.01,117.99 "/>
<line class="st40" x1="498.05" y1="230.53" x2="521.93" y2="160.9"/>
<line class="st40" x1="497.64" y1="231.74" x2="498.05" y2="230.53"/>
<polyline class="st40" points="500.88,228.5 500.07,229.72 499.67,230.53 498.45,231.74 497.64,231.74 "/>
<line class="st40" x1="523.55" y1="161.71" x2="500.88" y2="228.5"/>
<path class="st40" d="M527.19,163.33l1.21-4.05c5.22-11.3,15.72-28.94,29.96-28.74l23.07,4.86l-4.05-2.02"/>
<polyline class="st40" points="585.49,125.27 585.49,123.65 584.68,122.84 "/>
<line class="st40" x1="581.44" y1="121.63" x2="584.68" y2="122.84"/>
<line class="st40" x1="581.44" y1="135.39" x2="585.49" y2="125.27"/>
<polyline class="st40" points="587.92,123.65 588.32,124.06 588.73,124.87 588.73,125.68 "/>
<line class="st40" x1="576.58" y1="118.8" x2="573.75" y2="117.99"/>
<line class="st40" x1="570.51" y1="117.18" x2="572.94" y2="118.39"/>
<line class="st40" x1="587.92" y1="123.65" x2="585.08" y2="122.44"/>
<line class="st40" x1="604.51" y1="126.49" x2="585.08" y2="122.44"/>
<line class="st40" x1="576.58" y1="118.8" x2="596.01" y2="122.44"/>
<line class="st40" x1="573.75" y1="117.99" x2="573.75" y2="117.58"/>
<polyline class="st40" points="598.04,123.25 596.82,122.84 596.01,122.44 "/>
<polyline class="st40" points="585.08,135.39 603.7,139.04 604.92,139.44 "/>
<path class="st40" d="M615.85,151.99v-3.64c0.05-7.68-1.5-17.82-9.31-21.46l-2.02-0.4"/>
<path class="st40" d="M607.75,140.66l1.62,0.4c10.68,5.52,6.48,26.52,3.24,35.22l-1.62,4.05"/>
<line class="st40" x1="584.68" y1="135.8" x2="607.75" y2="140.66"/>
<line class="st40" x1="584.68" y1="135.8" x2="588.73" y2="125.68"/>
<line class="st40" x1="503.31" y1="229.72" x2="527.19" y2="163.33"/>
<polyline class="st40" points="500.07,232.55 500.88,232.55 502.9,230.53 503.31,229.72 "/>
<line class="st40" x1="500.07" y1="232.96" x2="500.07" y2="232.55"/>
<line class="st40" x1="499.26" y1="234.17" x2="500.07" y2="232.96"/>
<line class="st40" x1="503.31" y1="234.98" x2="499.26" y2="234.17"/>
<line class="st40" x1="504.52" y1="232.15" x2="503.31" y2="234.98"/>
<line class="st40" x1="530.03" y1="161.71" x2="504.52" y2="232.15"/>
<path class="st40" d="M552.7,138.63l-1.62-0.4c-10.2,2.07-15.36,12.46-20.24,20.65l-0.81,2.83"/>
<line class="st40" x1="606.94" y1="149.56" x2="552.7" y2="138.63"/>
<path class="st40" d="M609.78,178.31l0.81-3.24c2.16-4.69,2.39-9.97,2.83-14.98l-0.4-2.43l-0.4-2.02l-0.81-2.02l-0.81-1.62
	l-0.81-1.21l-1.62-0.81l-1.62-0.4"/>
<line class="st40" x1="589.94" y1="224.45" x2="609.78" y2="178.31"/>
<line class="st40" x1="610.99" y1="180.33" x2="591.15" y2="227.29"/>
<polyline class="st40" points="572.13,266.56 574.15,265.75 575.77,264.53 577.39,262.91 578.6,261.29 579.41,259.27 "/>
<path class="st40" d="M503.31,234.98l0.4,2.02c2.53,6.81-2.83,13.85-9.72,14.98l-2.02-0.4"/>
<path class="st40" d="M486.31,228.91l-1.62,0.81c-17.83,19.34,16.77,32.79,14.98,6.88l-0.4-2.43"/>
<line class="st40" x1="489.14" y1="228.1" x2="487.12" y2="226.88"/>
<line class="st40" x1="500.07" y1="232.96" x2="497.64" y2="231.74"/>
<line class="st40" x1="498.05" y1="230.53" x2="489.54" y2="226.88"/>
<path class="st40" d="M488.73,234.58l0.81-0.4c7.61,0.87,5.44,11.67-1.62,9.72l-1.21-0.81"/>
<polyline class="st40" points="570.51,117.18 569.7,116.77 569.29,116.77 568.89,117.18 "/>
<line class="st40" x1="606.54" y1="126.89" x2="598.04" y2="123.25"/>
<line class="st40" x1="608.97" y1="141.06" x2="604.92" y2="139.44"/>
<line class="st40" x1="491.97" y1="251.58" x2="487.92" y2="250.77"/>
<line class="st40" x1="573.75" y1="117.58" x2="570.1" y2="116.77"/>
<path class="st40" d="M516.26,244.29l2.43,3.24l2.83,3.24c3.74,5.82,14.76,15.68,20.65,19.84l2.43,2.02l3.24,2.02
	c4.61,2.52,9.47,6.24,14.98,4.86l1.62-0.4l1.21-0.4"/>
<polyline class="st40" points="485.9,253.2 489.14,252.39 491.97,251.58 "/>
<polyline class="st40" points="500.07,249.15 504.52,247.93 512.62,245.51 516.26,244.29 "/>
<line class="st40" x1="483.47" y1="249.55" x2="485.9" y2="253.2"/>
<line class="st40" x1="483.47" y1="249.55" x2="481.04" y2="246.32"/>
<polyline class="st40" points="511.4,237 509.79,234.17 507.76,230.93 506.14,228.1 "/>
<path class="st40" d="M378.62,179.92l3.64-0.81c22.29-2.26,43.61-6.56,65.58,1.21l3.64,1.21"/>
<path class="st40" d="M378.62,179.92l-2.43,0.81c-30.86,6.91-17.91,35.21-2.83,51.41l2.02,2.43"/>
<path class="st40" d="M407.37,272.22l-4.05-4.86c-6.47-10.4-15.23-19.03-23.07-28.34l-4.86-4.45"/>
<path class="st40" d="M432.46,316.35l-2.83-6.48c-6.48-11.72-11.48-21.15-19.03-32.39l-3.24-5.26"/>
<path class="st40" d="M511,371l-2.43,0.4c-24.03,1.3-46.09-14.48-61.13-31.98l-2.43-2.83l-2.02-2.83
	c-2.98-4.49-6.75-9.74-8.91-14.57l-1.62-2.83"/>
<path class="st40" d="M603.7,389.62l-2.02-2.43c-20.36-26.59-55.91-20.83-85.01-17.41L511,371"/>
<path class="st40" d="M605.73,379.5l0.81,2.43c0.16,1.99,3.37,8.78,1.62,10.93l-0.81,0.4l-0.4-0.4h-0.4l-0.81-1.21l-2.02-2.02"/>
<line class="st40" x1="504.12" y1="241.86" x2="516.26" y2="244.29"/>
<line class="st40" x1="485.9" y1="253.2" x2="488.73" y2="250.77"/>
<line class="st40" x1="511.4" y1="237" x2="503.71" y2="235.79"/>
<polyline class="st40" points="516.26,244.29 514.64,241.86 513.02,239.84 511.4,237 "/>
<line class="st40" x1="481.45" y1="246.32" x2="481.04" y2="246.32"/>
<polyline class="st40" points="367.69,607.82 371.34,605.8 374.58,603.37 380.24,599.32 382.27,597.29 384.29,595.68 388.34,591.63 
	388.74,590.41 388.74,589.6 388.34,588.39 387.93,587.98 387.12,587.58 385.91,587.17 "/>
<polyline class="st40" points="358.79,611.87 360.81,611.46 362.84,610.65 365.26,609.44 367.69,607.82 "/>
<path class="st40" d="M293.21,568.15l-1.62-0.4c-18.4,1.68-33.34,5.84-51.01,11.34l-6.48,2.02"/>
<line class="st40" x1="385.91" y1="587.17" x2="293.21" y2="568.15"/>
<polyline class="st40" points="218.31,583.53 219.12,576.24 219.93,573.01 220.74,569.36 "/>
<polyline class="st40" points="234.1,581.1 230.86,581.91 226.82,583.13 222.77,583.53 218.31,583.53 "/>
<path class="st40" d="M220.74,569.36l1.62-5.67c4.86-17.38,8.59-36.99,1.21-54.25l-1.62-2.43"/>
<path class="st40" d="M118.32,421.6l-2.43,0.81l-2.83,0.81l-4.86,1.62l0.4,3.64c-0.32,12,4.53,18.39,8.91,28.34l2.83,4.05"/>
<polyline class="st40" points="218.31,583.53 216.29,583.94 213.86,584.34 212.24,584.34 208.19,583.53 206.17,582.72 
	204.96,581.91 203.74,580.29 202.53,579.08 "/>
<polyline class="st40" points="358.79,611.87 354.33,612.27 349.88,611.87 345.02,611.46 340.98,610.65 "/>
<polyline class="st40" points="117.51,412.29 121.56,407.84 125.21,403.39 128.85,399.74 132.49,396.5 135.73,392.86 138.97,390.03 
	"/>
<path class="st40" d="M164.88,425.25l-1.62-2.43c-11.72-11.47-27.03-7.96-40.89-3.24l-4.05,2.02"/>
<line class="st40" x1="221.96" y1="507.02" x2="164.88" y2="425.25"/>
<path class="st40" d="M572.13,265.75l0.4,2.02v2.02c-1.86,9.97-12.7,3.57-17.81,0.81l-3.24-2.02l-2.83-2.02
	c-10.73-7.83-24.32-21.89-31.17-33.2l-4.05-6.48l-1.21-3.24l-1.21-2.83l-1.21-2.43"/>
<polyline class="st40" points="514.64,205.43 516.26,205.83 518.29,206.24 "/>
<path class="st40" d="M567.67,270.2l-1.21,0.81h-1.21c-9.96,1.25-22.96-12.02-29.96-17.81l-2.83-3.24l-2.43-2.83
	c-6.28-6.98-19.8-24.43-17.81-34.41l0.4-1.21l0.81-1.21"/>
<path class="st40" d="M586.3,219.6l-2.43-3.24l-2.02-3.64l-2.83-2.83c-6.17-7.71-20.86-21.43-30.36-24.29l-1.62-0.4H545
	c-11.04-2.19-3.96,14.94-0.81,18.62l1.21,3.24l2.02,3.24l2.43,3.24l2.43,2.83c6.15,8.53,20.46,23.3,30.36,27.53l2.43,1.62l2.43,0.4
	c11.27,3.83,10.03-8.29,5.67-14.57l-0.81-2.83l-2.02-2.83l-1.62-3.24L586.3,219.6z"/>
<path class="st40" d="M550.27,212.31l-2.02-3.24l-1.62-2.83L545,203c-2.47-4.4-7.04-13.8,0.41-15.79l2.02,0.4l1.62,0.4
	c9.27,1.71,22.44,15.22,28.74,21.86l2.43,2.83l2.43,3.24l2.02,3.24l2.02,2.83l2.02,3.24l1.21,2.43l1.62,2.83l0.81,2.83l0.81,2.02
	l0.4,2.02v2.02l-0.4,1.21v1.62l-0.81,0.81l-1.21,0.81h-3.24c-8.51-1.28-22.41-13.43-27.93-19.84l-2.43-2.83l-2.83-2.83l-2.02-3.24
	L550.27,212.31z"/>
<line class="st40" x1="568.89" y1="275.46" x2="605.73" y2="379.5"/>
<line class="st40" x1="496.83" y1="203" x2="451.49" y2="181.54"/>
<line class="st40" x1="491.16" y1="243.89" x2="487.52" y2="243.08"/>
<line class="st40" x1="492.78" y1="235.79" x2="489.54" y2="234.58"/>
<polyline class="st40" points="487.52,243.08 486.31,243.08 484.69,240.65 484.69,239.84 484.28,238.22 484.69,237 485.9,236.2 
	486.71,234.98 488.33,234.98 489.54,234.58 "/>
<line class="st40" x1="383.89" y1="596.08" x2="608.16" y2="392.86"/>
<line class="st40" x1="202.53" y1="579.08" x2="120.35" y2="460.87"/>
<line class="st40" x1="340.98" y1="610.65" x2="210.22" y2="583.94"/>
<line class="st40" x1="138.97" y1="390.03" x2="363.24" y2="186.81"/>
<line class="st40" x1="565.65" y1="278.7" x2="570.91" y2="273.84"/>
<line class="st40" x1="513.43" y1="210.29" x2="540.55" y2="186"/>
<line class="st40" x1="567.68" y1="270.2" x2="594.39" y2="245.51"/>
<path class="st56" d="M650.53,379.84c0,7.73-6.27,14-14,14s-14-6.27-14-14c0-7.73,14-28.14,14-39.16
	C636.53,358.24,650.53,372.11,650.53,379.84z"/>
<path class="st56" d="M627.53,346.84c0,7.73-6.27,14-14,14s-14-6.27-14-14c0-7.73,14-28.14,14-39.16
	C613.53,325.24,627.53,339.11,627.53,346.84z"/>
<path class="st56" d="M620.53,410.84c0,7.73-6.27,14-14,14s-14-6.27-14-14c0-7.73,14-28.14,14-39.16
	C606.53,389.24,620.53,403.11,620.53,410.84z"/>
<path class="st56" d="M616.53,485.84c0,7.73-6.27,14-14,14s-14-6.27-14-14c0-7.73,14-28.14,14-39.16
	C602.53,464.24,616.53,478.11,616.53,485.84z"/>
<path class="st56" d="M642.53,520.84c0,7.73-6.27,14-14,14s-14-6.27-14-14s14-28.14,14-39.16
	C628.53,499.24,642.53,513.11,642.53,520.84z"/>
<path class="st56" d="M608.53,550.84c0,7.73-6.27,14-14,14s-14-6.27-14-14s14-28.14,14-39.16
	C594.53,529.24,608.53,543.11,608.53,550.84z"/>
</svg>
