<?xml version="1.0" encoding="utf-8"?>
<!-- Generator: Adobe Illustrator 23.0.1, SVG Export Plug-In . SVG Version: 6.00 Build 0)  -->
<svg version="1.1" id="Layer_1" xmlns="http://www.w3.org/2000/svg" xmlns:xlink="http://www.w3.org/1999/xlink" x="0px" y="0px"
	 viewBox="0 0 1000 1000" style="enable-background:new 0 0 1000 1000;" xml:space="preserve">
<style type="text/css">
	.st0{fill:#AFB1B4;}
	.st1{fill:#CED0D1;}
	.st2{fill:none;stroke:#151616;stroke-width:0.9901;stroke-miterlimit:10;}
	.st3{fill:none;stroke:#000000;stroke-width:6.5611;stroke-miterlimit:10;}
	.st4{fill-rule:evenodd;clip-rule:evenodd;fill:#070A09;}
	.st5{fill-rule:evenodd;clip-rule:evenodd;fill:#009933;}
	.st6{fill:none;stroke:#000000;stroke-width:0.9901;stroke-miterlimit:10;}
	.st7{fill:none;stroke:#000000;stroke-width:0.9901;stroke-linecap:round;stroke-linejoin:round;stroke-miterlimit:10;}
	.st8{fill:none;stroke:#000000;stroke-width:1.3048;stroke-linecap:round;stroke-linejoin:round;stroke-miterlimit:10;}
	.st9{fill:none;stroke:#151616;stroke-width:1.3048;stroke-miterlimit:10;}
	.st10{fill-rule:evenodd;clip-rule:evenodd;fill:#FCFCFC;}
	.st11{fill:none;stroke:#FEFEFE;stroke-width:1.3048;stroke-miterlimit:10;}
	.st12{fill:none;stroke:#000000;stroke-width:1.1967;stroke-linecap:round;stroke-linejoin:round;stroke-miterlimit:10;}
	.st13{fill-rule:evenodd;clip-rule:evenodd;fill:#FFFFFF;}
	.st14{fill:none;stroke:#151616;stroke-width:1.1967;stroke-miterlimit:10;}
	.st15{fill-rule:evenodd;clip-rule:evenodd;}
	.st16{fill:none;stroke:#000000;stroke-width:1.1967;stroke-miterlimit:10;}
	.st17{fill:#FFFFFF;}
	.st18{fill-rule:evenodd;clip-rule:evenodd;fill:none;}
	.st19{fill:none;stroke:#009933;stroke-width:6.9903;stroke-miterlimit:10;}
	.st20{fill:#009933;}
	.st21{fill:none;stroke:#009933;stroke-width:15.3786;stroke-miterlimit:10;}
	.st22{fill:none;stroke:#000000;stroke-width:0.9613;stroke-linecap:round;stroke-linejoin:round;stroke-miterlimit:10;}
	.st23{fill:none;stroke:#151616;stroke-width:1.049;stroke-miterlimit:10;}
	.st24{fill:#151616;}
	.st25{fill:none;stroke:#000000;stroke-width:0.9613;stroke-miterlimit:10;}
	.st26{fill:none;stroke:#151616;stroke-width:0.9613;stroke-miterlimit:10;}
	.st27{fill:none;stroke:#151616;stroke-width:0.225;stroke-miterlimit:10;}
	.st28{fill:none;stroke:#000000;stroke-width:0.9932;stroke-linecap:round;stroke-linejoin:round;stroke-miterlimit:10;}
	.st29{fill:none;stroke:#151616;stroke-width:0.9932;stroke-miterlimit:10;}
	.st30{fill:none;stroke:#FEFEFE;stroke-width:0.9932;stroke-miterlimit:10;}
	.st31{fill:none;stroke:#151616;stroke-width:0.9932;stroke-linecap:round;stroke-linejoin:round;stroke-miterlimit:10;}
	.st32{fill:none;stroke:#151616;stroke-width:1.2586;stroke-miterlimit:10;}
	.st33{fill:none;stroke:#000000;stroke-width:1.625;stroke-linecap:round;stroke-linejoin:round;stroke-miterlimit:10;}
	.st34{fill:#8F9194;}
	.st35{fill:none;stroke:#151616;stroke-width:1.159;stroke-miterlimit:10;}
	.st36{fill:#AFB1B4;stroke:#000000;stroke-width:1.115;stroke-miterlimit:10;}
	.st37{fill:none;stroke:#009933;stroke-width:7.5778;stroke-miterlimit:10;}
	.st38{fill:none;stroke:#009933;stroke-width:16.6712;stroke-miterlimit:10;}
	.st39{fill:#FFFFFF;stroke:#151616;stroke-width:1.2586;stroke-miterlimit:10;}
	.st40{fill:none;stroke:#000000;stroke-width:1.5181;stroke-linecap:round;stroke-linejoin:round;stroke-miterlimit:10;}
	.st41{fill-rule:evenodd;clip-rule:evenodd;fill:#C8C8C8;}
	.st42{fill:#C7C7C7;}
	.st43{fill:none;stroke:#000000;stroke-width:1.5079;stroke-linecap:round;stroke-linejoin:round;stroke-miterlimit:10;}
	.st44{fill:none;stroke:#151616;stroke-width:1.5079;stroke-miterlimit:10;}
	.st45{fill:none;stroke:#000000;stroke-width:0.9814;stroke-linecap:round;stroke-linejoin:round;stroke-miterlimit:10;}
	.st46{fill:none;stroke:#151616;stroke-width:0.9814;stroke-miterlimit:10;}
	.st47{fill:none;stroke:#FEFEFE;stroke-width:0.9814;stroke-miterlimit:10;}
	.st48{fill:none;stroke:#151616;stroke-width:0.9814;stroke-linecap:round;stroke-linejoin:round;stroke-miterlimit:10;}
	.st49{fill:none;stroke:#151616;stroke-width:0.6983;stroke-miterlimit:10;}
	.st50{fill:none;stroke:#151616;stroke-width:4.1862;stroke-miterlimit:10;}
	.st51{fill:none;stroke:#000000;stroke-width:0.785;stroke-linecap:round;stroke-linejoin:round;stroke-miterlimit:10;}
	.st52{fill:none;stroke:#151616;stroke-width:0.785;stroke-miterlimit:10;}
	.st53{fill:none;stroke:#000000;stroke-width:1.0776;stroke-linecap:round;stroke-linejoin:round;stroke-miterlimit:10;}
	.st54{fill:none;stroke:#151616;stroke-width:1.0776;stroke-miterlimit:10;}
	.st55{fill-rule:evenodd;clip-rule:evenodd;fill:#009933;stroke:#009933;stroke-miterlimit:10;}
	.st56{fill:#CED0D1;stroke:#000000;stroke-width:1.115;stroke-miterlimit:10;}
	.st57{fill:#C8C8C8;}
	.st58{fill:none;stroke:#151616;stroke-width:1.5181;stroke-miterlimit:10;}
	.st59{clip-path:url(#SVGID_4_);}
	.st60{clip-path:url(#SVGID_6_);}
	.st61{clip-path:url(#SVGID_8_);}
	.st62{clip-path:url(#SVGID_10_);}
	.st63{clip-path:url(#SVGID_14_);}
	.st64{clip-path:url(#SVGID_16_);}
	.st65{clip-path:url(#SVGID_18_);}
	.st66{clip-path:url(#SVGID_20_);}
	.st67{clip-path:url(#SVGID_24_);}
	.st68{clip-path:url(#SVGID_26_);}
	.st69{clip-path:url(#SVGID_28_);}
	.st70{clip-path:url(#SVGID_30_);}
	.st71{clip-path:url(#SVGID_34_);}
	.st72{clip-path:url(#SVGID_38_);}
	.st73{clip-path:url(#SVGID_42_);}
	.st74{clip-path:url(#SVGID_46_);}
	.st75{clip-path:url(#SVGID_48_);}
	.st76{clip-path:url(#SVGID_50_);}
	.st77{clip-path:url(#SVGID_52_);}
	.st78{fill:#7A7A7A;}
	.st79{clip-path:url(#SVGID_56_);}
	.st80{clip-path:url(#SVGID_58_);}
	.st81{clip-path:url(#SVGID_60_);}
	.st82{clip-path:url(#SVGID_62_);}
	.st83{clip-path:url(#SVGID_66_);}
	.st84{clip-path:url(#SVGID_68_);}
	.st85{clip-path:url(#SVGID_70_);}
	.st86{clip-path:url(#SVGID_72_);}
	.st87{clip-path:url(#SVGID_76_);}
	.st88{clip-path:url(#SVGID_78_);}
	.st89{clip-path:url(#SVGID_80_);}
	.st90{clip-path:url(#SVGID_82_);}
	.st91{clip-path:url(#SVGID_86_);}
	.st92{clip-path:url(#SVGID_88_);}
	.st93{clip-path:url(#SVGID_90_);fill:#FFFFFF;}
	.st94{clip-path:url(#SVGID_92_);}
	.st95{clip-path:url(#SVGID_94_);}
	.st96{clip-path:url(#SVGID_96_);}
	.st97{clip-path:url(#SVGID_98_);}
	.st98{clip-path:url(#SVGID_102_);}
	.st99{clip-path:url(#SVGID_104_);}
	.st100{clip-path:url(#SVGID_106_);fill:#FFFFFF;}
	.st101{clip-path:url(#SVGID_108_);}
	.st102{clip-path:url(#SVGID_110_);}
	.st103{clip-path:url(#SVGID_112_);}
	.st104{clip-path:url(#SVGID_114_);}
	.st105{clip-path:url(#SVGID_118_);}
	.st106{clip-path:url(#SVGID_120_);}
	.st107{clip-path:url(#SVGID_122_);}
</style>
<polyline class="st8" points="226.24,422.01 226.24,422.36 225.54,422.71 224.5,423.06 223.11,423.06 221.72,423.4 219.98,423.75 
	210.58,423.75 209.19,423.4 208.15,423.06 207.8,423.06 207.45,422.71 "/>
<polyline class="st8" points="208.49,423.4 208.84,423.75 210.93,424.45 221.37,424.45 222.76,424.1 224.85,423.4 225.54,423.06 "/>
<line class="st8" x1="208.49" y1="423.4" x2="207.45" y2="423.06"/>
<line class="st8" x1="225.54" y1="423.06" x2="226.24" y2="422.36"/>
<line class="st8" x1="226.24" y1="417.49" x2="226.24" y2="422.01"/>
<line class="st8" x1="207.1" y1="417.84" x2="207.45" y2="422.71"/>
<line class="st8" x1="287.48" y1="390" x2="288.17" y2="390"/>
<polyline class="st8" points="287.48,354.51 287.13,354.51 286.78,354.86 286.43,354.86 "/>
<polyline class="st8" points="286.09,352.77 285.74,353.12 285.39,353.12 "/>
<polyline class="st8" points="263.47,350.34 263.82,350.34 264.17,349.99 "/>
<line class="st8" x1="249.55" y1="350.68" x2="249.55" y2="351.73"/>
<polyline class="st8" points="272.52,350.68 272.86,350.68 272.52,350.34 "/>
<line class="st8" x1="287.48" y1="390" x2="241.9" y2="405.66"/>
<path class="st8" d="M190.75,406.7l0.35,0.7l0.35,0.35c4.39,2.43,15.23,2.43,20.18,2.44h6.26c5.71-0.32,17.11-0.57,21.92-3.48
	l1.04-0.35h0.7l0.35-0.7"/>
<line class="st8" x1="263.47" y1="350.34" x2="239.46" y2="357.3"/>
<line class="st8" x1="272.52" y1="350.68" x2="239.46" y2="360.08"/>
<line class="st8" x1="286.78" y1="398" x2="242.59" y2="413.31"/>
<line class="st8" x1="239.46" y1="366.69" x2="239.81" y2="366.69"/>
<line class="st8" x1="239.11" y1="354.86" x2="249.55" y2="351.73"/>
<line class="st8" x1="285.39" y1="353.12" x2="239.81" y2="366.69"/>
<line class="st8" x1="239.81" y1="368.43" x2="286.43" y2="354.86"/>
<line class="st8" x1="241.9" y1="413.31" x2="242.59" y2="413.31"/>
<line class="st8" x1="241.9" y1="413.31" x2="241.55" y2="412.62"/>
<path class="st8" d="M189.36,338.16l0.35-1.04l0.35-0.35l0.35-1.04l0.7-0.35l1.04-0.35l1.39-0.7l1.04-0.35l2.09-0.35h11.13l2.44,0.7
	l2.78,0.7l2.09,0.35l2.78,0.35c7.6,3.49,15.15,4.36,20.53,11.83l0.35,0.7v0.7"/>
<path class="st8" d="M236.33,344.77l-1.39-1.39c-3.98-4.04-12.4-6.98-17.75-9.05l-2.09-0.35l-1.74-0.35l-1.74-0.7l-2.09-0.35h-5.57
	l-1.39-0.35h-1.74l-1.39,0.35h-4.18l-0.7,0.35l-1.04,0.7l-1.39,0.7"/>
<line class="st8" x1="236.33" y1="344.77" x2="237.37" y2="346.16"/>
<line class="st8" x1="190.75" y1="335.72" x2="192.14" y2="334.33"/>
<line class="st8" x1="238.77" y1="348.94" x2="239.81" y2="368.43"/>
<line class="st8" x1="189.36" y1="338.16" x2="190.75" y2="406.7"/>
<path class="st8" d="M192.84,415.75l0.7,0.35h1.04c6.03,2.95,13.78,0.75,19.14,2.44l3.13-0.7h3.13c3.24,0.05,15.73-1.08,18.44-2.78
	l2.09-0.7"/>
<path class="st8" d="M191.1,407.4v0.7l0.35,0.7c3.2,1.24,3.95,1.08,7.31,1.74l2.78,0.35h2.44c5.34,0,10.67,0,16.01,0h2.78l3.48-0.35
	l2.78-0.35c4.06-0.09,8.48-1.06,12.18-2.78l0.35-0.7l-0.35-0.35"/>
<path class="st8" d="M191.45,414.36l0.35,0.35l1.04,0.35c1.4,1.61,18.35,2.79,20.53,2.44h3.48l3.48-0.35h2.78l3.13-0.35l5.57-0.7
	l2.44-0.35l2.09-0.7h2.09l1.04-0.7l1.39-0.7l0.35-0.35l0.35-0.7"/>
<line class="st8" x1="192.84" y1="415.75" x2="192.14" y2="414.71"/>
<line class="st8" x1="240.51" y1="414.36" x2="241.2" y2="413.66"/>
<line class="st8" x1="273.56" y1="402.88" x2="273.56" y2="402.88"/>
<line class="st8" x1="274.26" y1="402.18" x2="273.91" y2="402.53"/>
<line class="st8" x1="273.56" y1="402.88" x2="273.91" y2="402.53"/>
<line class="st8" x1="272.86" y1="402.88" x2="273.56" y2="402.88"/>
<line class="st8" x1="191.45" y1="414.36" x2="191.1" y2="407.75"/>
<line class="st8" x1="241.55" y1="412.62" x2="241.55" y2="406.7"/>
<line class="st8" x1="284.35" y1="398.7" x2="284.69" y2="400.79"/>
<line class="st8" x1="369.59" y1="217.77" x2="851.15" y2="227.51"/>
<line class="st8" x1="851.5" y1="226.81" x2="370.29" y2="217.42"/>
<line class="st8" x1="851.15" y1="227.51" x2="824.01" y2="465.16"/>
<polyline class="st8" points="825.75,465.51 852.2,228.21 852.2,227.51 851.5,226.81 "/>
<line class="st8" x1="824.01" y1="465.16" x2="328.88" y2="436.98"/>
<polyline class="st8" points="329.23,438.37 824.36,466.55 825.06,466.2 825.75,465.51 "/>
<line class="st8" x1="328.88" y1="436.97" x2="369.59" y2="217.77"/>
<polyline class="st8" points="369.25,218.46 328.54,436.97 328.54,437.67 329.23,438.37 "/>
<polyline class="st8" points="370.29,217.42 369.59,217.42 369.25,217.77 369.25,218.46 "/>
<line class="st8" x1="825.75" y1="466.9" x2="825.75" y2="467.94"/>
<line class="st8" x1="852.54" y1="229.95" x2="825.75" y2="466.9"/>
<line class="st8" x1="852.54" y1="229.6" x2="852.54" y2="229.95"/>
<line class="st8" x1="328.88" y1="438.02" x2="330.28" y2="439.41"/>
<line class="st8" x1="852.2" y1="227.86" x2="852.54" y2="229.6"/>
<path class="st8" d="M798.26,521.87H800l0.35-0.35v-1.04l-0.35,0.35h-1.04v0.35h-0.35l-0.7-0.35l-0.35-0.35l-0.7-0.35v-1.04
	l3.83,0.35v-1.74l-1.04-1.04h-0.35l-0.7-0.35h-0.7l-1.04,0.35c-0.72,0.92-0.74,2.24-0.7,3.48l0.35,0.7l0.7,1.04H798.26z"/>
<polygon class="st8" points="798.61,517 798.96,517 799.31,517.7 799.66,518.05 799.66,518.74 796.87,518.39 797.22,517.7 
	797.92,517 798.26,517 "/>
<line class="st8" x1="796.87" y1="518.39" x2="799.66" y2="518.74"/>
<polyline class="st8" points="796.87,519.09 796.87,520.13 797.22,520.48 797.57,520.48 798.26,520.83 798.61,521.18 798.96,520.83 
	"/>
<polyline class="st8" points="800.35,520.48 800.35,521.53 799.31,521.87 "/>
<polyline class="st8" points="798.27,517 797.92,517 797.22,517.7 796.87,518.39 "/>
<line class="st8" x1="800.7" y1="518.74" x2="800.7" y2="519.44"/>
<polyline class="st8" points="800,517 800.7,517.7 800.7,518.74 "/>
<polyline class="st8" points="798.61,516.31 798.96,516.65 799.66,516.65 800,517 "/>
<line class="st8" x1="798.27" y1="516.31" x2="798.61" y2="516.31"/>
<line class="st8" x1="769.39" y1="519.79" x2="770.08" y2="519.79"/>
<line class="st8" x1="769.73" y1="512.48" x2="769.39" y2="519.79"/>
<path class="st8" d="M770.08,519.79l0.7-7.31L770.08,519.79z"/>
<path class="st8" d="M770.78,512.48h-1.04H770.78z"/>
<polygon class="st8" points="767.99,519.79 768.34,512.48 767.65,512.48 766.95,519.44 "/>
<polyline class="st8" points="767.65,512.48 768.34,512.48 767.99,519.79 "/>
<polyline class="st8" points="774.6,518.39 774.6,519.44 774.95,519.44 774.95,520.13 776,520.48 "/>
<line class="st8" x1="774.95" y1="515.96" x2="774.6" y2="518.39"/>
<line class="st8" x1="774.26" y1="515.96" x2="774.95" y2="515.96"/>
<line class="st8" x1="774.26" y1="514.92" x2="774.26" y2="515.96"/>
<path class="st8" d="M774.95,514.92h-0.7H774.95z"/>
<line class="st8" x1="774.95" y1="513.52" x2="774.95" y2="514.92"/>
<polyline class="st8" points="776,513.52 774.95,513.52 776,513.52 "/>
<polyline class="st8" points="776,514.92 776,513.52 776,514.92 "/>
<polyline class="st8" points="777.39,515.26 776,514.92 777.39,515.26 "/>
<polyline class="st8" points="776,520.48 777.04,520.48 777.04,519.44 777.04,520.48 "/>
<polyline class="st8" points="777.04,519.44 776,519.44 776.69,519.44 "/>
<path class="st8" d="M776,519.44h-0.35H776z"/>
<polygon class="st8" points="775.65,519.44 775.3,519.09 775.3,518.74 775.65,518.05 "/>
<path class="st8" d="M775.65,518.05v-2.09V518.05z"/>
<polyline class="st8" points="775.65,515.96 777.39,515.96 777.39,515.26 777.39,515.96 "/>
<polygon class="st8" points="765.56,519.44 766.25,514.22 765.21,514.22 765.21,518.05 764.17,518.74 763.47,518.74 762.77,518.39 
	762.77,513.87 762.08,513.87 762.08,519.09 762.77,519.44 764.17,519.44 764.86,519.09 764.86,519.44 "/>
<polyline class="st8" points="762.77,513.87 762.77,517 762.77,518.05 763.47,518.74 763.82,518.74 "/>
<polyline class="st8" points="765.21,514.22 766.25,514.22 765.56,519.44 "/>
<line class="st8" x1="762.08" y1="513.87" x2="762.77" y2="513.87"/>
<polyline class="st8" points="764.86,519.09 764.51,519.44 763.82,519.44 "/>
<polyline class="st8" points="779.13,520.48 780.17,520.48 781.22,520.13 781.22,519.79 781.56,519.44 781.91,517.7 781.91,518.74 
	781.56,519.44 781.22,520.13 780.87,520.48 780.17,520.48 "/>
<polyline class="st8" points="777.39,517.7 777.39,519.09 777.74,519.44 778.08,520.13 778.43,520.48 779.13,520.48 "/>
<polyline class="st8" points="781.22,517.7 781.22,519.09 780.87,519.44 780.52,519.44 780.17,519.79 779.82,519.79 780.17,519.79 
	"/>
<polygon class="st8" points="779.82,519.79 778.78,519.44 778.43,519.09 778.43,517.7 778.43,519.09 778.78,519.44 "/>
<polygon class="st8" points="781.91,517.7 781.91,516.66 781.56,516.31 781.22,515.96 780.87,515.26 780.17,515.26 780.87,515.26 
	781.22,515.96 781.56,516.31 781.91,516.66 "/>
<polyline class="st8" points="780.17,515.26 779.13,515.26 778.43,515.96 778.08,515.96 777.74,516.66 777.39,517.7 "/>
<line class="st8" x1="779.13" y1="515.26" x2="780.17" y2="515.26"/>
<polyline class="st8" points="778.43,517.7 778.43,516.66 779.13,515.96 780.17,515.96 "/>
<polyline class="st8" points="779.13,515.96 778.78,516.31 778.43,517 778.43,517.7 "/>
<polyline class="st8" points="780.17,515.96 780.52,515.96 780.87,516.31 781.22,517 781.22,517.7 "/>
<polygon class="st8" points="761.04,516.65 761.04,514.92 760.69,514.57 760.34,513.87 759.99,513.52 758.6,513.52 757.9,514.22 
	757.9,513.52 756.86,513.52 756.51,520.83 757.21,520.83 757.56,518.74 758.25,519.44 758.6,519.44 759.99,518.74 760.34,518.05 
	760.69,517.7 "/>
<polygon class="st8" points="757.9,515.26 758.6,514.57 759.3,514.57 759.64,514.92 759.99,514.92 759.99,517.7 759.64,517.7 
	759.3,518.05 759.3,518.39 758.25,518.39 757.9,518.05 757.56,518.05 "/>
<line class="st8" x1="758.6" y1="518.39" x2="758.6" y2="518.39"/>
<polyline class="st8" points="758.6,514.57 758.25,514.57 757.9,515.26 "/>
<polyline class="st8" points="756.86,513.52 757.9,513.52 757.9,514.22 "/>
<polyline class="st8" points="758.6,513.52 759.99,513.52 760.34,513.87 761.03,515.96 761.03,516.65 "/>
<polyline class="st8" points="757.9,515.26 757.56,518.05 757.9,518.05 758.25,518.39 758.6,518.39 "/>
<line class="st8" x1="757.56" y1="518.74" x2="757.21" y2="520.83"/>
<polyline class="st8" points="761.04,516.65 761.04,517.35 760.69,517.7 759.99,518.74 759.3,519.44 "/>
<polyline class="st8" points="793.05,521.53 793.74,521.53 794.79,520.48 795.48,520.13 795.48,518.74 795.48,519.44 795.13,520.48 
	794.44,520.83 793.74,521.53 "/>
<polyline class="st8" points="791.65,520.83 792.35,521.18 792.7,521.53 793.05,521.53 "/>
<polyline class="st8" points="791.31,522.92 791.65,520.83 791.31,522.92 "/>
<line class="st8" x1="790.61" y1="522.92" x2="791.31" y2="522.92"/>
<polygon class="st8" points="793.05,520.48 791.65,520.48 792.7,520.48 "/>
<path class="st8" d="M791.65,520.48l0.35-3.13L791.65,520.48z"/>
<polygon class="st8" points="795.48,518.74 795.48,517 794.79,516.31 794.09,515.96 793.74,515.96 794.09,515.96 794.79,516.31 
	795.48,517 795.48,517.7 "/>
<polyline class="st8" points="793.74,515.96 793.05,516.31 792.7,516.31 792,516.66 "/>
<line class="st8" x1="793.39" y1="515.96" x2="793.74" y2="515.96"/>
<path class="st8" d="M792,516.65l0.35-0.7L792,516.65z"/>
<path class="st8" d="M792.35,515.96h-1.04H792.35z"/>
<line class="st8" x1="791.31" y1="515.96" x2="790.61" y2="522.92"/>
<polyline class="st8" points="792,517.35 792.7,517 793.05,516.66 793.39,516.66 "/>
<polyline class="st8" points="793.05,516.66 792.7,517 792,517.35 "/>
<polyline class="st8" points="793.39,516.66 794.09,517 794.44,517.35 794.44,518.74 794.09,519.79 794.09,520.13 793.74,520.48 
	793.05,520.48 793.39,520.48 "/>
<polygon class="st8" points="786.78,518.05 786.78,517.35 787.13,516.66 787.83,516.31 788.52,516.66 788.87,516.66 789.57,517.7 
	789.57,518.39 788.87,519.44 788.87,519.79 788.18,520.48 787.48,520.48 787.13,520.13 786.78,519.44 "/>
<polygon class="st8" points="789.91,518.39 789.91,516.66 789.57,516.31 788.87,515.96 787.13,515.96 786.78,516.31 786.09,516.66 
	785.74,517 785.39,518.05 785.74,519.44 786.09,520.13 786.09,520.48 787.48,521.18 788.52,521.18 789.57,520.48 789.91,519.79 "/>
<polyline class="st8" points="787.48,516.66 786.78,516.66 786.78,518.05 "/>
<polyline class="st8" points="787.13,515.96 788.87,515.96 789.57,516.31 789.91,516.66 789.91,518.39 "/>
<polyline class="st8" points="786.78,518.05 786.78,520.13 787.48,520.48 788.18,520.48 "/>
<polyline class="st8" points="789.91,518.39 789.91,520.13 789.57,520.48 788.87,520.83 788.52,521.18 "/>
<line class="st8" x1="804.53" y1="521.87" x2="805.22" y2="522.22"/>
<line class="st8" x1="804.88" y1="519.44" x2="804.53" y2="521.87"/>
<line class="st8" x1="804.88" y1="517.7" x2="804.88" y2="519.44"/>
<line class="st8" x1="803.83" y1="517.7" x2="804.88" y2="517.7"/>
<polyline class="st8" points="802.44,518.05 803.14,517.7 803.83,517.7 "/>
<polyline class="st8" points="803.48,517.7 803.14,517.7 802.44,518.05 "/>
<polyline class="st8" points="802.09,521.87 802.44,518.05 802.09,521.87 "/>
<path class="st8" d="M805.22,522.22v-3.48V522.22z"/>
<polygon class="st8" points="805.22,518.74 805.22,517.7 804.88,516.66 804.18,516.66 804.88,516.66 805.22,517 805.22,517.7 "/>
<polyline class="st8" points="804.18,516.66 803.14,516.66 802.44,517.35 "/>
<line class="st8" x1="803.48" y1="516.66" x2="804.18" y2="516.66"/>
<path class="st8" d="M802.44,517.35v-0.7V517.35z"/>
<path class="st8" d="M802.44,516.66h-0.7H802.44z"/>
<polyline class="st8" points="801.75,516.66 801.05,521.87 802.09,521.87 "/>
<path class="st8" d="M807.31,755l0.35-14.96c0.6-72.01,4.33-144.27,9.74-216.08l1.39-17.05"/>
<path class="st8" d="M313.58,704.55l-1.04-13.92c-4.67-67.1-3.34-133.09,2.44-200.07l1.39-15.66"/>
<line class="st8" x1="313.58" y1="704.55" x2="807.31" y2="755"/>
<polyline class="st8" points="819.84,507.61 818.79,519.79 817.75,532.31 817.05,544.49 "/>
<path class="st8" d="M814.62,573.72l-0.7,16.35c-2.2,27.63-2.8,54.18-3.83,81.77l-0.7,16.01l-0.35,15.66l-0.35,15.66v14.96
	l-0.7,15.31"/>
<line class="st8" x1="807.66" y1="793.27" x2="807.31" y2="795.01"/>
<line class="st8" x1="317.75" y1="741.78" x2="807.31" y2="795.01"/>
<polyline class="st8" points="820.19,503.78 819.84,504.82 819.84,507.61 "/>
<line class="st8" x1="822.62" y1="497.87" x2="820.19" y2="503.78"/>
<polyline class="st8" points="824.01,491.95 824.01,493.69 823.67,495.43 822.97,496.82 822.62,497.87 "/>
<line class="st8" x1="826.45" y1="469.68" x2="824.01" y2="491.95"/>
<line class="st8" x1="825.75" y1="467.94" x2="826.45" y2="469.68"/>
<line class="st8" x1="823.32" y1="489.86" x2="825.75" y2="467.94"/>
<polyline class="st8" points="822.62,492.65 822.97,491.95 823.32,490.91 823.32,489.86 "/>
<line class="st8" x1="820.19" y1="498.56" x2="822.62" y2="492.65"/>
<polyline class="st8" points="818.79,506.91 819.49,502.74 819.84,501.35 819.84,499.61 820.19,498.56 "/>
<line class="st8" x1="807.31" y1="795.01" x2="807.31" y2="755"/>
<line class="st8" x1="317.75" y1="741.78" x2="313.58" y2="704.55"/>
<polyline class="st8" points="316.36,474.9 316.71,473.16 317.4,471.07 317.75,469.68 318.79,468.29 319.14,467.25 324.71,462.38 
	325.41,460.98 325.75,459.94 "/>
<line class="st8" x1="329.58" y1="439.41" x2="825.75" y2="467.94"/>
<line class="st8" x1="325.75" y1="459.94" x2="329.58" y2="439.41"/>
<line class="st8" x1="807.66" y1="750.82" x2="807.66" y2="751.17"/>
<line class="st8" x1="807.66" y1="750.82" x2="808.01" y2="749.43"/>
<line class="st8" x1="807.66" y1="793.27" x2="807.66" y2="751.17"/>
<line class="st8" x1="793.39" y1="793.27" x2="795.48" y2="796.75"/>
<line class="st8" x1="790.61" y1="792.93" x2="791.31" y2="794.32"/>
<line class="st8" x1="794.09" y1="799.88" x2="796.53" y2="804.41"/>
<line class="st8" x1="330.62" y1="743.86" x2="331.32" y2="744.21"/>
<line class="st8" x1="329.93" y1="743.17" x2="330.62" y2="743.86"/>
<line class="st8" x1="333.06" y1="744.21" x2="332.02" y2="743.17"/>
<line class="st8" x1="334.1" y1="744.21" x2="333.06" y2="744.21"/>
<line class="st8" x1="331.32" y1="744.21" x2="333.76" y2="744.21"/>
<polyline class="st8" points="893.95,297.1 893.6,295.36 892.91,293.97 892.91,293.27 892.21,292.58 856.72,239.34 856.72,238.99 
	"/>
<polyline class="st8" points="810.1,787.01 810.44,788.05 810.79,789.45 810.79,790.84 "/>
<path class="st8" d="M858.46,239.34l35.49,53.24l0.7,0.7c1.11,2.98,2.39,9.34,2.09,12.53l0.7,6.26c0.53,9.82,0.38,17.69,0,27.49
	l-0.35,4.52l-13.92,339.94l-69.24,149.97"/>
<line class="st8" x1="858.46" y1="239.34" x2="856.72" y2="239.34"/>
<path class="st8" d="M882.82,681.23l13.92-336.46c-0.09-12.99,1.63-35.54-2.78-47.67l-39.32-57.76"/>
<line class="st8" x1="821.93" y1="530.22" x2="821.23" y2="529.88"/>
<line class="st8" x1="844.89" y1="325.28" x2="821.93" y2="530.23"/>
<line class="st8" x1="819.14" y1="545.53" x2="818.45" y2="545.19"/>
<polyline class="st8" points="821.93,530.22 821.58,533.7 821.23,536.84 820.53,539.97 819.84,542.75 819.14,545.53 "/>
<line class="st8" x1="818.1" y1="550.41" x2="817.4" y2="550.41"/>
<line class="st8" x1="819.14" y1="545.53" x2="818.1" y2="550.41"/>
<line class="st8" x1="810.44" y1="783.53" x2="810.09" y2="783.53"/>
<path class="st8" d="M818.1,550.41l-1.04,15.31l-1.04,15.66c-2.17,44.69-4.31,89.57-5.22,134.31v14.27l-0.35,13.57v13.57
	l-0.35,13.22l0.35,13.22l1.39,2.78l1.04,1.04v1.74l0.35,1.74l0.35,2.44v8.35"/>
<line class="st8" x1="813.57" y1="830.5" x2="882.82" y2="681.23"/>
<line class="st8" x1="883.16" y1="684.02" x2="881.42" y2="684.02"/>
<line class="st8" x1="883.16" y1="687.5" x2="814.62" y2="836.07"/>
<polyline class="st8" points="883.51,682.97 883.51,686.45 883.16,686.8 883.16,687.5 "/>
<line class="st8" x1="897.78" y1="343.73" x2="883.51" y2="682.97"/>
<path class="st8" d="M894.3,288.75l0.7,1.04c4.26,15.01,2.9,33.88,3.13,49.41l-0.35,4.52"/>
<line class="st8" x1="859.85" y1="236.21" x2="894.3" y2="288.75"/>
<line class="st8" x1="858.81" y1="238.99" x2="858.46" y2="239.34"/>
<line class="st8" x1="190.05" y1="599.81" x2="191.1" y2="599.47"/>
<line class="st8" x1="274.26" y1="606.43" x2="274.6" y2="606.77"/>
<polyline class="st8" points="276.34,622.78 280.52,622.78 281.22,622.43 "/>
<polyline class="st8" points="134.73,609.56 135.08,609.9 136.12,610.6 136.82,610.6 "/>
<polyline class="st8" points="136.82,608.16 136.12,607.82 135.08,607.82 135.08,607.12 134.73,607.12 134.73,606.77 135.08,606.77 
	"/>
<polyline class="st8" points="281.22,620 280.52,620 279.48,620.34 276.34,620.34 "/>
<line class="st8" x1="134.73" y1="607.12" x2="134.73" y2="609.56"/>
<path class="st8" d="M276.34,622.78l-17.4-2.09c-34.78-3.32-69.57-6.2-104.38-9.05l-17.75-1.04"/>
<polyline class="st8" points="136.82,608.16 154.56,609.21 171.96,610.6 189.71,611.64 224.5,615.12 241.9,616.52 258.95,618.26 
	276.34,620.34 "/>
<line class="st8" x1="236.68" y1="608.51" x2="229.02" y2="611.99"/>
<path class="st8" d="M250.25,608.16h-1.39c-3.6-0.44-7.25-0.28-10.79,0.35h-1.39"/>
<line class="st8" x1="219.28" y1="607.12" x2="211.63" y2="610.6"/>
<path class="st8" d="M232.85,606.43h-1.39c-2.49,0.21-9.18-0.42-11.13,0.35l-1.04,0.35"/>
<line class="st8" x1="202.23" y1="605.73" x2="194.23" y2="609.21"/>
<path class="st8" d="M215.11,605.38l-1.39-0.35c-5.6-0.66-5.5-0.05-10.79,0.35l-0.7,0.35"/>
<line class="st8" x1="216.5" y1="604.34" x2="207.1" y2="608.16"/>
<polyline class="st8" points="192.49,607.12 202.23,602.95 202.93,602.95 203.97,602.6 207.1,602.6 208.84,602.25 210.58,602.25 
	211.97,602.6 215.11,602.6 216.15,602.95 216.84,602.95 217.54,603.64 217.54,603.99 217.19,603.99 216.5,604.34 "/>
<polyline class="st8" points="207.1,608.16 206.41,608.51 205.01,608.51 203.62,609.21 195.27,609.21 193.88,608.51 192.84,608.51 
	192.14,608.16 191.44,608.16 191.44,607.82 191.79,607.12 192.49,607.12 "/>
<line class="st8" x1="234.24" y1="605.73" x2="224.85" y2="609.9"/>
<polyline class="st8" points="209.89,608.51 219.28,604.69 221.37,603.99 232.5,603.99 233.55,604.34 234.94,605.03 234.94,605.38 
	234.59,605.73 234.24,605.73 "/>
<polyline class="st8" points="224.85,609.9 223.8,609.9 222.76,610.6 219.63,610.6 217.89,610.95 216.15,610.95 214.41,610.6 
	211.63,610.6 210.58,609.9 209.54,609.9 209.19,609.56 209.19,608.51 209.89,608.51 "/>
<line class="st8" x1="251.99" y1="607.82" x2="242.59" y2="611.3"/>
<polyline class="st8" points="227.63,609.9 236.68,606.43 238.07,605.73 239.11,605.73 240.51,605.38 248.86,605.38 250.25,605.73 
	250.94,605.73 251.99,606.43 252.34,606.43 253.03,606.77 252.34,607.12 251.99,607.82 "/>
<path class="st8" d="M242.59,611.3l-0.7,0.35c-3.81,0.79-10.96,1.36-14.61-0.35h-0.35v-0.7h0.35l0.35-0.7"/>
<line class="st8" x1="190.05" y1="599.81" x2="187.62" y2="599.47"/>
<line class="st8" x1="277.04" y1="607.12" x2="274.6" y2="606.77"/>
<polyline class="st8" points="240.85,601.21 235.63,602.95 230.07,602.6 230.76,602.6 "/>
<path class="st8" d="M151.78,602.95l4.87-0.7c8.02-0.69,18.2-2.78,25.75-2.44l5.22-0.35"/>
<polyline class="st8" points="277.04,607.12 278.78,608.16 280.52,608.51 281.91,609.21 "/>
<line class="st8" x1="135.08" y1="606.43" x2="135.08" y2="606.77"/>
<line class="st8" x1="274.6" y1="626.26" x2="277.04" y2="624.87"/>
<path class="st8" d="M274.6,626.26l-14.96-1.39c-36.09-4.12-71.97-7.27-108.21-9.74l-16.35-1.04"/>
<line class="st8" x1="277.74" y1="624.52" x2="277.74" y2="622.78"/>
<line class="st8" x1="135.08" y1="611.3" x2="137.51" y2="610.6"/>
<line class="st8" x1="276.69" y1="622.78" x2="274.6" y2="624.17"/>
<line class="st8" x1="135.08" y1="612.34" x2="135.08" y2="611.3"/>
<line class="st8" x1="274.6" y1="624.17" x2="274.6" y2="624.52"/>
<line class="st8" x1="274.6" y1="626.26" x2="274.6" y2="624.52"/>
<line class="st8" x1="135.08" y1="612.34" x2="135.08" y2="614.08"/>
<line class="st8" x1="134.73" y1="609.21" x2="134.03" y2="609.21"/>
<path class="st8" d="M274.6,624.17l-15.31-2.09c-35.98-4.18-72.13-6.72-108.21-9.74l-16.01-1.04"/>
<path class="st8" d="M135.08,612.34l16.01,1.04c36.18,1.47,72.26,5.21,108.21,9.39l15.31,1.74"/>
<line class="st8" x1="139.25" y1="606.77" x2="134.03" y2="606.43"/>
<line class="st8" x1="276.69" y1="618.95" x2="281.22" y2="619.3"/>
<polyline class="st8" points="274.26,617.91 274.26,618.26 274.6,618.6 275.3,618.95 276.69,618.95 "/>
<polyline class="st8" points="139.25,606.77 140.99,607.12 142.04,606.77 143.43,606.77 144.47,606.43 145.17,606.43 "/>
<line class="st8" x1="274.26" y1="617.56" x2="274.26" y2="617.91"/>
<line class="st8" x1="164.3" y1="600.51" x2="161.87" y2="601.55"/>
<polyline class="st8" points="174.74,596.68 171.26,597.38 168.83,598.42 166.74,599.47 164.3,600.51 "/>
<line class="st8" x1="158.74" y1="601.9" x2="158.74" y2="599.81"/>
<line class="st8" x1="145.17" y1="606.43" x2="158.74" y2="599.81"/>
<polyline class="st8" points="274.26,617.56 274.26,616.52 274.95,616.17 275.3,615.47 "/>
<line class="st8" x1="281.56" y1="611.99" x2="275.3" y2="615.47"/>
<path class="st8" d="M218.58,632.17v-2.09l-0.7-2.09c-4.84-9.44-16.26-11.11-19.49-0.7l-0.35,2.09v2.09l0.7,1.74l0.7,2.44l1.04,1.74
	l1.74,1.39l1.39,1.39l1.74,1.04l1.74,0.7l2.09,0.35h1.74l2.09-0.7l1.74-0.7l2.78-2.78l0.35-2.09l0.7-1.74V632.17z"/>
<path class="st8" d="M217.54,632.17v-2.09l-0.7-1.74c-1.94-7.45-14.1-10.03-17.4-2.09l-0.7,2.44v1.74l0.7,1.74l0.35,2.09l1.04,1.74
	l1.39,2.09l1.04,1.04l1.74,1.04l1.74,0.7c3.96,0.95,5.31,0.34,8.35-2.09l1.04-1.39l1.04-1.74l0.35-1.74V632.17z"/>
<path class="st8" d="M213.37,640.18l-1.39,0.7c-10.58,3.09-17.28-12.8-9.74-17.4l1.04-1.39"/>
<polyline class="st8" points="224.5,572.67 223.8,572.67 223.11,573.02 221.37,573.02 220.67,572.67 220.32,572.67 215.8,452.98 "/>
<line class="st8" x1="224.5" y1="572.67" x2="220.32" y2="452.98"/>
<polyline class="st8" points="211.97,426.54 210.93,426.88 210.23,427.23 209.54,427.23 209.54,427.58 209.89,427.93 210.93,428.28 
	221.37,428.28 222.76,427.93 224.15,427.23 224.5,427.23 223.8,426.54 222.76,426.54 221.72,426.19 "/>
<polyline class="st8" points="210.58,448.11 210.58,448.46 210.93,448.81 214.76,448.81 216.15,449.15 217.89,448.81 222.06,448.81 
	223.8,448.46 224.5,448.11 224.85,447.76 "/>
<line class="st8" x1="224.5" y1="427.23" x2="224.85" y2="447.76"/>
<line class="st8" x1="209.54" y1="427.58" x2="210.58" y2="448.11"/>
<polyline class="st8" points="215.11,452.98 215.8,452.98 216.15,453.33 218.93,453.33 219.63,452.98 220.32,452.98 "/>
<polyline class="st8" points="211.97,448.81 212.32,449.15 213.71,449.85 219.28,449.85 220.67,449.5 222.06,449.5 223.46,448.81 
	"/>
<line class="st8" x1="215.11" y1="452.98" x2="214.76" y2="449.85"/>
<line class="st8" x1="220.32" y1="452.98" x2="221.37" y2="449.5"/>
<line class="st8" x1="211.97" y1="448.81" x2="211.97" y2="448.81"/>
<line class="st8" x1="223.46" y1="448.81" x2="223.46" y2="448.46"/>
<line class="st8" x1="211.97" y1="426.54" x2="211.97" y2="424.45"/>
<line class="st8" x1="221.72" y1="426.19" x2="221.72" y2="424.45"/>
<polyline class="st8" points="221.72,426.19 222.06,426.54 222.06,426.88 "/>
<line class="st8" x1="211.97" y1="427.23" x2="211.97" y2="426.54"/>
<polyline class="st8" points="210.93,226.47 210.93,225.77 210.93,224.38 "/>
<polyline class="st8" points="213.71,227.51 212.67,227.16 211.97,227.16 211.63,226.81 210.93,226.47 "/>
<polyline class="st8" points="217.19,226.81 216.15,226.81 215.11,227.16 214.76,227.16 213.71,227.51 "/>
<polyline class="st8" points="218.58,224.38 218.58,225.08 217.89,225.77 217.54,225.77 217.19,226.81 "/>
<polyline class="st8" points="218.58,222.64 218.93,222.99 218.93,224.03 218.58,224.38 "/>
<polyline class="st8" points="216.15,221.6 217.19,221.6 217.89,222.29 218.58,222.64 "/>
<polyline class="st8" points="212.67,222.29 213.37,221.94 214.41,221.6 216.15,221.6 "/>
<polyline class="st8" points="210.93,224.38 211.28,224.03 211.63,223.34 212.67,222.29 "/>
<path class="st8" d="M216.84,219.86h-3.83l-1.74,0.35l-1.39,0.7l-3.13,2.09l-0.35,1.04l-0.35,1.39v1.04l0.35,0.7l0.35,0.7l1.39,0.35
	l1.04,0.7l1.74,0.35h2.09c6.54,1.1,14.92-5.46,8.7-8.7l-1.39-0.35l-1.74-0.35H216.84z"/>
<polygon class="st8" points="194.58,219.51 191.1,228.55 195.27,228.55 197.01,225.08 203.62,225.08 203.97,223.34 198.06,223.34 
	198.75,221.6 205.36,221.6 206.06,219.86 "/>
<line class="st8" x1="195.62" y1="228.55" x2="195.27" y2="228.55"/>
<path class="st8" d="M230.07,227.86h-1.04l-1.74-0.35l-0.35-0.35l-1.39-0.35l-1.04,2.44h5.22c5.42-0.3,4.2,1.09,8.35-1.74l0.35-0.7
	v-1.39l-0.35-0.35l-1.39-0.7l-1.39-0.35h-1.39l-1.04-0.35l-0.7-0.35l-0.35-0.35h-0.35l0.35-0.35c1.29-1.25,3.55-0.65,5.22-0.35
	l1.74,0.35l1.04-2.09h-0.7l-1.04-0.35h-6.61l-1.39,0.35l-1.04,0.7l-1.04,0.35h-0.35l-0.35,0.35l-0.35,0.7v1.39l0.35,0.35l2.78,1.39
	h2.78l0.7,0.7v0.35l-0.35,0.35v0.35h-0.7l-1.04,0.35H230.07z"/>
<line class="st8" x1="227.28" y1="224.73" x2="227.28" y2="224.38"/>
<polyline class="st8" points="246.07,228.21 244.33,228.21 243.29,227.86 241.9,227.86 241.2,227.51 239.81,229.25 242.25,229.6 
	245.03,229.95 246.42,229.95 247.81,229.6 249.2,229.6 250.6,229.25 251.64,228.9 253.03,228.55 253.38,227.86 253.73,226.81 
	254.08,226.47 254.08,225.77 253.73,225.77 253.03,225.08 252.34,224.73 250.6,224.38 249.55,224.03 247.81,224.03 247.12,223.34 
	247.12,222.99 247.46,222.99 247.46,222.64 248.86,222.64 249.55,222.29 250.6,222.29 252.34,222.64 254.42,222.99 255.47,220.9 
	254.42,220.9 253.38,220.55 248.16,220.55 247.12,220.9 245.38,221.25 244.68,221.6 243.64,221.6 242.59,222.64 242.59,222.99 
	242.25,222.99 241.9,223.68 242.25,224.03 242.59,224.73 242.59,225.08 243.64,225.42 243.98,225.77 247.12,225.77 247.81,226.47 
	248.86,226.47 248.86,226.81 249.2,226.81 249.2,227.16 248.86,227.51 248.86,227.86 248.16,227.86 247.81,228.21 246.07,228.21 "/>
<line class="st8" x1="255.47" y1="221.25" x2="255.47" y2="220.9"/>
<line class="st8" x1="206.41" y1="226.81" x2="206.06" y2="226.81"/>
<line class="st8" x1="210.93" y1="224.38" x2="210.93" y2="225.77"/>
<polyline class="st8" points="218.58,222.99 218.58,222.64 217.89,222.29 217.19,221.6 214.41,221.6 213.37,221.94 212.67,222.29 
	211.63,223.34 211.28,224.03 210.93,224.38 "/>
<polyline class="st8" points="213.02,229.25 211.63,229.25 210.58,228.9 209.19,228.9 207.8,228.21 206.75,227.86 206.75,227.51 
	206.41,226.81 "/>
<path class="st8" d="M223.46,224.73l-0.7,1.04c-1.47,2.8-4.94,2.88-7.65,3.48h-2.09"/>
<polyline class="st8" points="223.46,222.29 223.8,222.99 223.8,224.03 223.46,224.73 "/>
<line class="st8" x1="195.62" y1="228.55" x2="191.1" y2="228.55"/>
<line class="st8" x1="197.01" y1="225.08" x2="195.62" y2="228.55"/>
<line class="st8" x1="203.62" y1="225.08" x2="197.01" y2="225.08"/>
<line class="st8" x1="203.97" y1="223.34" x2="203.62" y2="225.08"/>
<line class="st8" x1="198.75" y1="221.6" x2="198.06" y2="223.34"/>
<line class="st8" x1="205.36" y1="221.6" x2="198.75" y2="221.6"/>
<line class="st8" x1="206.06" y1="219.86" x2="205.36" y2="221.6"/>
<line class="st8" x1="229.72" y1="229.25" x2="224.5" y2="229.25"/>
<line class="st8" x1="235.29" y1="229.25" x2="229.72" y2="229.25"/>
<polyline class="st8" points="238.42,226.81 238.07,227.51 237.03,228.21 236.33,228.55 235.29,229.25 "/>
<line class="st8" x1="238.42" y1="225.77" x2="238.42" y2="226.81"/>
<line class="st8" x1="231.46" y1="222.99" x2="231.46" y2="222.99"/>
<polyline class="st8" points="232.85,221.94 232.5,222.29 232.15,222.29 231.46,222.99 "/>
<line class="st8" x1="234.24" y1="221.94" x2="232.85" y2="221.94"/>
<line class="st8" x1="235.29" y1="221.94" x2="234.24" y2="221.94"/>
<line class="st8" x1="238.77" y1="222.64" x2="235.29" y2="221.94"/>
<line class="st8" x1="239.81" y1="220.55" x2="238.77" y2="222.64"/>
<polyline class="st8" points="227.28,224.73 226.94,224.38 226.94,224.03 "/>
<polyline class="st8" points="228.68,225.08 227.98,225.08 227.28,224.73 "/>
<line class="st8" x1="230.07" y1="225.77" x2="228.68" y2="225.08"/>
<line class="st8" x1="231.46" y1="225.77" x2="230.07" y2="225.77"/>
<line class="st8" x1="232.85" y1="225.77" x2="231.46" y2="225.77"/>
<line class="st8" x1="233.55" y1="226.47" x2="232.85" y2="225.77"/>
<line class="st8" x1="233.55" y1="226.81" x2="233.55" y2="226.47"/>
<polyline class="st8" points="245.03,229.95 242.25,229.6 239.81,229.25 "/>
<polyline class="st8" points="250.6,229.25 249.2,229.6 247.81,229.6 246.42,229.95 245.03,229.95 "/>
<polyline class="st8" points="253.73,226.81 253.38,227.86 253.03,228.55 251.64,229.25 250.6,229.25 "/>
<polyline class="st8" points="254.08,225.77 254.08,226.47 253.73,226.81 "/>
<line class="st8" x1="254.08" y1="225.77" x2="254.08" y2="225.77"/>
<line class="st8" x1="247.12" y1="222.99" x2="247.12" y2="223.34"/>
<polyline class="st8" points="248.86,222.64 247.46,222.64 247.46,222.99 247.12,222.99 "/>
<line class="st8" x1="249.55" y1="222.29" x2="248.86" y2="222.64"/>
<line class="st8" x1="250.6" y1="222.29" x2="249.55" y2="222.29"/>
<polyline class="st8" points="254.42,222.99 252.34,222.64 250.6,222.29 "/>
<line class="st8" x1="255.47" y1="221.25" x2="254.42" y2="222.99"/>
<polyline class="st8" points="242.59,225.08 242.59,224.73 242.24,224.03 "/>
<polyline class="st8" points="243.98,225.77 243.64,225.42 242.59,225.08 "/>
<line class="st8" x1="245.38" y1="225.77" x2="243.98" y2="225.77"/>
<line class="st8" x1="247.12" y1="225.77" x2="245.38" y2="225.77"/>
<line class="st8" x1="247.81" y1="226.47" x2="247.12" y2="225.77"/>
<line class="st8" x1="248.86" y1="226.81" x2="247.81" y2="226.47"/>
<line class="st8" x1="249.2" y1="226.81" x2="248.86" y2="226.81"/>
<line class="st8" x1="184.83" y1="211.85" x2="365.42" y2="215.33"/>
<line class="st8" x1="151.78" y1="765.78" x2="811.83" y2="842.33"/>
<path class="st8" d="M363.33,217.07l-2.09,6.26l-2.44,6.26c-26.36,71.39-42.25,151.35-50.8,226.86l-1.04,8.7l-0.7,8.7
	c-8.19,82.85-9.05,166.77,0.7,249.48l1.04,8l0.7,7.65"/>
<path class="st8" d="M126.38,719.16l-1.39-7.65l-1.04-7.31c-11.82-80.73-11.82-160.73-3.48-241.82l0.7-8.7l1.39-8.35
	c8.81-75.08,25.97-149.47,54.63-219.55l2.78-6.26l2.44-5.92"/>
<line class="st8" x1="852.54" y1="225.77" x2="852.54" y2="228.55"/>
<polyline class="st8" points="821.23,502.04 818.79,521.87 818.79,524.66 818.1,527.09 "/>
<line class="st8" x1="315.31" y1="740.38" x2="313.92" y2="742.47"/>
<line class="st8" x1="806.62" y1="795.01" x2="806.62" y2="796.06"/>
<path class="st8" d="M143.43,750.13v1.74c-0.19,2.66,1.24,5.1,1.74,7.65l0.7,0.7"/>
<line class="st8" x1="143.08" y1="740.04" x2="143.43" y2="750.13"/>
<path class="st8" d="M140.3,728.55l0.7,1.04c0.71,2.35,2,6.36,1.74,8.7l0.35,1.74"/>
<line class="st8" x1="125.68" y1="718.12" x2="125.68" y2="718.12"/>
<path class="st8" d="M181.35,214.64l-2.44,6.26c-35.14,81.81-52.61,170.18-60.89,258.52l-0.7,9.05l-0.35,8.35
	c-5.78,70.12-3.32,144,6.96,213.64l1.74,7.65"/>
<line class="st8" x1="182.05" y1="214.29" x2="181.35" y2="214.64"/>
<polyline class="st8" points="151.78,765.78 151.08,765.78 150.04,765.44 149.69,765.09 148.65,764.74 148.3,764.05 147.6,763.35 
	147.26,762.31 146.56,761.61 146.21,760.57 145.52,759.52 144.47,755.35 144.47,752.56 144.12,750.82 "/>
<line class="st8" x1="309.75" y1="740.04" x2="313.92" y2="742.47"/>
<line class="st8" x1="315.31" y1="740.38" x2="311.83" y2="738.65"/>
<polyline class="st8" points="308.7,738.99 309.05,739.34 309.05,740.04 309.75,740.04 "/>
<path class="st8" d="M311.83,738.65v-0.35l-0.35-0.35c-11.02-84.42-10.99-169.95-3.48-254.7l1.04-8.7l0.7-8.7
	c8.61-78.52,24.1-160.64,51.5-234.86l2.09-6.26l2.78-5.92"/>
<polyline class="st8" points="364.72,215.33 364.37,215.68 364.03,216.38 363.33,217.07 "/>
<polyline class="st8" points="366.11,218.81 366.11,217.77 366.81,217.42 "/>
<line class="st8" x1="365.77" y1="215.33" x2="364.72" y2="215.33"/>
<line class="st8" x1="366.11" y1="216.38" x2="366.81" y2="217.42"/>
<line class="st8" x1="367.51" y1="216.38" x2="365.77" y2="215.33"/>
<polyline class="st8" points="144.12,750.82 143.78,740.73 143.43,737.95 143.08,735.51 142.38,733.08 142.04,730.64 140.99,729.25 
	140.3,727.51 138.9,726.47 137.51,725.77 127.07,720.9 126.38,720.2 126.38,719.16 "/>
<polyline class="st8" points="182.4,213.59 183.09,212.9 183.44,212.2 184.14,211.85 184.83,211.85 "/>
<polyline class="st8" points="808.7,798.49 809.05,799.19 809.4,800.93 810.09,801.97 810.09,837.46 810.44,838.85 810.44,839.9 
	810.79,840.59 810.79,841.29 811.83,842.33 812.18,841.99 "/>
<path class="st8" d="M814.62,839.9l-0.35,0.35l-0.35-0.35h-0.35v-0.7l-0.35-0.35l-0.35-0.7v-4.52l-0.7-1.74v-5.92l0.7-11.83v-1.39
	c-0.27-4.91,0.77-8.57-1.04-12.87v-1.39l-0.35-1.04h-0.35l-0.35-0.7"/>
<line class="st8" x1="806.62" y1="796.06" x2="808.7" y2="798.49"/>
<polyline class="st8" points="810.79,796.75 809.4,794.32 806.62,796.06 "/>
<path class="st8" d="M809.4,794.32v-6.96l-0.35-6.61c-0.12-48.25,0.78-96.54,2.78-144.75l0.35-7.65l0.7-8.35l0.35-8.35
	c0.96-21.89,2.1-43.57,3.83-65.41v-2.78c1.79-5.24,3.03-9.22,3.48-14.96l0.7-2.78v-2.78l34.1-294.71l-2.78-2.44"/>
<line class="st8" x1="855.33" y1="228.21" x2="860.2" y2="234.12"/>
<line class="st8" x1="146.91" y1="762.31" x2="145.86" y2="760.22"/>
<line class="st8" x1="126.38" y1="720.2" x2="125.68" y2="718.12"/>
<line class="st8" x1="182.05" y1="214.29" x2="183.09" y2="212.9"/>
<line class="st8" x1="814.62" y1="839.9" x2="812.18" y2="841.99"/>
<polyline class="st8" points="134.73,611.99 133.34,611.99 132.64,605.73 "/>
<polyline class="st8" points="281.22,619.3 281.56,625.21 279.82,625.21 "/>
<line class="st8" x1="276.69" y1="625.21" x2="277.04" y2="625.56"/>
<line class="st8" x1="135.08" y1="611.99" x2="135.08" y2="611.99"/>
<line class="st8" x1="279.82" y1="624.87" x2="277.04" y2="624.87"/>
<line class="st8" x1="277.04" y1="626.95" x2="277.04" y2="624.87"/>
<polyline class="st8" points="277.04,626.95 276.34,626.26 274.6,626.26 "/>
<path class="st8" d="M165,616.17l-2.44-0.35c-8.09-0.68-15.39-0.57-23.31-1.39l-1.74-0.35"/>
<line class="st8" x1="135.08" y1="611.99" x2="134.73" y2="611.99"/>
<line class="st8" x1="279.82" y1="625.21" x2="279.82" y2="624.87"/>
<line class="st8" x1="277.04" y1="624.87" x2="278.08" y2="624.17"/>
<line class="st8" x1="133.34" y1="611.99" x2="134.73" y2="611.3"/>
<line class="st8" x1="132.64" y1="605.73" x2="133.34" y2="605.73"/>
<line class="st8" x1="280.52" y1="619.3" x2="281.22" y2="619.3"/>
<path class="st8" d="M155.61,599.81l2.78-0.35c15.04-3.36,30.22-4.84,45.58-5.92l3.48-0.35"/>
<polyline class="st8" points="135.08,605.38 133.69,605.73 133.34,605.73 "/>
<polyline class="st8" points="265.56,598.42 268.69,599.47 271.47,600.16 273.91,601.21 275.65,602.6 277.74,603.64 279.48,604.69 
	280.52,605.73 282.26,607.12 "/>
<polyline class="st8" points="130.9,572.33 130.9,580.68 131.6,589.03 132.29,597.73 132.64,601.9 133.34,605.73 "/>
<path class="st8" d="M157,340.94l-1.39,6.96l-2.44,6.96c-6.9,31.2-11.98,60.58-16.35,92.21l-0.7,7.31l-1.04,6.96
	c-2.59,31.89-4.93,63.95-4.18,96.03v14.96"/>
<path class="st8" d="M308.01,347.55l2.09-9.74c4.64-26.95,8.41-63.08-18.09-80.38l-2.78-1.74l-4.18-1.74
	c-27.89-13.14-67.73-3.19-89.77,17.05l-4.18,3.48l-3.48,3.48l-2.78,3.83c-13.12,13.31-21.18,34.56-26.1,52.19l-1.74,6.96"/>
<path class="st8" d="M282.95,584.85l0.35-7.65c2.84-73.43,10.48-150.39,23.66-222.69l1.04-6.96"/>
<polyline class="st8" points="280.52,619.3 281.22,614.78 282.26,602.25 282.61,593.55 282.95,584.85 "/>
<path class="st8" d="M134.73,611.99l0.35,3.83l1.39,3.48c8.58,35.33,34.16,61.69,70.29,68.55l3.13,0.35h3.48
	c35.6,2.81,58.94-21.44,64.72-54.98l0.7-2.78l1.04-5.22"/>
<path class="st8" d="M130.9,572.33l3.13-12.53c15.15-65.86,23.96-138.04,22.96-205.64v-13.22"/>
<line class="st8" x1="852.54" y1="225.77" x2="852.2" y2="225.77"/>
<path class="st8" d="M309.05,510.74l-1.04,14.27c-3.84,68.85-2.59,135.06,5.57,203.55l1.74,11.83"/>
<line class="st8" x1="313.92" y1="742.47" x2="323.66" y2="743.86"/>
<line class="st8" x1="785.74" y1="793.97" x2="334.1" y2="744.91"/>
<line class="st8" x1="806.62" y1="796.06" x2="797.57" y2="795.01"/>
<polyline class="st8" points="314.27,499.26 313.23,501.69 312.18,503.78 310.79,505.17 "/>
<line class="st8" x1="321.93" y1="465.16" x2="326.1" y2="443.59"/>
<line class="st8" x1="852.2" y1="225.77" x2="851.85" y2="227.51"/>
<line class="st8" x1="328.88" y1="443.24" x2="324.36" y2="442.89"/>
<line class="st8" x1="326.1" y1="443.59" x2="324.36" y2="442.89"/>
<line class="st8" x1="328.88" y1="443.59" x2="326.1" y2="443.59"/>
<line class="st8" x1="324.36" y1="442.89" x2="324.71" y2="439.41"/>
<line class="st8" x1="366.81" y1="218.46" x2="366.81" y2="217.42"/>
<line class="st8" x1="851.5" y1="225.08" x2="852.2" y2="225.77"/>
<line class="st8" x1="366.11" y1="216.38" x2="371.68" y2="216.38"/>
<line class="st8" x1="323.66" y1="743.86" x2="323.66" y2="742.47"/>
<line class="st8" x1="333.76" y1="743.52" x2="334.1" y2="744.91"/>
<line class="st8" x1="338.97" y1="755.35" x2="338.63" y2="752.56"/>
<polyline class="st8" points="332.02,746.65 328.88,746.65 323.66,743.86 "/>
<polyline class="st8" points="335.15,747.34 336.19,748.04 336.89,749.08 337.93,750.48 338.28,751.87 339.32,753.61 339.32,756.04 
	"/>
<polyline class="st8" points="336.54,755.35 335.84,753.61 335.5,751.17 334.45,749.78 334.1,748.39 333.06,747.69 332.02,746.65 
	"/>
<polyline class="st8" points="334.1,744.91 338.28,747.69 335.15,747 335.15,747.34 "/>
<line class="st8" x1="328.88" y1="742.82" x2="328.88" y2="746.65"/>
<line class="st8" x1="332.02" y1="746.65" x2="332.36" y2="744.21"/>
<line class="st8" x1="335.15" y1="745.26" x2="335.15" y2="747"/>
<line class="st8" x1="785.74" y1="793.97" x2="785.74" y2="792.23"/>
<line class="st8" x1="794.09" y1="805.45" x2="794.09" y2="799.19"/>
<polyline class="st8" points="793.05,805.8 793.05,801.62 792.7,800.23 792.7,798.49 792,797.45 791.65,797.1 791.65,796.75 "/>
<line class="st8" x1="787.83" y1="796.4" x2="785.74" y2="793.97"/>
<polyline class="st8" points="797.57,793.62 797.57,795.01 798.96,797.45 "/>
<line class="st8" x1="814.62" y1="834.68" x2="814.97" y2="834.68"/>
<line class="st8" x1="859.85" y1="238.99" x2="859.5" y2="238.99"/>
<line class="st8" x1="814.97" y1="834.68" x2="814.62" y2="839.9"/>
<line class="st8" x1="860.2" y1="234.12" x2="859.85" y2="238.99"/>
<line class="st8" x1="814.62" y1="834.68" x2="814.62" y2="834.68"/>
<polyline class="st8" points="814.97,834.68 814.62,834.68 814.27,834.33 813.57,832.94 813.57,823.54 "/>
<line class="st8" x1="855.33" y1="233.43" x2="822.27" y2="524.66"/>
<line class="st8" x1="813.57" y1="812.41" x2="813.57" y2="823.54"/>
<path class="st8" d="M813.57,812.41v-3.48c-0.34-6.28,1.07-11.73-1.74-17.4l-0.35-0.7h-1.39v-25.75c0.04-42.23,0.83-84.81,2.78-127
	l0.7-15.31l0.7-14.96c2.3-25.22,0.55-50.99,6.96-75.5l0.35-3.83l0.7-3.83"/>
<line class="st8" x1="810.79" y1="790.84" x2="810.09" y2="790.84"/>
<line class="st8" x1="856.02" y1="238.64" x2="859.5" y2="238.99"/>
<line class="st8" x1="859.85" y1="238.99" x2="855.33" y2="233.43"/>
<line class="st8" x1="856.02" y1="238.64" x2="855.68" y2="237.95"/>
<polyline class="st8" points="309.05,510.74 309.75,507.96 309.75,506.91 310.44,506.22 310.79,505.17 "/>
<line class="st8" x1="367.16" y1="218.81" x2="325.06" y2="439.41"/>
<line class="st8" x1="329.58" y1="439.76" x2="324.71" y2="439.41"/>
<line class="st8" x1="368.9" y1="218.81" x2="367.16" y2="218.81"/>
<line class="st8" x1="366.81" y1="218.46" x2="367.16" y2="218.81"/>
<line class="st8" x1="850.11" y1="226.81" x2="850.46" y2="226.81"/>
<polyline class="st8" points="851.5,225.07 851.15,225.07 850.46,225.77 850.11,226.81 "/>
<line class="st8" x1="366.81" y1="218.46" x2="369.25" y2="218.46"/>
<polyline class="st8" points="372.73,215.33 372.03,215.68 371.68,216.38 370.99,217.07 "/>
<line class="st8" x1="850.11" y1="226.81" x2="370.99" y2="217.07"/>
<line class="st8" x1="371.33" y1="217.42" x2="370.99" y2="217.07"/>
<line class="st8" x1="851.5" y1="225.08" x2="372.73" y2="215.33"/>
<path class="st8" d="M216.15,734.12l-2.78-1.39v-0.7l1.04-0.35c7.75-0.18,15.14,1.75,22.27,4.52l0.35,0.7"/>
<line class="st8" x1="216.5" y1="734.47" x2="216.15" y2="734.12"/>
<line class="st8" x1="214.41" y1="731.69" x2="214.06" y2="733.08"/>
<line class="st8" x1="216.5" y1="731.69" x2="216.5" y2="734.47"/>
<polyline class="st8" points="795.48,797.45 795.48,798.14 796.18,798.84 796.52,800.23 796.52,804.06 796.87,806.15 "/>
<line class="st8" x1="795.13" y1="797.45" x2="795.48" y2="797.45"/>
<line class="st8" x1="796.87" y1="806.15" x2="793.05" y2="805.8"/>
<line class="st8" x1="339.32" y1="756.04" x2="336.54" y2="755.35"/>
<line class="st8" x1="338.63" y1="755.35" x2="339.32" y2="755.35"/>
<line class="st8" x1="336.54" y1="755.35" x2="338.63" y2="755.35"/>
<line class="st8" x1="793.74" y1="805.45" x2="796.87" y2="805.8"/>
<line class="st8" x1="793.05" y1="805.8" x2="793.74" y2="805.45"/>
<path class="st8" d="M237.03,736.91l1.04,0.35c1.84,2.11,3.35,6.1,0.7,8.35l-0.35,1.04l-1.04,0.35
	c-10.97,5.54-15.33-6.44-20.18-11.48l-0.7-1.04"/>
<path class="st8" d="M232.15,734.47v2.09c0.19,3.07,2.17,6.72,4.52,8.7l1.74,1.04"/>
<line class="st8" x1="798.96" y1="797.45" x2="795.13" y2="797.45"/>
<line class="st8" x1="791.65" y1="796.75" x2="787.83" y2="796.4"/>
<line class="st8" x1="795.48" y1="793.27" x2="795.13" y2="797.45"/>
<line class="st8" x1="791.65" y1="796.75" x2="792" y2="794.66"/>
<line class="st8" x1="787.83" y1="796.4" x2="788.17" y2="792.58"/>
<line class="st8" x1="242.59" y1="598.77" x2="243.29" y2="598.77"/>
<polyline class="st8" points="240.16,599.81 240.51,599.81 240.85,600.16 "/>
<line class="st8" x1="267.65" y1="605.73" x2="267.65" y2="605.73"/>
<path class="st8" d="M240.85,600.16l3.83,0.35c6.84,1.57,14.06,1.64,20.53,4.52l2.44,0.7"/>
<line class="st8" x1="250.25" y1="608.16" x2="244.33" y2="607.82"/>
<line class="st8" x1="232.5" y1="606.77" x2="226.94" y2="606.43"/>
<line class="st8" x1="215.1" y1="605.38" x2="209.19" y2="604.69"/>
<path class="st8" d="M197.36,599.81l4.87-0.35c7.7-0.72,16.19-0.18,24.01-0.35l4.52,0.35"/>
<line class="st8" x1="197.36" y1="599.81" x2="197.36" y2="599.81"/>
<path class="st8" d="M190.05,599.12l5.22-0.35c10.67-0.93,19.91-1.23,30.62-1.04l4.87,0.35"/>
<line class="st8" x1="190.05" y1="599.12" x2="197.36" y2="599.81"/>
<line class="st8" x1="267.65" y1="605.73" x2="275.3" y2="606.43"/>
<path class="st8" d="M243.29,598.77l4.52,0.7c8.47,1.15,17.16,2.6,25.05,5.92l2.44,1.04"/>
<line class="st8" x1="242.59" y1="594.25" x2="242.59" y2="598.77"/>
<line class="st8" x1="235.63" y1="598.07" x2="242.59" y2="594.25"/>
<line class="st8" x1="235.63" y1="598.07" x2="235.63" y2="602.95"/>
<line class="st8" x1="230.76" y1="597.38" x2="230.76" y2="602.6"/>
<polyline class="st8" points="237.03,593.9 230.76,597.38 235.63,598.07 "/>
<line class="st8" x1="275.3" y1="606.43" x2="275.3" y2="601.9"/>
<polyline class="st8" points="242.59,594.25 247.12,594.59 250.94,595.29 255.12,595.99 258.95,596.68 262.43,597.38 265.56,598.42 
	"/>
<polyline class="st8" points="207.45,593.2 227.28,593.2 232.5,593.55 237.03,593.9 "/>
<line class="st8" x1="190.05" y1="594.59" x2="190.05" y2="599.12"/>
<path class="st8" d="M207.45,593.2h3.83c7.25,0.19,15.52-0.39,22.62,0.35l3.48,0.35"/>
<path class="st8" d="M242.59,594.25l3.48,0.35c5.45,0.68,11.98,1.97,17.4,3.13l2.09,0.7"/>
<polyline class="st8" points="237.37,593.9 239.81,594.25 242.59,594.25 "/>
<line class="st8" x1="278.78" y1="606.43" x2="278.78" y2="608.16"/>
<line class="st8" x1="280.52" y1="608.51" x2="280.52" y2="605.38"/>
<line class="st8" x1="186.57" y1="599.47" x2="186.57" y2="598.42"/>
<line class="st8" x1="218.58" y1="610.6" x2="211.97" y2="609.9"/>
<line class="st8" x1="200.84" y1="609.21" x2="194.58" y2="608.51"/>
<line class="st8" x1="236.68" y1="612.34" x2="229.72" y2="611.64"/>
<line class="st8" x1="218.93" y1="610.6" x2="220.32" y2="610.6"/>
<polyline class="st8" points="186.57,598.42 186.23,597.03 185.88,595.99 185.18,595.29 "/>
<polyline class="st8" points="279.13,604.34 278.78,605.38 278.78,606.43 "/>
<polyline class="st8" points="241.9,319.02 241.2,319.72 240.85,320.41 240.85,330.16 241.2,338.16 241.55,346.16 241.55,354.16 "/>
<path class="st8" d="M285.74,320.41l0.35,1.04l1.39,4.52c0.41,13.7,1.56,27.75,1.39,41.41l-0.35,8.35v8l-0.35,8.7l-1.04,3.83
	l-1.04,4.18l-0.7,0.35h-6.61"/>
<path class="st8" d="M240.85,354.16v-7.31l-0.7-15.31v-7.65l1.04-4.52l0.7-0.7l2.78-1.04l5.57-2.78l2.78-1.04l3.13-0.35l2.78-0.7
	c7.62-1.25,15.28,0.88,21.92,4.52l2.44,1.39l2.44,1.74"/>
<path class="st8" d="M276.69,640.18l-1.04,2.44l-0.7,2.78c-11.49,31.91-34.61,46.28-68.2,42.1l-2.78-1.04l-3.48-0.35
	c-33.9-8.84-56.03-35.21-64.37-68.55l-1.04-2.78v-2.78"/>
<line class="st8" x1="217.89" y1="610.6" x2="211.97" y2="609.9"/>
<line class="st8" x1="236.68" y1="612.34" x2="229.72" y2="611.64"/>
<line class="st8" x1="217.89" y1="610.95" x2="217.89" y2="610.6"/>
<polyline class="st9" points="517.47,243.17 772.86,249.08 748.51,439.76 385.95,419.93 418.31,240.73 472.24,242.12 "/>
<path class="st9" d="M486.16,425.14c-19.49-3.48-37.93-18.44-35.84-40.71c1.74-15.66,14.96-26.44,32.01-27.14"/>
<path class="st9" d="M481.98,204.2c1.39-14.61,12.53-27.49,32.36-28.53"/>
<path class="st9" d="M518.17,243.52c-4.87-0.7-9.74-2.44-14.27-4.87"/>
<line class="st9" x1="449.97" y1="385.13" x2="482.33" y2="202.81"/>
<line class="st9" x1="481.63" y1="356.25" x2="513.99" y2="176.36"/>
<polygon class="st10" points="483.37,203.85 506.68,203.85 497.64,257.78 474.33,257.78 "/>
<polygon class="st11" points="483.37,203.85 506.68,203.85 497.64,257.78 474.33,257.78 "/>
<polygon class="st5" points="524.43,313.45 574.19,315.54 570.71,336.07 640.99,295.71 585.32,251.52 582.19,271.7 531.39,269.96 
	"/>
<g>
	<g>
		<defs>
			<rect id="SVGID_13_" x="-809.73" y="1269.67" width="503.47" height="652.66"/>
		</defs>
		<clipPath id="SVGID_2_">
			<use xlink:href="#SVGID_13_"  style="overflow:visible;"/>
		</clipPath>
		<g style="clip-path:url(#SVGID_2_);">
			<defs>
				<rect id="SVGID_15_" x="-831.23" y="1164.77" width="547.32" height="777.55"/>
			</defs>
			<clipPath id="SVGID_4_">
				<use xlink:href="#SVGID_15_"  style="overflow:visible;"/>
			</clipPath>
			<g class="st59">
				<defs>
					<rect id="SVGID_17_" x="-1210.23" y="261.02" width="1305.1" height="1818.67"/>
				</defs>
				<clipPath id="SVGID_6_">
					<use xlink:href="#SVGID_17_"  style="overflow:visible;"/>
				</clipPath>
				<g class="st60">
					<defs>
						<rect id="SVGID_19_" x="-1311.69" y="82.44" width="1504.81" height="2131.88"/>
					</defs>
					<clipPath id="SVGID_8_">
						<use xlink:href="#SVGID_19_"  style="overflow:visible;"/>
					</clipPath>
				</g>
			</g>
		</g>
	</g>
</g>
</svg>
