<?xml version="1.0" encoding="utf-8"?>
<!-- Generator: Adobe Illustrator 23.0.1, SVG Export Plug-In . SVG Version: 6.00 Build 0)  -->
<svg version="1.1" id="Layer_1" xmlns="http://www.w3.org/2000/svg" xmlns:xlink="http://www.w3.org/1999/xlink" x="0px" y="0px"
	 viewBox="0 0 1000 1000" style="enable-background:new 0 0 1000 1000;" xml:space="preserve">
<style type="text/css">
	.st0{fill:#AFB1B4;}
	.st1{fill:#CED0D1;}
	.st2{fill:none;stroke:#151616;stroke-width:0.9901;stroke-miterlimit:10;}
	.st3{fill:none;stroke:#000000;stroke-width:6.5611;stroke-miterlimit:10;}
	.st4{fill-rule:evenodd;clip-rule:evenodd;fill:#070A09;}
	.st5{fill-rule:evenodd;clip-rule:evenodd;fill:#009933;}
	.st6{fill:none;stroke:#000000;stroke-width:0.9901;stroke-miterlimit:10;}
	.st7{fill:none;stroke:#000000;stroke-width:0.9901;stroke-linecap:round;stroke-linejoin:round;stroke-miterlimit:10;}
	.st8{fill:none;stroke:#000000;stroke-width:1.3048;stroke-linecap:round;stroke-linejoin:round;stroke-miterlimit:10;}
	.st9{fill:none;stroke:#151616;stroke-width:1.3048;stroke-miterlimit:10;}
	.st10{fill-rule:evenodd;clip-rule:evenodd;fill:#FCFCFC;}
	.st11{fill:none;stroke:#FEFEFE;stroke-width:1.3048;stroke-miterlimit:10;}
	.st12{fill:none;stroke:#000000;stroke-width:1.1967;stroke-linecap:round;stroke-linejoin:round;stroke-miterlimit:10;}
	.st13{fill-rule:evenodd;clip-rule:evenodd;fill:#FFFFFF;}
	.st14{fill:none;stroke:#151616;stroke-width:1.1967;stroke-miterlimit:10;}
	.st15{fill-rule:evenodd;clip-rule:evenodd;}
	.st16{fill:none;stroke:#000000;stroke-width:1.1967;stroke-miterlimit:10;}
	.st17{fill:#FFFFFF;}
	.st18{fill-rule:evenodd;clip-rule:evenodd;fill:none;}
	.st19{fill:none;stroke:#009933;stroke-width:6.9903;stroke-miterlimit:10;}
	.st20{fill:#009933;}
	.st21{fill:none;stroke:#009933;stroke-width:15.3786;stroke-miterlimit:10;}
	.st22{fill:none;stroke:#000000;stroke-width:0.9613;stroke-linecap:round;stroke-linejoin:round;stroke-miterlimit:10;}
	.st23{fill:none;stroke:#151616;stroke-width:1.049;stroke-miterlimit:10;}
	.st24{fill:#151616;}
	.st25{fill:none;stroke:#000000;stroke-width:0.9613;stroke-miterlimit:10;}
	.st26{fill:none;stroke:#151616;stroke-width:0.9613;stroke-miterlimit:10;}
	.st27{fill:none;stroke:#151616;stroke-width:0.225;stroke-miterlimit:10;}
	.st28{fill:none;stroke:#000000;stroke-width:0.9932;stroke-linecap:round;stroke-linejoin:round;stroke-miterlimit:10;}
	.st29{fill:none;stroke:#151616;stroke-width:0.9932;stroke-miterlimit:10;}
	.st30{fill:none;stroke:#FEFEFE;stroke-width:0.9932;stroke-miterlimit:10;}
	.st31{fill:none;stroke:#151616;stroke-width:0.9932;stroke-linecap:round;stroke-linejoin:round;stroke-miterlimit:10;}
	.st32{fill:none;stroke:#151616;stroke-width:1.2586;stroke-miterlimit:10;}
	.st33{fill:none;stroke:#000000;stroke-width:1.625;stroke-linecap:round;stroke-linejoin:round;stroke-miterlimit:10;}
	.st34{fill:#8F9194;}
	.st35{fill:none;stroke:#151616;stroke-width:1.159;stroke-miterlimit:10;}
	.st36{fill:#AFB1B4;stroke:#000000;stroke-width:1.115;stroke-miterlimit:10;}
	.st37{fill:none;stroke:#009933;stroke-width:7.5778;stroke-miterlimit:10;}
	.st38{fill:none;stroke:#009933;stroke-width:16.6712;stroke-miterlimit:10;}
	.st39{fill:#FFFFFF;stroke:#151616;stroke-width:1.2586;stroke-miterlimit:10;}
	.st40{fill:none;stroke:#000000;stroke-width:1.5181;stroke-linecap:round;stroke-linejoin:round;stroke-miterlimit:10;}
	.st41{fill-rule:evenodd;clip-rule:evenodd;fill:#C8C8C8;}
	.st42{fill:#C7C7C7;}
	.st43{fill:none;stroke:#000000;stroke-width:1.5079;stroke-linecap:round;stroke-linejoin:round;stroke-miterlimit:10;}
	.st44{fill:none;stroke:#151616;stroke-width:1.5079;stroke-miterlimit:10;}
	.st45{fill:none;stroke:#000000;stroke-width:0.9814;stroke-linecap:round;stroke-linejoin:round;stroke-miterlimit:10;}
	.st46{fill:none;stroke:#151616;stroke-width:0.9814;stroke-miterlimit:10;}
	.st47{fill:none;stroke:#FEFEFE;stroke-width:0.9814;stroke-miterlimit:10;}
	.st48{fill:none;stroke:#151616;stroke-width:0.9814;stroke-linecap:round;stroke-linejoin:round;stroke-miterlimit:10;}
	.st49{fill:none;stroke:#151616;stroke-width:0.6983;stroke-miterlimit:10;}
	.st50{fill:none;stroke:#151616;stroke-width:4.1862;stroke-miterlimit:10;}
	.st51{fill:none;stroke:#000000;stroke-width:0.785;stroke-linecap:round;stroke-linejoin:round;stroke-miterlimit:10;}
	.st52{fill:none;stroke:#151616;stroke-width:0.785;stroke-miterlimit:10;}
	.st53{fill:none;stroke:#000000;stroke-width:1.0776;stroke-linecap:round;stroke-linejoin:round;stroke-miterlimit:10;}
	.st54{fill:none;stroke:#151616;stroke-width:1.0776;stroke-miterlimit:10;}
	.st55{fill-rule:evenodd;clip-rule:evenodd;fill:#009933;stroke:#009933;stroke-miterlimit:10;}
	.st56{fill:#CED0D1;stroke:#000000;stroke-width:1.115;stroke-miterlimit:10;}
	.st57{fill:#C8C8C8;}
	.st58{fill:none;stroke:#151616;stroke-width:1.5181;stroke-miterlimit:10;}
	.st59{clip-path:url(#SVGID_4_);}
	.st60{clip-path:url(#SVGID_6_);}
	.st61{clip-path:url(#SVGID_8_);}
	.st62{clip-path:url(#SVGID_10_);}
	.st63{clip-path:url(#SVGID_14_);}
	.st64{clip-path:url(#SVGID_16_);}
	.st65{clip-path:url(#SVGID_18_);}
	.st66{clip-path:url(#SVGID_20_);}
	.st67{clip-path:url(#SVGID_24_);}
	.st68{clip-path:url(#SVGID_26_);}
	.st69{clip-path:url(#SVGID_28_);}
	.st70{clip-path:url(#SVGID_30_);}
	.st71{clip-path:url(#SVGID_34_);}
	.st72{clip-path:url(#SVGID_38_);}
	.st73{clip-path:url(#SVGID_42_);}
	.st74{clip-path:url(#SVGID_46_);}
	.st75{clip-path:url(#SVGID_48_);}
	.st76{clip-path:url(#SVGID_50_);}
	.st77{clip-path:url(#SVGID_52_);}
	.st78{fill:#7A7A7A;}
	.st79{clip-path:url(#SVGID_56_);}
	.st80{clip-path:url(#SVGID_58_);}
	.st81{clip-path:url(#SVGID_60_);}
	.st82{clip-path:url(#SVGID_62_);}
	.st83{clip-path:url(#SVGID_66_);}
	.st84{clip-path:url(#SVGID_68_);}
	.st85{clip-path:url(#SVGID_70_);}
	.st86{clip-path:url(#SVGID_72_);}
	.st87{clip-path:url(#SVGID_76_);}
	.st88{clip-path:url(#SVGID_78_);}
	.st89{clip-path:url(#SVGID_80_);}
	.st90{clip-path:url(#SVGID_82_);}
	.st91{clip-path:url(#SVGID_86_);}
	.st92{clip-path:url(#SVGID_88_);}
	.st93{clip-path:url(#SVGID_90_);fill:#FFFFFF;}
	.st94{clip-path:url(#SVGID_92_);}
	.st95{clip-path:url(#SVGID_94_);}
	.st96{clip-path:url(#SVGID_96_);}
	.st97{clip-path:url(#SVGID_98_);}
	.st98{clip-path:url(#SVGID_102_);}
	.st99{clip-path:url(#SVGID_104_);}
	.st100{clip-path:url(#SVGID_106_);fill:#FFFFFF;}
	.st101{clip-path:url(#SVGID_108_);}
	.st102{clip-path:url(#SVGID_110_);}
	.st103{clip-path:url(#SVGID_112_);}
	.st104{clip-path:url(#SVGID_114_);}
	.st105{clip-path:url(#SVGID_118_);}
	.st106{clip-path:url(#SVGID_120_);}
	.st107{clip-path:url(#SVGID_122_);}
</style>
<g>
	<path d="M370.85,784.51v9.42h-52.74c-0.07-2.36,0.31-4.63,1.14-6.8c1.34-3.59,3.49-7.13,6.45-10.61
		c2.96-3.48,7.23-7.51,12.82-12.08c8.67-7.11,14.53-12.74,17.58-16.9c3.05-4.15,4.57-8.08,4.57-11.78c0-3.88-1.39-7.16-4.16-9.82
		c-2.78-2.67-6.4-4-10.86-4c-4.72,0-8.49,1.42-11.32,4.25s-4.26,6.75-4.3,11.76l-10.07-1.03c0.69-7.51,3.28-13.23,7.78-17.17
		c4.5-3.94,10.54-5.91,18.12-5.91c7.66,0,13.72,2.12,18.18,6.37c4.46,4.25,6.69,9.51,6.69,15.78c0,3.19-0.65,6.33-1.96,9.42
		c-1.31,3.08-3.47,6.33-6.5,9.74c-3.03,3.41-8.06,8.09-15.1,14.04c-5.88,4.93-9.65,8.28-11.32,10.04c-1.67,1.76-3.05,3.53-4.14,5.31
		H370.85z"/>
	<path d="M415.16,793.92v-79.79h9.8v28.63c4.57-5.3,10.34-7.95,17.31-7.95c4.28,0,8,0.84,11.16,2.53c3.16,1.69,5.42,4.02,6.78,6.99
		c1.36,2.98,2.04,7.29,2.04,12.95v36.63h-9.8v-36.63c0-4.9-1.06-8.46-3.18-10.69c-2.12-2.23-5.13-3.35-9.01-3.35
		c-2.9,0-5.63,0.75-8.19,2.26c-2.56,1.51-4.38,3.55-5.47,6.12c-1.09,2.58-1.63,6.13-1.63,10.67v31.62H415.16z"/>
	<path d="M473.39,765.02c0-10.7,2.97-18.63,8.93-23.78c4.97-4.28,11.03-6.42,18.18-6.42c7.95,0,14.44,2.6,19.48,7.81
		c5.04,5.21,7.57,12.4,7.57,21.58c0,7.44-1.12,13.29-3.35,17.55s-5.48,7.57-9.74,9.93c-4.26,2.36-8.92,3.54-13.96,3.54
		c-8.09,0-14.63-2.59-19.62-7.78C475.89,782.26,473.39,774.78,473.39,765.02z M483.46,765.02c0,7.4,1.61,12.95,4.84,16.63
		c3.23,3.68,7.29,5.52,12.19,5.52c4.86,0,8.91-1.85,12.14-5.55c3.23-3.7,4.84-9.34,4.84-16.93c0-7.15-1.62-12.56-4.87-16.25
		c-3.25-3.68-7.28-5.52-12.11-5.52c-4.9,0-8.96,1.83-12.19,5.5C485.08,752.09,483.46,757.62,483.46,765.02z"/>
	<path d="M576.8,793.92v-8.49c-4.5,6.53-10.61,9.8-18.34,9.8c-3.41,0-6.59-0.65-9.55-1.96c-2.96-1.31-5.15-2.95-6.59-4.93
		c-1.43-1.98-2.44-4.4-3.02-7.27c-0.4-1.92-0.6-4.97-0.6-9.14v-35.81h9.8v32.06c0,5.12,0.2,8.56,0.6,10.34
		c0.62,2.58,1.92,4.6,3.92,6.07c2,1.47,4.46,2.2,7.4,2.2c2.94,0,5.7-0.75,8.27-2.26c2.58-1.5,4.4-3.56,5.47-6.15
		c1.07-2.59,1.61-6.36,1.61-11.29v-30.97h9.8v57.8H576.8z"/>
	<path d="M600.69,793.92v-57.8h8.82v8.76c2.25-4.1,4.33-6.8,6.23-8.11c1.91-1.31,4-1.96,6.29-1.96c3.3,0,6.66,1.05,10.07,3.16
		l-3.37,9.09c-2.4-1.42-4.79-2.12-7.18-2.12c-2.14,0-4.06,0.64-5.77,1.93c-1.71,1.29-2.92,3.08-3.65,5.36
		c-1.09,3.48-1.63,7.29-1.63,11.43v30.26H600.69z"/>
	<path d="M633.89,776.67l9.69-1.52c0.54,3.88,2.06,6.86,4.54,8.93c2.49,2.07,5.96,3.1,10.42,3.1c4.5,0,7.84-0.92,10.01-2.75
		c2.18-1.83,3.27-3.98,3.27-6.45c0-2.21-0.96-3.95-2.88-5.22c-1.34-0.87-4.68-1.98-10.01-3.32c-7.18-1.81-12.16-3.38-14.94-4.71
		c-2.78-1.32-4.88-3.16-6.31-5.5c-1.43-2.34-2.15-4.93-2.15-7.76c0-2.58,0.59-4.96,1.77-7.16s2.78-4.02,4.82-5.47
		c1.52-1.12,3.6-2.08,6.23-2.86s5.45-1.17,8.46-1.17c4.54,0,8.52,0.65,11.95,1.96c3.43,1.31,5.96,3.08,7.59,5.31
		s2.76,5.22,3.38,8.95l-9.58,1.31c-0.44-2.97-1.7-5.3-3.78-6.97c-2.09-1.67-5.04-2.5-8.84-2.5c-4.5,0-7.71,0.74-9.63,2.23
		c-1.92,1.49-2.88,3.23-2.88,5.22c0,1.27,0.4,2.41,1.2,3.43c0.8,1.05,2.05,1.92,3.75,2.61c0.98,0.36,3.86,1.2,8.65,2.5
		c6.93,1.85,11.76,3.37,14.5,4.54c2.74,1.18,4.89,2.89,6.45,5.14c1.56,2.25,2.34,5.04,2.34,8.38c0,3.27-0.95,6.34-2.86,9.23
		c-1.9,2.88-4.65,5.12-8.25,6.69c-3.59,1.58-7.66,2.37-12.19,2.37c-7.51,0-13.24-1.56-17.17-4.68
		C637.49,787.43,634.98,782.8,633.89,776.67z"/>
</g>
<g>
	<path d="M528.93,468.02l29.08-23.54c6.61-5.35,10.4-13.3,10.4-21.81v-53.78h2.42c4.04,0,7.32-3.28,7.32-7.32v-22.52
		c0-4.04-3.28-7.32-7.32-7.32H429.16c-4.04,0-7.32,3.28-7.32,7.32v22.52c0,4.04,3.28,7.32,7.32,7.32h2.42v53.78
		c0,8.51,3.79,16.45,10.4,21.81l29.08,23.54c0.99,0.8,1.56,1.99,1.56,3.26v21.5c0,1.27-0.57,2.46-1.55,3.26l-29.08,23.54
		c-6.61,5.35-10.4,13.3-10.4,21.81v53.78h-2.42c-4.04,0-7.32,3.28-7.32,7.32v22.52c0,4.04,3.28,7.32,7.32,7.32h141.67
		c4.04,0,7.32-3.28,7.32-7.32v-22.52c0-4.04-3.28-7.32-7.32-7.32h-2.42v-53.78c0-8.51-3.79-16.45-10.4-21.81l-29.08-23.54
		c-0.99-0.8-1.55-1.99-1.55-3.26v-21.5C527.38,470.01,527.94,468.82,528.93,468.02z M436.48,346.37h127.04v7.89H436.48V346.37z
		 M563.52,617.7H436.48v-7.89h127.04V617.7z M519.72,507.42l29.08,23.54c3.16,2.56,4.98,6.36,4.98,10.43v53.78H446.23v-53.78
		c0-4.07,1.81-7.87,4.98-10.43l29.08-23.54c4.44-3.59,6.98-8.93,6.98-14.64v-21.5c0-5.71-2.54-11.04-6.98-14.64l-29.08-23.54
		c-3.16-2.56-4.98-6.36-4.98-10.43v-53.78h107.55v53.78c0,4.07-1.81,7.87-4.98,10.43l-29.08,23.54c-4.44,3.59-6.98,8.93-6.98,14.64
		v21.5C512.74,498.49,515.28,503.82,519.72,507.42z"/>
	
		<ellipse transform="matrix(0.7071 -0.7071 0.7071 0.7071 -221.7892 506.0816)" class="st0" cx="500" cy="520.76" rx="7.44" ry="7.44"/>
	<path class="st0" d="M543.27,426.28c1.09-0.88,1.72-2.2,1.72-3.6v-1.57h-89.98v1.57c0,1.41,0.63,2.72,1.72,3.6l29.08,23.54
		c6.51,5.27,10.24,13.09,10.24,21.46v25.76c0,2.18,1.77,3.96,3.96,3.96c2.18,0,3.96-1.77,3.96-3.96v-25.76
		c0-8.37,3.73-16.19,10.24-21.46L543.27,426.28z"/>
	<path class="st0" d="M485.82,562.09l-24.83,24.3h78.02l-24.83-24.3C506.3,554.38,493.7,554.38,485.82,562.09z"/>
</g>
</svg>
